<?xml version="1.0" encoding="UTF-8"?>
<svg id="Livello_1" xmlns="http://www.w3.org/2000/svg" version="1.1" viewBox="0 0 1000 1000">
  <path class="st0" d="M100,900c-27.5,0-51.04-9.79-70.62-29.38-19.58-19.58-29.38-43.12-29.38-70.62V200c0-27.5,9.79-51.04,29.38-70.62,19.58-19.58,43.13-29.38,70.62-29.38h800c27.5,0,51.04,9.79,70.62,29.38,19.58,19.58,29.38,43.12,29.38,70.62v600c0,27.5-9.79,51.04-29.38,70.62s-43.12,29.38-70.62,29.38H100ZM500,550L100,300v500h800v-500l-400,250ZM500,450l400-250H100l400,250ZM100,300v-100,600-500Z"/>
</svg>