<?xml version="1.0" encoding="UTF-8"?>
<svg id="Livello_1" xmlns="http://www.w3.org/2000/svg" version="1.1" viewBox="0 0 1000 1000">
  <path class="st0" d="M644.53,644.53c39.81-39.81,59.72-88.16,59.72-145.03s-19.91-105.22-59.72-145.03-88.16-59.72-145.03-59.72-105.22,19.91-145.03,59.72-59.72,88.16-59.72,145.03,19.91,105.22,59.72,145.03,88.16,59.72,145.03,59.72,105.22-19.91,145.03-59.72ZM412.48,586.52c-23.89-23.89-35.83-52.89-35.83-87.02s11.94-63.13,35.83-87.02,52.89-35.83,87.02-35.83,63.13,11.94,87.02,35.83,35.83,52.89,35.83,87.02-11.94,63.13-35.83,87.02-52.89,35.83-87.02,35.83-63.13-11.94-87.02-35.83ZM196.92,748.04C105.92,686.24,39.95,603.39-1,499.5c40.95-103.89,106.92-186.74,197.92-248.54s191.86-92.71,302.58-92.71,211.58,30.9,302.58,92.71,156.97,144.65,197.92,248.54c-40.95,103.89-106.92,186.74-197.92,248.54-91,61.8-191.86,92.71-302.58,92.71s-211.58-30.9-302.58-92.71ZM735.53,682.07c71.66-45.12,126.45-105.98,164.37-182.57-37.92-76.59-92.71-137.45-164.37-182.57-71.66-45.12-150.34-67.68-236.03-67.68s-164.37,22.56-236.03,67.68c-71.66,45.12-126.45,105.98-164.37,182.57,37.92,76.59,92.71,137.45,164.37,182.57,71.66,45.12,150.34,67.68,236.03,67.68s164.37-22.56,236.03-67.68Z"/>
</svg>