<?xml version="1.0" encoding="UTF-8"?>
<svg id="Livello_1" xmlns="http://www.w3.org/2000/svg" version="1.1" viewBox="0 0 1000 1000">
  <!-- Generator: Adobe Illustrator 30.2.1, SVG Export Plug-In . SVG Version: 2.1.1 Build 1)  -->
  <path class="st0" d="M645.53,645.53c39.81-39.81,59.72-88.16,59.72-145.03s-19.91-105.22-59.72-145.03c-39.81-39.81-88.16-59.72-145.03-59.72s-105.22,19.91-145.03,59.72c-39.81,39.81-59.72,88.16-59.72,145.03s19.91,105.22,59.72,145.03c39.81,39.81,88.16,59.72,145.03,59.72s105.22-19.91,145.03-59.72ZM413.48,587.52c-23.89-23.89-35.83-52.89-35.83-87.02s11.94-63.13,35.83-87.02c23.89-23.89,52.89-35.83,87.02-35.83s63.13,11.94,87.02,35.83c23.89,23.89,35.83,52.89,35.83,87.02s-11.94,63.13-35.83,87.02c-23.89,23.89-52.89,35.83-87.02,35.83s-63.13-11.94-87.02-35.83ZM197.92,749.04C106.92,687.24,40.95,604.39,0,500.5c40.95-103.89,106.92-186.74,197.92-248.54,91-61.8,191.86-92.71,302.58-92.71s211.58,30.9,302.58,92.71c91,61.8,156.97,144.65,197.92,248.54-40.95,103.89-106.92,186.74-197.92,248.54-91,61.8-191.86,92.71-302.58,92.71s-211.57-30.9-302.58-92.71ZM736.53,683.07c71.66-45.12,126.45-105.98,164.37-182.57-37.92-76.59-92.71-137.45-164.37-182.57-71.66-45.12-150.34-67.68-236.03-67.68s-164.37,22.56-236.03,67.68c-71.66,45.12-126.45,105.98-164.37,182.57,37.92,76.59,92.71,137.45,164.37,182.57s150.34,67.68,236.03,67.68,164.37-22.56,236.03-67.68Z"/>
</svg>