<svg xmlns="http://www.w3.org/2000/svg" version="1.1" xmlns:xlink="http://www.w3.org/1999/xlink" width="500" height="500"><svg xmlns="http://www.w3.org/2000/svg" version="1.1" xmlns:xlink="http://www.w3.org/1999/xlink" width="500" height="500"><svg id="Livello_1" xmlns="http://www.w3.org/2000/svg" version="1.1" viewBox="0 0 500 500">
  <!-- Generator: Adobe Illustrator 30.1.0, SVG Export Plug-In . SVG Version: 2.1.1 Build 136)  -->
  <defs>
    <style>
      .st0 {
        fill: #fdc140;
      }

      .st1 {
        fill: #f76c5e;
      }
    </style>
  </defs>
  <path class="st0" d="M334.31,32.07c9.68,1.18,17.08,3.6,22.21,7.28,5.12,3.68,8.78,7.57,11,11.69,2.76,5,4.15,10.3,4.15,15.88.27,5.88-.56,11.47-2.49,16.76-1.66,4.41-4.5,8.68-8.51,12.79-4.02,4.11-10.17,6.91-18.47,8.38-10.52,1.76-22.97,3.16-37.36,4.19-14.39,1.03-29.54,1.69-45.45,1.99-15.92.29-31.96.14-48.15-.44-16.19-.59-31.07-1.48-44.62-2.65-9.69-.88-17.16-3.24-22.42-7.06-5.26-3.82-9-7.79-11.21-11.91-2.77-5-4.29-10.44-4.57-16.32-.56-6.46.55-12.35,3.32-17.64,2.21-4.7,6.02-9.26,11.42-13.67,5.4-4.41,13.63-7.5,24.7-9.26,19.92-2.94,39.78-4.55,59.57-4.85,19.78-.29,37.56-.14,53.34.44,18.54.88,36.39,2.36,53.55,4.41Z"></path>
  <path class="st1" d="M259.4,153.37c18.81,0,35.34,2.16,49.61,6.48,14.26,4.32,26.72,10.06,37.38,17.21,10.65,7.15,19.59,15.27,26.8,24.36,7.21,9.09,13.17,18.4,17.87,27.93,10.97,22.35,17.24,47.53,18.81,75.53,0,21.16-2.2,39.7-6.58,55.64-4.39,15.94-10.11,29.8-17.16,41.56-7.05,11.78-15.05,21.68-23.98,29.72-8.93,8.05-18.1,14.75-27.51,20.11-21.94,12.22-47.02,19.22-75.23,21.01-21.32,0-39.97-2.17-55.95-6.48-15.99-4.32-29.94-9.98-41.85-16.99-11.92-7-21.94-15.04-30.09-24.13-8.16-9.08-14.89-18.39-20.22-27.93-12.54-22.04-19.59-47.22-21.16-75.53,0-23.24,2.43-43.35,7.29-60.33,4.86-16.99,11.28-31.66,19.28-44.02,7.99-12.36,17-22.49,27.03-30.39,10.03-7.89,20.37-14.23,31.03-19,24.76-11.02,52.97-15.94,84.63-14.75ZM252.35,296.84c-5.33,0-9.95,1.94-13.87,5.81-3.92,3.88-5.57,8.2-4.94,12.96.62,6.26,2.58,10.58,5.88,12.96,3.29,2.39,7.6,3.57,12.93,3.57s9.71-1.49,13.17-4.47c3.45-2.97,5.17-7,5.17-12.07,0-4.76-1.57-9.09-4.7-12.96-3.14-3.87-7.68-5.81-13.64-5.81Z"></path>
</svg></svg><style>@media (prefers-color-scheme: light) { :root { filter: none; } }
@media (prefers-color-scheme: dark) { :root { filter: none; } }
</style></svg>