<?xml version="1.0" encoding="UTF-8" standalone="no"?>
<!DOCTYPE svg PUBLIC "-//W3C//DTD SVG 1.1//EN" "http://www.w3.org/Graphics/SVG/1.1/DTD/svg11.dtd">
<svg width="100%" height="100%" viewBox="0 0 500 200" version="1.1" xmlns="http://www.w3.org/2000/svg" xmlns:xlink="http://www.w3.org/1999/xlink" xml:space="preserve" xmlns:serif="http://www.serif.com/" style="fill-rule:evenodd;clip-rule:evenodd;stroke-linejoin:round;stroke-miterlimit:2;">
    <g transform="matrix(1.487402,0,0,1.487402,-786.92761,-508.701373)">
        <g transform="matrix(1,0,0,1,733.1774,357.1402)">
            <path d="M0,15.324C-0.091,15.324 -0.182,15.29 -0.253,15.221C-9.894,5.861 -22.606,0.706 -36.047,0.706C-49.478,0.706 -62.184,5.855 -71.823,15.203C-71.967,15.343 -72.196,15.339 -72.336,15.195C-72.475,15.052 -72.471,14.822 -72.328,14.683C-62.553,5.202 -49.668,-0.019 -36.047,-0.019C-22.416,-0.019 -9.525,5.209 0.253,14.701C0.396,14.841 0.4,15.07 0.26,15.214C0.189,15.287 0.095,15.324 0,15.324" style="fill:rgb(56,56,56);fill-rule:nonzero;"/>
        </g>
        <g transform="matrix(1,0,0,1,697.1304,371.8903)">
            <path d="M0,-14.165C13.473,-14.165 26.215,-8.998 35.879,0.385C35.971,0.475 36.13,0.472 36.221,0.38C36.266,0.333 36.29,0.272 36.289,0.208C36.288,0.143 36.262,0.083 36.215,0.038C26.461,-9.433 13.599,-14.649 0,-14.649C-13.59,-14.649 -26.444,-9.439 -36.197,0.019C-36.292,0.112 -36.294,0.265 -36.202,0.361C-36.109,0.457 -35.956,0.459 -35.86,0.366C-26.198,-9.004 -13.463,-14.165 0,-14.165M36.047,0.695C35.921,0.695 35.801,0.646 35.71,0.558C26.092,-8.78 13.409,-13.923 0,-13.923C-13.4,-13.923 -26.075,-8.787 -35.692,0.54C-35.883,0.725 -36.19,0.721 -36.375,0.529C-36.561,0.338 -36.556,0.031 -36.365,-0.154C-26.567,-9.657 -13.653,-14.89 0,-14.89C13.663,-14.89 26.584,-9.65 36.384,-0.136C36.477,-0.046 36.529,0.075 36.531,0.204C36.532,0.333 36.484,0.455 36.394,0.548C36.302,0.643 36.179,0.695 36.047,0.695" style="fill:rgb(56,56,56);fill-rule:nonzero;"/>
        </g>
        <g transform="matrix(1,0,0,1,697.1674,443.1665)">
            <path d="M0,18.188C-14.893,18.188 -29.107,11.794 -38.998,0.645C-39.131,0.495 -39.117,0.266 -38.967,0.133C-38.818,0 -38.589,0.014 -38.455,0.164C-28.702,11.158 -14.685,17.463 0,17.463C14.654,17.463 28.651,11.18 38.401,0.225C38.534,0.076 38.763,0.062 38.913,0.196C39.063,0.329 39.076,0.558 38.943,0.707C29.056,11.817 14.861,18.188 0,18.188" style="fill:rgb(56,56,56);fill-rule:nonzero;"/>
        </g>
        <g transform="matrix(1,0,0,1,658.4404,461.1787)">
            <path d="M0,-17.849C-0.057,-17.849 -0.114,-17.829 -0.16,-17.788C-0.208,-17.745 -0.237,-17.686 -0.241,-17.622C-0.245,-17.557 -0.224,-17.495 -0.181,-17.447C9.687,-6.324 23.869,0.055 38.727,0.055C53.554,0.055 67.715,-6.302 77.58,-17.385C77.622,-17.433 77.644,-17.495 77.64,-17.56C77.637,-17.624 77.608,-17.683 77.56,-17.726C77.46,-17.815 77.307,-17.805 77.218,-17.706C67.446,-6.726 53.416,-0.428 38.727,-0.428C24.007,-0.428 9.958,-6.748 0.181,-17.768C0.133,-17.822 0.067,-17.849 0,-17.849M38.727,0.297C23.799,0.297 9.553,-6.112 -0.361,-17.287C-0.447,-17.383 -0.49,-17.507 -0.482,-17.636C-0.475,-17.765 -0.417,-17.884 -0.321,-17.969C-0.121,-18.146 0.185,-18.128 0.362,-17.928C10.093,-6.961 24.076,-0.67 38.727,-0.67C53.347,-0.67 67.311,-6.938 77.038,-17.867C77.215,-18.067 77.521,-18.084 77.72,-17.907C77.817,-17.821 77.874,-17.703 77.882,-17.574C77.889,-17.445 77.846,-17.321 77.76,-17.224C67.85,-6.089 53.623,0.297 38.727,0.297" style="fill:rgb(56,56,56);fill-rule:nonzero;"/>
        </g>
        <g transform="matrix(1,0,0,1,687.2353,449.6324)">
            <path d="M0,-11.062L0,0L-1.616,0L-1.616,-7.704L-2.551,-7.704L0,-11.062Z" style="fill:rgb(56,56,56);"/>
        </g>
        <g transform="matrix(1,0,0,1,706.6892,442.541)">
            <path d="M0,3.504L-2.176,3.504L0,-0.107L0,3.504ZM1.728,3.504L1.73,-3.707L0.771,-3.707L-3.549,4.413L-0.002,4.407L0.004,7.211L1.73,7.211L1.739,4.423L2.906,4.423L2.906,3.504L1.728,3.504Z" style="fill:rgb(56,56,56);"/>
        </g>
        <g transform="matrix(1,0,0,1,692.9094,440.8772)">
            <path d="M0,5.895C-0.234,5.539 -0.507,5.016 -0.747,4.684C-0.948,4.404 -1.294,3.768 -1.643,3.778C-2.049,3.789 -2.45,4.672 -2.583,4.93C-2.846,5.442 -2.992,5.971 -2.898,6.533C-2.754,7.394 -1.957,8.015 -1.093,7.963C0.032,7.895 0.49,6.825 0,5.895C-0.043,5.854 0.052,5.975 0,5.895M0.945,-0.562C0.657,-1.489 -0.288,-1.99 -1.234,-1.7C-2.329,-1.363 -2.098,0.125 -1.629,0.873C-1.292,1.41 -0.507,2.291 0.223,2.054C0.62,1.925 0.972,1.402 1.077,1.065C1.287,0.385 0.993,-0.408 0.945,-0.562M-2.964,-1.827C-1.403,-3.279 1.459,-2.328 1.687,-0.24C1.745,0.283 1.717,0.752 1.554,1.249C1.514,1.37 1.324,1.72 1.263,1.839C1.117,2.124 0.64,2.776 0.64,2.776C0.64,2.776 1.515,3.849 1.797,4.184C2.094,4.536 2.313,4.958 2.402,5.394C2.811,7.409 0.621,9.174 -1.286,8.886C-2.367,8.723 -3.489,7.918 -3.754,6.887C-4.015,5.872 -3.633,4.796 -2.816,3.725C-2.682,3.55 -2.285,3.065 -2.285,3.065C-2.285,3.065 -2.493,2.786 -2.653,2.612C-2.993,2.241 -3.282,1.837 -3.544,1.411C-3.849,0.916 -3.92,0.095 -3.747,-0.457C-3.629,-0.831 -3.336,-1.592 -2.964,-1.827C-2.902,-1.885 -3.049,-1.774 -2.964,-1.827" style="fill:rgb(56,56,56);"/>
        </g>
        <g transform="matrix(1,0,0,1,698.266,448.4843)">
            <path d="M0,-9.493C-1.144,-9.072 -0.977,-6.938 -0.541,-6.027C-0.068,-5.039 0.965,-4.572 1.879,-5.35C2.285,-5.696 2.359,-6.226 2.389,-6.724C2.525,-8.967 1.308,-9.975 0,-9.493M-2.031,-8.383C-1.157,-10.707 3.11,-10.687 3.847,-8.25C4.017,-7.686 4.207,-7.103 4.208,-6.506C4.209,-5.875 4.162,-5.185 3.981,-4.574C3.655,-3.471 3.17,-2.31 2.469,-1.394C1.983,-0.76 1.844,-0.649 1.424,-0.197C1.004,0.254 -0.052,1.214 -0.735,1.094C0.118,0.445 0.932,-0.337 1.404,-1.308C1.649,-1.812 1.838,-2.266 1.986,-2.8C2.212,-3.617 2.258,-4.498 2.258,-4.498C2.258,-4.498 1.601,-4.377 1.487,-4.363C1.127,-4.321 0.668,-4.32 0.305,-4.387C-0.195,-4.48 -0.916,-4.782 -1.287,-5.103C-2.23,-5.919 -2.347,-7.285 -2.031,-8.383C-1.999,-8.467 -2.046,-8.332 -2.031,-8.383" style="fill:rgb(56,56,56);"/>
        </g>
        <g transform="matrix(1,0,0,1,671.8163,426.7167)">
            <path d="M0,-24.852C-3.202,-24.825 -4.804,-24.81 -8.019,-24.766C-7.9,-16.56 -7.845,-12.455 -7.727,-4.253C-8.085,-2.566 -9.099,-1.857 -10.145,-1.847C-10.328,-1.843 -10.514,-1.857 -10.687,-1.897C-11.187,-1.995 -11.671,-2.246 -12.065,-2.606C-12.633,-3.124 -13.026,-3.891 -13.015,-4.786C-13.147,-12.75 -13.219,-16.732 -13.346,-24.698C-16.307,-24.658 -17.794,-24.639 -20.758,-24.589C-21.069,-22.097 -21.23,-20.857 -21.541,-18.362C-20.768,-18.377 -20.298,-18.279 -20.085,-17.994C-19.979,-17.851 -19.908,-17.652 -19.863,-17.426C-19.742,-11.174 -19.676,-8.048 -19.55,-1.796C-19.471,0.214 -18.641,1.778 -17.388,2.913C-15.736,4.423 -13.325,5.172 -10.886,5.126C-10.733,5.122 -10.577,5.112 -10.422,5.112C-7.403,5.06 -5.425,4.07 -4.126,2.802C-3.804,3.461 -3.454,4.149 -3.085,4.877C-0.758,4.85 0.411,4.831 2.739,4.812C2.739,4.812 -0.74,0.472 -1.102,-9.552C-1.388,-17.69 0,-24.852 0,-24.852M58.207,-25.279C58.207,-25.279 61.587,-17.279 60.164,-15.856C57.051,-19.631 55.495,-21.523 52.358,-25.285C50.672,-25.307 49.826,-25.31 48.153,-25.329C48.14,-25.31 48.13,-25.285 48.123,-25.266C47.068,-25.275 46.538,-25.285 45.472,-25.29C45.062,-22.807 44.855,-21.568 44.442,-19.085C44.593,-19.102 44.732,-19.102 44.866,-19.102C45.368,-19.102 45.721,-18.978 45.961,-18.72C45.191,-15.757 44.635,-12.497 44.688,-9.625C44.788,-4.237 46.277,1.161 47.848,4.631C50.36,4.653 51.617,4.669 54.129,4.703C54.129,4.703 51.853,-0.99 51.529,-4.717C51.207,-8.452 51.607,-11.212 52.884,-13.473C55.725,-9.987 57.143,-8.242 59.961,-4.747C59.27,2.078 58.185,6.414 56.031,9.486C57.84,9.538 58.741,9.566 60.542,9.62C60.542,9.62 62.324,6.96 63.467,4.356C64.609,1.754 66.414,-4.911 66.485,-8.709C66.491,-9.306 66.518,-9.931 66.535,-10.595C66.668,-14.161 66.839,-18.792 65.451,-25.162C62.552,-25.215 61.109,-25.236 58.207,-25.279M34.117,-10.239C32.885,-10.24 32.27,-10.245 31.037,-10.25C31.179,-13.561 31.25,-15.221 31.406,-18.532C32.505,-18.532 33.049,-18.532 34.15,-18.526C34.137,-15.209 34.13,-13.555 34.117,-10.239M41.418,-25.318C34.56,-25.37 31.132,-25.376 24.267,-25.376C23.956,-22.896 23.794,-21.654 23.485,-19.171C23.663,-19.181 23.908,-19.187 23.938,-19.187C24.556,-19.187 25.012,-19.06 25.331,-18.759C25.681,-18.435 25.902,-17.854 25.898,-17.096C25.786,-9.989 24.798,-2.803 23.984,4.311C26.237,4.311 27.355,4.311 29.607,4.315C30.041,1.028 30.265,-0.616 30.701,-3.9C32.178,-3.891 32.911,-3.891 34.383,-3.884C34.731,-0.021 36.04,3.571 38.845,9.324C40.911,9.332 41.946,9.337 44.016,9.359C44.016,9.359 41.004,3.962 40.528,-3.092C40.034,-10.486 40.43,-17.963 41.418,-25.318M10.64,-25.435C9.933,-25.432 7.289,-25.215 5.225,-22.354C2.819,-19.011 2.504,-13.476 2.744,-11.269C2.986,-9.066 3.866,-4.821 5.772,-2.039C6.317,-1.241 6.935,-0.538 7.589,0.071C12.214,4.382 19.045,4.382 19.196,4.382C19.191,1.976 19.187,0.771 19.179,-1.637C18.79,-1.58 18.392,-1.551 17.994,-1.55C16.12,-1.547 14.199,-2.066 13.018,-3.124C13.001,-3.142 12.986,-3.151 12.969,-3.176C11.073,-4.933 9.532,-9.965 9.942,-14.237C10.243,-17.445 12.56,-18.139 13.525,-18.193C16.128,-18.333 19.83,-18.291 19.83,-18.291C20.177,-21.165 20.351,-22.603 20.701,-25.475C16.751,-25.464 14.773,-25.464 10.828,-25.432C10.828,-25.432 10.755,-25.435 10.64,-25.435M-29.193,3.485C-29.857,3.508 -30.505,3.285 -31.017,2.929C-32.512,1.883 -33.135,-3.938 -32.958,-8.996C-32.708,-16.478 -31.932,-24.024 -30.208,-31.311C-29.465,-34.438 -28.712,-36.131 -28.712,-36.131C-29.022,-36.127 -29.17,-36.127 -29.478,-36.118C-29.498,-36.118 -29.517,-36.127 -29.539,-36.127C-29.606,-36.127 -35.338,-36.003 -38.893,-35.917C-39.773,-35.897 -40.214,-35.885 -41.095,-35.863L-41.095,-35.862C-41.449,-35.853 -41.648,-35.846 -41.648,-35.846C-41.54,-33.127 -41.484,-31.768 -41.375,-29.046C-39.888,-29.032 -39.807,-28.771 -39.349,-28.373C-38.911,-27.984 -38.815,-27.458 -38.779,-26.831C-38.798,-26.057 -38.806,-25.663 -38.82,-24.892C-39.106,-17.871 -39.286,-10.853 -39.195,-3.832C-39.195,-3.832 -39.2,-3.821 -39.195,-3.817C-39.241,-1.543 -39.258,-0.4 -39.308,1.881C-39.295,2.259 -39.437,3.708 -41.501,3.211C-41.988,5.389 -42.224,6.475 -42.703,8.661C-35.256,10.217 -27.629,11.279 -20.006,10.551C-20.845,6.559 -21.267,4.556 -22.112,0.568C-25.557,3.743 -29.096,3.485 -29.193,3.485M81.361,-0.705C77.394,-0.801 75.939,-7.329 76.056,-12.585C76.147,-16.48 77.988,-18.146 81.683,-18.055C85.363,-17.967 87.184,-16.287 87.202,-12.866C87.245,-7.065 85.092,-0.605 81.361,-0.705M93.333,-13.716C93.181,-17.309 91.997,-20.46 90.096,-22.369C88.328,-24.148 86.145,-24.857 82.008,-24.965C77.83,-25.068 75.582,-24.506 73.866,-22.991C71.845,-21.219 70.435,-17.871 70.069,-13.948C69.661,-9.466 70.258,-3.72 72.232,-0.339C74.421,3.415 76.623,5.493 80.956,5.596C84.671,5.689 87.128,4.282 89.408,1.248C92.047,-2.26 93.532,-8.957 93.333,-13.716" style="fill:rgb(56,56,56);"/>
        </g>
        <g transform="matrix(1,0,0,1,672.1293,385.3491)">
            <path d="M0,0.312L-2.45,0.288L-1.89,-5.682L-0.414,-5.682L0,0.312ZM3.971,8.734C3.302,6.186 3.054,-4.953 3.09,-5.669C3.128,-6.383 3.32,-6.555 4.068,-6.929L4.084,-6.935L4.084,-10.222L-6.391,-10.222L-6.351,-6.916L-6.351,-6.886L-6.322,-6.889L-6.312,-6.889C-6.195,-6.889 -5.927,-6.746 -5.711,-6.532C-5.51,-6.333 -5.38,-6.056 -5.321,-5.704C-5.215,-5.077 -5.276,-2.222 -5.468,1.239C-5.65,4.525 -6.452,10.432 -6.461,10.491L-6.463,10.521L-3.544,10.521L-2.7,4.267L0.359,4.267C0.519,6.592 0.878,8.693 1.43,10.514L1.436,10.534L4.456,10.534L4.446,10.501C4.322,10.048 4.154,9.426 3.971,8.734" style="fill:rgb(56,56,56);fill-rule:nonzero;"/>
        </g>
        <g transform="matrix(1,0,0,1,688.684,395.8703)">
            <path d="M0,-15.854L-3.088,-15.854L-4.573,-11.431L-6.237,-15.838L-6.245,-15.854L-9.188,-15.854L-9.194,-15.835C-11.101,-9.996 -10.979,-4.822 -8.822,-0.014L-8.816,0L-5.957,0L-5.97,-0.035C-5.988,-0.083 -7.692,-4.943 -7.131,-9.687L-4.498,-4.13L-2.012,-9.804C-1.18,-5.098 -2.471,-1.704 -3.319,-0.093L-3.325,-0.079L-3.319,-0.068C-3.309,-0.047 -3.286,-0.042 -3.189,-0.027C-3.167,-0.023 -3.139,-0.018 -3.118,-0.014L-3.128,0L-0.59,0L-0.584,-0.013C-0.572,-0.031 0.453,-1.851 0.888,-4.024C1.789,-8.511 1.493,-12.487 0.008,-15.839L0,-15.854Z" style="fill:rgb(56,56,56);fill-rule:nonzero;"/>
        </g>
        <g transform="matrix(1,0,0,1,710.6873,393.2716)">
            <path d="M0,-8.026C-0.163,-6.615 -0.818,-6.24 -1.178,-6.24L-2.391,-6.24L-2.427,-9.787L-0.688,-9.787C-0.627,-9.787 -0.474,-9.726 -0.326,-9.562C-0.12,-9.332 0.099,-8.88 0,-8.026M1.101,-4.023C2.914,-5.028 3.722,-7.283 3.722,-9.076C3.722,-12.48 0.775,-13.26 0.326,-13.26L-6.791,-13.255L-6.816,-13.255L-6.816,-10.293L-6.796,-10.288C-6.077,-10.089 -5.776,-9.828 -5.784,-8.722L-5.784,2.599L-2.312,2.599L-2.312,-3.145L-1.886,-3.145C-0.938,0.935 0.099,3.593 1.382,5.224L1.392,5.234L4.091,5.234L4.076,5.193C2.35,1.76 1.68,-0.788 1.101,-4.023" style="fill:rgb(56,56,56);fill-rule:nonzero;"/>
        </g>
        <g transform="matrix(1,0,0,1,722.3644,392.3723)">
            <path d="M0,-8.874C1.787,-8.874 2.679,-8.003 2.738,-6.213C2.819,-3.689 2.19,-1.224 1.206,-0.217C0.862,0.141 0.472,0.322 0.056,0.322C-1.807,0.322 -2.656,-2.912 -2.656,-5.916C-2.656,-7.935 -1.812,-8.874 0,-8.874M6.22,-7.142C6.095,-8.909 5.511,-10.242 4.382,-11.338C3.416,-12.265 2.248,-12.611 0.082,-12.611C-2.1,-12.611 -3.298,-12.286 -4.19,-11.454C-5.333,-10.394 -5.952,-8.924 -6.095,-6.957C-6.271,-4.525 -5.88,-1.125 -4.805,0.668C-3.602,2.612 -2.445,3.737 -0.074,3.737C1.823,3.737 3.115,3.027 4.377,1.289C5.746,-0.713 6.401,-4.647 6.22,-7.142" style="fill:rgb(56,56,56);fill-rule:nonzero;"/>
        </g>
        <g transform="matrix(1,0,0,1,719.7739,389.4145)">
            <path d="M0,-2.958C0,0.015 0.828,3.214 2.646,3.214C3.047,3.214 3.418,3.039 3.749,2.695C4.721,1.7 5.347,-0.745 5.263,-3.253C5.234,-4.139 5.005,-4.78 4.562,-5.21C4.119,-5.641 3.474,-5.851 2.591,-5.851C0.823,-5.851 0,-4.932 0,-2.958M5.401,-2.818C5.401,-0.435 4.781,1.827 3.843,2.786C3.487,3.157 3.084,3.345 2.646,3.345C0.738,3.345 -0.131,0.078 -0.131,-2.958C-0.131,-5.021 0.734,-5.982 2.591,-5.982C4.417,-5.982 5.334,-5.091 5.394,-3.257C5.399,-3.111 5.401,-2.964 5.401,-2.818M-3.479,-2.82C-3.479,-0.574 -3.065,2.08 -2.158,3.592C-0.967,5.516 0.179,6.63 2.517,6.63C4.392,6.63 5.666,5.928 6.914,4.208C8.276,2.217 8.924,-1.695 8.745,-4.179C8.621,-5.93 8.043,-7.249 6.927,-8.333C5.974,-9.248 4.821,-9.588 2.672,-9.588C0.509,-9.588 -0.676,-9.268 -1.555,-8.448C-2.681,-7.404 -3.297,-5.947 -3.439,-3.995C-3.466,-3.623 -3.479,-3.228 -3.479,-2.82M8.905,-3.322C8.905,-0.845 8.25,2.487 7.021,4.284C5.744,6.043 4.44,6.761 2.517,6.761C0.118,6.761 -1.055,5.624 -2.27,3.661C-3.356,1.849 -3.746,-1.567 -3.569,-4.004C-3.425,-5.991 -2.796,-7.476 -1.645,-8.544C-0.738,-9.389 0.472,-9.719 2.672,-9.719C4.86,-9.719 6.038,-9.369 7.018,-8.427C8.159,-7.32 8.749,-5.973 8.876,-4.189C8.896,-3.916 8.905,-3.625 8.905,-3.322" style="fill:rgb(56,56,56);fill-rule:nonzero;"/>
        </g>
        <g transform="matrix(1,0,0,1,697.7039,390.4175)">
            <path d="M0,-2.354L-1.674,-2.354L-1.42,-6.899L-0.013,-6.899L0,-2.354ZM2.981,-5.659C3.012,-6.998 3.42,-7.239 3.985,-7.434L4.006,-7.441L4.006,-10.401L-5.52,-10.401L-5.511,-10.368C-4.595,-7.068 -4.503,-2.943 -4.665,-0.974C-4.814,0.803 -5.038,2.563 -5.658,5.385L-5.664,5.417L-2.855,5.453L-2.851,5.432C-2.761,4.986 -1.995,1.205 -1.933,0.845L0.609,0.845C1.051,3.655 1.709,6.273 2.41,8.032L2.42,8.047L4.837,8.047L4.827,8.017C3.94,3.759 2.894,-2.07 2.981,-5.659" style="fill:rgb(56,56,56);fill-rule:nonzero;"/>
        </g>
    </g>
</svg>
