<?xml version="1.0" encoding="UTF-8" standalone="no"?>
<!DOCTYPE svg PUBLIC "-//W3C//DTD SVG 1.1//EN" "http://www.w3.org/Graphics/SVG/1.1/DTD/svg11.dtd">
<svg width="100%" height="100%" viewBox="0 0 500 200" version="1.1" xmlns="http://www.w3.org/2000/svg" xmlns:xlink="http://www.w3.org/1999/xlink" xml:space="preserve" xmlns:serif="http://www.serif.com/" style="fill-rule:evenodd;clip-rule:evenodd;stroke-linejoin:round;stroke-miterlimit:2;">
    <g transform="matrix(1.487402,0,0,1.487402,-342.5886,-710.637585)">
        <g transform="matrix(1,0,0,1,356.9076,545.1704)">
            <path d="M0,16.833C-1.269,16.833 -2.298,15.853 -2.421,13.088C-2.706,6.994 -0.529,0.986 2.357,0.986C3.71,0.986 4.609,1.999 4.814,4.741C5.236,10.441 2.899,16.833 0,16.833M11.635,5.523C11.269,1.493 8.449,-1.56 4.253,-1.932C-9.006,-3.578 -15.293,17.828 -1.863,19.667C7.158,20.411 12.256,12.369 11.635,5.523" style="fill:rgb(56,56,56);fill-rule:nonzero;"/>
        </g>
        <g transform="matrix(1,0,0,1,337.4752,540.7456)">
            <path d="M0,4.533C1.275,10.618 -3.173,23.341 -14.68,23.19C-13.907,20.602 -9.784,12.82 -6.937,9.852C-11.51,12.007 -14.552,16.843 -16.46,21.679C-19.391,13.972 -11.038,2.683 0,4.533M-26.074,25.526C-18.716,29.163 -3.23,28.316 2.719,22.13C12.859,13.116 9.661,-1.666 -4.055,-0.223C4.962,-4.05 10.307,-10.903 9.412,-15.568C8.606,-22.798 0.332,-24.63 -6.883,-24.493C-14.99,-24.339 -21.992,-21.156 -27.989,-15.303C-29.042,-14.275 -30.976,-12.02 -31.243,-10.729C-31.346,-10.309 -30.799,-9.975 -30.523,-10.198C-26.892,-13.671 -19.252,-17.878 -10.37,-18.74C4.089,-20.05 2.195,-9.224 -8.627,-2.971C-12.193,-0.742 -13.303,0.424 -14.489,1.803L-12.465,-13.846C-18.679,-13.109 -21.325,-11.687 -22.17,-5.101C-23.153,2.552 -25.497,21.267 -26.074,25.526" style="fill:rgb(56,56,56);fill-rule:nonzero;"/>
        </g>
        <g transform="matrix(1,0,0,1,403.1207,538.4365)">
            <path d="M0,19.121C-1.029,20.355 -2.566,21.781 -3.951,21.781C-4.784,21.781 -5.863,21.365 -6.041,19.4C-6.634,12.856 -2.862,7.897 1.483,7.592C0.96,11.738 0.373,16.308 0,19.121M6.51,-8.775C5.408,-8.775 3.526,-8.183 1.971,-7.733C1.808,-7.685 1.843,-7.495 1.973,-7.407C2.43,-7.092 2.813,-6.316 2.88,-5.577C2.943,-4.887 2.484,-0.589 1.836,4.711C-14.874,3.945 -16.764,25.914 -7.264,26.457C-4.39,26.457 -1.655,24.087 -0.432,22.37C-1.018,27.896 5.119,26.882 7.999,24.976C8.091,24.915 8.064,24.704 7.963,24.654C6.564,23.982 5.867,22.74 5.996,20.936C6.158,18.688 8.744,0.168 9.4,-5.541C9.578,-7.113 8.885,-8.775 6.51,-8.775" style="fill:rgb(56,56,56);fill-rule:nonzero;"/>
        </g>
        <g transform="matrix(1,0,0,1,432.0908,546.1477)">
            <path d="M0,16.951C-1.412,16.28 -2.11,15.036 -1.978,13.225C-1.883,11.839 -0.867,4.266 0.051,-2.677C-5.391,-3.289 -6.433,-0.779 -6.689,1.38C-7.144,5.236 -7.648,8.985 -7.992,11.556C-8.835,12.612 -12.407,15.584 -12.791,13.111C-12.922,11.669 -10.898,0.187 -11.044,-1.416C-11.142,-2.501 -11.902,-3.002 -13.237,-3.002C-14.346,-3.002 -16.791,-2.404 -18.316,-1.953C-18.452,-1.91 -18.435,-1.724 -18.325,-1.628C-17.962,-1.31 -17.787,-0.72 -17.74,-0.202C-17.368,3.889 -19.528,12.935 -19.322,15.207C-19.109,17.547 -17.709,18.746 -15.94,18.746C-13.26,18.746 -10.103,16.69 -8.451,15.17C-8.572,20.24 -2.704,19.083 -0.013,17.288C0.093,17.218 0.094,16.998 0,16.951" style="fill:rgb(56,56,56);fill-rule:nonzero;"/>
        </g>
        <g transform="matrix(1,0,0,1,411.788,553.3553)">
            <path d="M0,14.048C-9.513,19.246 -24.835,18.163 -24.375,6.223C-24.243,0.887 -22.55,-3.962 -22.777,-6.675C-22.974,-9.014 -24.379,-10.202 -26.144,-10.202C-28.831,-10.202 -32.264,-8.159 -33.959,-6.638C-33.99,-6.61 -34.037,-6.637 -34.032,-6.678C-33.925,-7.706 -33.86,-8.416 -33.877,-8.619C-33.968,-9.703 -34.724,-10.204 -36.061,-10.204C-37.173,-10.204 -39.43,-9.612 -40.936,-9.16C-41.088,-9.114 -41.143,-8.932 -41.044,-8.809C-40.787,-8.487 -40.621,-7.9 -40.579,-7.405C-40.297,-4.759 -41.85,6.335 -43.365,11.096C-37.437,11.587 -36.716,10.563 -36.202,8.162C-35.74,5.995 -35.003,1.018 -34.48,-2.96C-33.661,-3.969 -31.575,-5.523 -30.423,-5.529C-29.791,-5.529 -29.496,-5.141 -29.448,-4.569C-29.28,-2.567 -30.749,2.744 -30.735,6.466C-30.603,22.02 -9.169,24.252 0.441,14.679C0.772,14.379 0.425,13.832 0,14.048" style="fill:rgb(56,56,56);fill-rule:nonzero;"/>
        </g>
        <g transform="matrix(1,0,0,1,444.8246,561.7208)">
            <path d="M0,-15.502C2.749,-15.4 1.073,-7.793 -4.771,-8.344C-4.179,-12.325 -1.998,-15.502 0,-15.502M5.335,-2.843C5.262,-2.843 5.116,-2.768 4.971,-2.658C3.004,-1.334 1.204,-0.482 -1.045,-0.671C-2.953,-0.832 -4.748,-2.555 -4.911,-5.851C7.689,-4.558 11.328,-18.117 0.587,-18.52C-12.698,-18.769 -16.481,3.062 -3.624,3.267C1.051,3.253 4.345,0.866 5.548,-2.504C5.615,-2.692 5.482,-2.843 5.335,-2.843" style="fill:rgb(56,56,56);fill-rule:nonzero;"/>
        </g>
        <g transform="matrix(1,0,0,1,483.6696,561.7208)">
            <path d="M0,-15.502C2.749,-15.4 1.073,-7.793 -4.771,-8.344C-4.179,-12.325 -1.997,-15.502 0,-15.502M5.335,-2.843C5.263,-2.843 5.116,-2.768 4.971,-2.658C3.004,-1.334 1.204,-0.482 -1.045,-0.671C-2.953,-0.832 -4.748,-2.555 -4.911,-5.851C7.689,-4.558 11.328,-18.117 0.587,-18.52C-12.698,-18.769 -16.481,3.062 -3.624,3.267C1.051,3.253 4.345,0.866 5.548,-2.504C5.615,-2.692 5.482,-2.843 5.335,-2.843" style="fill:rgb(56,56,56);fill-rule:nonzero;"/>
        </g>
        <g transform="matrix(1,0,0,1,459.4517,566.4725)">
            <path d="M0,-36.811C-1.078,-36.811 -2.885,-36.252 -4.448,-35.804C-4.654,-35.744 -4.607,-35.492 -4.459,-35.38C-4.021,-35.047 -3.744,-34.469 -3.676,-33.729C-3.437,-31.087 -6.717,-10.582 -6.969,-5.55C-7.286,0 -1.005,-1.287 1.745,-2.994C1.868,-3.07 1.849,-3.36 1.725,-3.423C0.38,-4.103 -0.671,-5.332 -0.538,-7.1C-0.235,-11.029 2.133,-27.575 2.819,-33.298C3.074,-35.355 2.197,-36.811 0,-36.811" style="fill:rgb(56,56,56);fill-rule:nonzero;"/>
        </g>
        <g transform="matrix(1,0,0,1,469.6723,566.4725)">
            <path d="M0,-36.811C-1.078,-36.811 -2.885,-36.252 -4.448,-35.804C-4.654,-35.744 -4.607,-35.492 -4.459,-35.38C-4.021,-35.047 -3.744,-34.469 -3.677,-33.729C-3.437,-31.087 -6.717,-10.582 -6.969,-5.55C-7.286,0 -1.005,-1.287 1.745,-2.994C1.868,-3.07 1.849,-3.36 1.725,-3.423C0.38,-4.103 -0.671,-5.332 -0.538,-7.1C-0.235,-11.029 2.133,-27.575 2.819,-33.298C3.074,-35.355 2.197,-36.811 0,-36.811" style="fill:rgb(56,56,56);fill-rule:nonzero;"/>
        </g>
    </g>
</svg>
