<?xml version="1.0" encoding="UTF-8" standalone="no"?>
<!DOCTYPE svg PUBLIC "-//W3C//DTD SVG 1.1//EN" "http://www.w3.org/Graphics/SVG/1.1/DTD/svg11.dtd">
<svg width="100%" height="100%" viewBox="0 0 500 200" version="1.1" xmlns="http://www.w3.org/2000/svg" xmlns:xlink="http://www.w3.org/1999/xlink" xml:space="preserve" xmlns:serif="http://www.serif.com/" style="fill-rule:evenodd;clip-rule:evenodd;stroke-linejoin:round;stroke-miterlimit:2;">
    <g transform="matrix(1.487402,0,0,1.487402,-1999.857332,-906.587774)">
        <g transform="matrix(1,0,0,1,1513.2167,712.4058)">
            <path d="M0,-71.327C-11.242,-71.327 -15.636,-55.005 -15.636,-35.554C-15.636,-16.099 -11.242,0 0,0C6.75,0 12.508,-4.046 12.525,-7.376C12.525,-8.097 12.25,-8.796 11.663,-9.405C8.457,-12.563 7.209,-15.73 7.196,-18.524C7.174,-23.848 11.697,-27.817 15.85,-27.817C21.574,-27.817 24.947,-23.213 24.947,-17.249C24.947,-11.602 22.596,-6.891 20.038,-3.124C19.94,-2.973 19.897,-2.806 19.897,-2.652C19.897,-2.36 20.064,-2.111 20.317,-2.111C20.48,-2.111 20.661,-2.201 20.854,-2.403L49.585,-30.847C51.023,-32.1 51.937,-33.567 51.937,-35.653C51.937,-37.755 51.023,-39.214 49.585,-40.467L20.854,-68.92C20.661,-69.113 20.48,-69.203 20.317,-69.203C20.064,-69.203 19.897,-68.954 19.897,-68.662C19.897,-68.504 19.94,-68.34 20.038,-68.182C22.596,-64.419 24.947,-59.712 24.947,-54.065C24.947,-48.109 21.574,-43.501 15.85,-43.501C11.697,-43.501 7.174,-47.47 7.196,-52.799C7.209,-55.579 8.457,-58.755 11.663,-61.904C12.25,-62.522 12.525,-63.213 12.525,-63.942C12.508,-67.276 6.75,-71.327 0,-71.327" style="fill:rgb(56,56,56);fill-rule:nonzero;"/>
        </g>
        <g transform="matrix(1,0,0,1,1491.1431,710.0068)">
            <path d="M0,-66.526C0.18,-66.71 0.356,-66.783 0.506,-66.783C0.777,-66.783 0.965,-66.535 0.965,-66.234C0.953,-66.054 0.88,-65.861 0.708,-65.689C-6.029,-57.112 -10.933,-47.071 -10.933,-33.16C-10.933,-19.253 -6.029,-9.419 0.708,-0.837C0.88,-0.67 0.953,-0.464 0.965,-0.292C0.965,0.013 0.777,0.257 0.506,0.257C0.356,0.257 0.18,0.184 0,-0.005L-28.727,-28.449C-30.161,-29.706 -31.079,-31.173 -31.079,-33.259C-31.079,-35.361 -30.161,-36.82 -28.727,-38.073L0,-66.526Z" style="fill:rgb(56,56,56);fill-rule:nonzero;"/>
        </g>
    </g>
</svg>
