<?xml version="1.0" encoding="UTF-8" standalone="no"?>
<!DOCTYPE svg PUBLIC "-//W3C//DTD SVG 1.1//EN" "http://www.w3.org/Graphics/SVG/1.1/DTD/svg11.dtd">
<svg width="100%" height="100%" viewBox="0 0 500 200" version="1.1" xmlns="http://www.w3.org/2000/svg" xmlns:xlink="http://www.w3.org/1999/xlink" xml:space="preserve" xmlns:serif="http://www.serif.com/" style="fill-rule:evenodd;clip-rule:evenodd;stroke-linejoin:round;stroke-miterlimit:2;">
    <g transform="matrix(1.487402,0,0,1.487402,-67.855204,-505.921368)">
        <g transform="matrix(1,0,0,1,249.6481,429.2282)">
            <path d="M0,-45.695C0,-45.695 -3.363,-44.343 -7.271,-40.045C-11.191,-35.717 -13.452,-30.891 -11.766,-29.604C-11.121,-29.115 -9.637,-29.033 -6.914,-31.469C-4.806,-33.369 -2.662,-35.852 -1.19,-39.418C0.548,-43.684 0,-45.636 0,-45.695M21.386,-37.946C17.049,-40.174 13.883,-42.892 10.573,-44.592C7.415,-46.208 5.383,-46.876 2.835,-46.536C2.416,-46.484 1.786,-46.281 1.786,-46.281C1.786,-46.281 3.102,-41.801 -2.114,-34.269C-7.406,-26.637 -12.197,-26.675 -13.563,-28.792C-14.988,-31 -13.15,-35.515 -10.066,-39.523C-6.843,-43.719 -1.182,-47.211 -1.182,-47.211C-1.182,-47.211 -2.991,-48.313 -7.433,-45.797C-11.751,-43.349 -19.207,-37.523 -26.109,-27.681C-33.008,-17.853 -34.377,-12.438 -35.374,-8.183C-36.374,-3.92 -35.459,0.636 -30.736,0.636C-26.004,0.636 -20.518,-6.568 -18.964,-9.075C-16.099,-13.745 -14.211,-20.893 -18.128,-19.905C-20.066,-19.424 -21.629,-17.278 -22.617,-15.22C-23.632,-13.106 -24.036,-11.086 -24.036,-11.086C-24.036,-11.086 -25.666,-10.5 -27.865,-8.858C-30.056,-7.219 -31.486,-5.644 -31.486,-5.644C-31.486,-5.644 -31.475,-9.042 -28.763,-14.56C-26.048,-20.07 -21.063,-22.588 -18.252,-22.823C-15.704,-23.031 -12.399,-20.873 -15.199,-12.907C-17.999,-4.935 -26.262,4.729 -34.952,4.858C-42.962,4.975 -48.219,-5.257 -37.069,-23.122C-24.743,-42.868 -10.241,-48.932 -5.533,-49.606C-0.827,-50.289 0.698,-48.213 0.698,-48.213C0.698,-48.213 4.638,-50.031 9.64,-49.697C15.387,-49.304 19.829,-45.243 25.684,-42.393C24.159,-40.907 22.705,-39.379 21.386,-37.946M47.187,-44.61C43.223,-42.048 37.702,-39.734 32.41,-40.241C31.073,-38.855 29.645,-37.254 28.2,-35.503C37.385,-33.691 45.416,-39.379 49.697,-44.226C52.365,-47.255 53.675,-49.952 53.675,-49.952C53.675,-49.952 51.128,-47.146 47.187,-44.61M34.987,-18.741C35.107,-18.938 35.154,-19.122 35.154,-19.122C35.154,-19.122 35.052,-19.897 34.316,-19.926C33.439,-19.967 32.249,-19.8 29.126,-16.34C26.012,-12.892 24.118,-9.893 22.476,-6.899C20.688,-3.624 19.973,-1.191 20.999,-0.563C21.289,-0.39 21.732,-0.37 22.083,-0.455C22.778,-0.622 23.57,-1.273 24.778,-2.663C25.338,-3.307 25.965,-4.231 26.701,-5.257C28.763,-8.078 33.955,-16.95 34.987,-18.741M2.501,-14.956C3.026,-16.323 3.685,-18.999 2.299,-20.052C0.815,-21.172 -2.961,-18.542 -2.988,-15.865C-3.008,-13.106 -0.317,-11.863 0.328,-11.696C0.698,-11.593 0.821,-11.605 1.003,-11.901C1.117,-12.097 1.976,-13.59 2.501,-14.956M-0.352,-9.948C-0.46,-9.987 -1.68,-10.549 -2.952,-11.608C-4.228,-12.669 -4.87,-13.88 -4.914,-13.974C-4.964,-14.065 -5.023,-13.997 -5.078,-13.915C-5.137,-13.842 -5.365,-13.646 -7.389,-10.673C-9.403,-7.711 -12.496,-1.589 -9.687,-0.551C-7.899,0.114 -4.899,-3.032 -3.272,-5.117C-1.759,-7.061 -0.346,-9.517 -0.264,-9.693C-0.182,-9.869 -0.258,-9.919 -0.352,-9.948M31.454,-2.894C30.686,-1.68 29.827,0.657 32.345,-0.795C35.4,-2.572 39.763,-9.186 39.763,-9.186L41.734,-9.186C41.734,-9.186 39.139,-5.073 35.749,-1.32C32.639,2.117 28.859,5.248 26.191,4.943C23.075,4.577 24.051,0.487 24.051,0.487C24.051,0.487 19.58,5.233 16.501,4.896C12.344,4.439 13.61,-0.713 13.61,-0.713C13.61,-0.713 8.901,5.081 5.697,4.896C0.668,4.606 1.923,-1.537 3.325,-5.829C4.075,-8.133 4.77,-9.942 4.77,-9.942C4.77,-9.942 4.269,-9.814 3.199,-9.658C2.639,-9.576 1.616,-9.517 1.616,-9.517C1.616,-9.517 -0.481,-5.817 -2.152,-3.598C-3.829,-1.372 -10.942,6.286 -15.141,4.758C-19.014,3.339 -17.738,-2.598 -15.481,-7.31C-12.194,-14.182 -2.935,-24.069 2.41,-22.776C7.937,-21.427 2.536,-11.326 2.536,-11.326C2.536,-11.326 2.539,-11.288 2.595,-11.268C2.709,-11.227 2.994,-11.197 3.659,-11.32C4.729,-11.526 5.688,-11.927 5.688,-11.927C5.688,-11.927 11.247,-23.582 17.395,-31.217C23.541,-38.84 35.799,-51.981 40.619,-48.806C41.798,-48.026 41.262,-45.334 39.678,-42.065C38.98,-41.851 38.25,-41.649 37.506,-41.499C38.567,-43.423 39.274,-45.041 39.476,-46.179C40.194,-50.113 31.005,-41.81 24.429,-32.871C17.864,-23.928 13.918,-15.833 13.918,-15.833C13.918,-15.833 15.249,-16.583 17.316,-18.246C19.468,-19.984 22.432,-22.708 25.658,-26.048C27.83,-28.282 30.378,-31.102 32.762,-34.248C33.471,-34.287 34.172,-34.357 34.849,-34.462C32.199,-30.877 29.39,-27.602 27.015,-25.195C24.409,-22.544 21.565,-19.691 19.093,-17.61C15.167,-14.314 12.141,-12.438 12.141,-12.438C12.141,-12.438 6.38,-0.856 9.505,-0.103C11.352,0.334 14.976,-5.257 14.976,-5.257C14.976,-5.257 19.709,-12.496 22.567,-15.745C26.464,-20.181 29.812,-22.738 33.163,-22.793C35.116,-22.826 36.265,-20.747 36.265,-20.747L37.186,-22.169L42.856,-22.169C42.856,-22.169 32.298,-4.249 31.454,-2.894M47.187,-44.61C43.223,-42.048 37.702,-39.734 32.41,-40.241C31.073,-38.855 29.645,-37.254 28.2,-35.503C37.385,-33.691 45.416,-39.379 49.697,-44.226C52.365,-47.255 53.675,-49.952 53.675,-49.952C53.675,-49.952 51.128,-47.146 47.187,-44.61M-32.214,-35.773L-37.591,-35.773L-40.622,-30.853L-35.248,-30.853L-32.214,-35.773ZM-57.666,-18.759C-55.379,-21.893 -49.072,-32.879 -49.072,-32.879C-49.072,-32.879 -49.175,-33.65 -49.911,-33.688C-50.788,-33.729 -52.23,-33.434 -55.13,-29.81C-58.032,-26.186 -60.267,-23.298 -61.906,-20.301C-63.697,-17.023 -64.486,-14.724 -63.448,-14.088C-63.166,-13.915 -62.724,-13.898 -62.369,-13.98C-61.697,-14.147 -60.824,-14.821 -59.619,-16.217C-59.053,-16.862 -58.417,-17.724 -57.666,-18.759M-86.528,-33.601C-88.018,-34.724 -91.8,-32.099 -91.814,-29.411C-91.841,-26.658 -88.402,-25.875 -87.962,-25.854C-87.962,-25.854 -87.572,-25.749 -87.417,-26.074C-87.32,-26.274 -86.857,-27.142 -86.332,-28.502C-85.813,-29.874 -85.147,-32.551 -86.528,-33.601M-88.777,-24.121C-88.871,-24.157 -90.296,-24.564 -91.688,-25.456C-93.075,-26.347 -93.72,-27.669 -93.776,-27.763C-93.826,-27.851 -93.881,-27.781 -93.94,-27.707C-93.996,-27.625 -94.292,-27.238 -96.312,-24.28C-98.335,-21.31 -101.32,-15.235 -98.517,-14.197C-96.726,-13.531 -93.706,-16.692 -92.072,-18.776C-90.56,-20.712 -88.756,-23.688 -88.677,-23.867C-88.601,-24.045 -88.677,-24.086 -88.777,-24.121M-44.827,-22.312L-42.857,-22.312C-42.857,-22.312 -52.72,-8.046 -58.308,-8.688C-61.416,-9.042 -60.489,-12.895 -60.489,-12.895C-60.489,-12.895 -64.879,-7.77 -68.881,-8.796C-72.525,-9.726 -70.177,-15.789 -70.177,-15.789C-70.59,-15.619 -78.477,-6.726 -84.015,-8.858C-89.797,-11.089 -86.807,-18.533 -85.698,-20.77C-84.769,-22.658 -83.734,-24.497 -83.734,-24.497C-83.734,-24.497 -84.628,-24.239 -85.174,-24.116C-85.731,-23.987 -86.569,-23.825 -86.569,-23.825C-86.569,-23.825 -89.308,-19.369 -90.991,-17.141C-92.659,-14.924 -99.784,-7.266 -103.976,-8.796C-108.169,-10.318 -107.14,-16.188 -104.774,-20.855C-100.953,-28.423 -91.888,-37.714 -86.426,-36.324C-80.905,-34.92 -85.47,-25.963 -85.47,-25.963C-85.47,-25.963 -84.376,-25.816 -81.746,-27.616C-77.949,-30.199 -72.956,-37.157 -67.538,-36.339C-65.005,-35.961 -62.63,-33.348 -65.867,-28.396C-66.907,-26.804 -68.643,-25.385 -69.98,-26.79C-70.81,-27.655 -70.094,-29.252 -69.215,-30.343C-67.989,-31.891 -66.295,-31.683 -66.295,-31.683C-66.295,-31.683 -65.4,-33.738 -67.67,-33.697C-69.514,-33.659 -74.17,-29.367 -76.806,-25.025C-79.219,-21.043 -82.875,-14.255 -79.198,-12.778C-75.832,-11.42 -69.432,-19.032 -66.462,-23.013C-63.498,-26.998 -56.739,-36.037 -51.078,-36.404C-49.134,-36.535 -47.964,-34.756 -47.964,-34.756L-47.307,-35.794L-41.652,-35.794C-41.652,-35.794 -52.321,-17.959 -53.154,-16.613C-53.813,-15.554 -54.678,-13.179 -52.268,-14.514C-49.846,-15.85 -44.827,-22.312 -44.827,-22.312M-47.905,6.251C-52.195,3.24 -57.417,1.908 -62.161,2.099C-66.957,2.29 -69.115,5.87 -69.115,5.87C-71.279,2.099 -75.554,-0.217 -82.165,-0.161C-92.847,-0.038 -103.44,4.896 -111.837,4.896C-119.891,4.896 -125.764,-0.161 -125.57,-9.148C-125.23,-24.901 -111.919,-39.098 -101.971,-45.493C-96.259,-49.164 -91.466,-50.257 -88.328,-49.908C-86.044,-49.65 -83.3,-47.011 -85.03,-43.124C-87.572,-37.421 -91.087,-37.902 -90.964,-40.626C-90.891,-42.393 -89.715,-43.51 -88.824,-44.118C-88.258,-44.505 -87.267,-44.616 -86.757,-44.628C-86.253,-45.053 -85.868,-48.17 -89.967,-47.14C-94.066,-46.111 -98.995,-42.089 -103.698,-36.905C-108.404,-31.712 -115.719,-21.876 -117.525,-11.558C-118.366,-6.77 -117.798,1.947 -106.466,1.841C-96.855,1.762 -82.676,-4.565 -69.649,-4.457C-64.591,-4.413 -60.193,-3.049 -56.757,-0.93C-53.382,1.155 -49.336,4.184 -47.905,6.251" style="fill:rgb(56,56,56);fill-rule:nonzero;"/>
        </g>
        <g transform="matrix(1,0,0,1,287.0834,433.2984)">
            <path d="M0,-2.496L0.862,-2.496C1.182,-2.496 1.41,-2.472 1.545,-2.414C1.809,-2.305 1.935,-2.091 1.935,-1.786C1.935,-1.563 1.856,-1.397 1.686,-1.297C1.613,-1.241 1.484,-1.188 1.331,-1.162C1.525,-1.138 1.668,-1.056 1.756,-0.927C1.838,-0.795 1.891,-0.664 1.891,-0.537L1.891,-0.356C1.891,-0.303 1.9,-0.244 1.9,-0.18C1.9,-0.106 1.9,-0.065 1.918,-0.045L1.935,-0.018L1.525,-0.018L1.525,-0.039C1.507,-0.045 1.507,-0.045 1.507,-0.065L1.504,-0.145L1.504,-0.353C1.504,-0.631 1.434,-0.822 1.267,-0.91C1.182,-0.971 1.014,-0.995 0.792,-0.995L0.437,-0.995L0.437,-0.018L0,-0.018L0,-2.496ZM1.504,-1.739C1.504,-1.924 1.448,-2.05 1.334,-2.106C1.24,-2.17 1.044,-2.206 0.809,-2.206L0.437,-2.206L0.437,-1.306L0.833,-1.306C1.023,-1.306 1.158,-1.323 1.252,-1.355C1.41,-1.432 1.504,-1.555 1.504,-1.739M3.175,-1.256C3.175,-0.622 2.961,-0.089 2.516,0.351C2.076,0.8 1.539,1.02 0.915,1.02C0.287,1.02 -0.249,0.8 -0.689,0.351C-1.129,-0.08 -1.355,-0.622 -1.355,-1.256C-1.355,-1.871 -1.129,-2.414 -0.68,-2.848C-0.246,-3.288 0.287,-3.516 0.915,-3.516C1.539,-3.516 2.076,-3.288 2.516,-2.848C2.961,-2.414 3.175,-1.874 3.175,-1.256M0.915,-3.2C0.381,-3.2 -0.082,-3.015 -0.466,-2.631C-0.841,-2.25 -1.035,-1.789 -1.035,-1.256C-1.035,-0.707 -0.841,-0.244 -0.466,0.152C-0.094,0.512 0.372,0.715 0.915,0.715C1.457,0.715 1.915,0.512 2.293,0.152C2.677,-0.244 2.862,-0.707 2.862,-1.256C2.862,-1.789 2.677,-2.25 2.293,-2.631C1.9,-3.015 1.457,-3.2 0.915,-3.2" style="fill:rgb(56,56,56);fill-rule:nonzero;"/>
        </g>
    </g>
</svg>
