<?xml version="1.0" encoding="UTF-8" standalone="no"?>
<!DOCTYPE svg PUBLIC "-//W3C//DTD SVG 1.1//EN" "http://www.w3.org/Graphics/SVG/1.1/DTD/svg11.dtd">
<svg width="100%" height="100%" viewBox="0 0 500 200" version="1.1" xmlns="http://www.w3.org/2000/svg" xmlns:xlink="http://www.w3.org/1999/xlink" xml:space="preserve" xmlns:serif="http://www.serif.com/" style="fill-rule:evenodd;clip-rule:evenodd;stroke-linejoin:round;stroke-miterlimit:2;">
    <g transform="matrix(1.487402,0,0,1.487402,-452.784525,-517.409293)">
        <g transform="matrix(1,0,0,1,581.1024,402.5741)">
            <path d="M0,21.063L-1.229,26.601L-19.597,26.601L-19.597,-5.538L-13.432,-5.538L-13.432,21.063L0,21.063Z" style="fill:rgb(56,56,56);fill-rule:nonzero;"/>
        </g>
        <g transform="matrix(1,0,0,1,461.8763,397.0359)">
            <path d="M0,32.139L-14.73,10.353L-14.73,32.139L-20.836,32.139L-20.836,0L-14.451,0L-0.024,21.396L-0.024,0L6.08,0L6.08,32.139L0,32.139Z" style="fill:rgb(56,56,56);fill-rule:nonzero;"/>
        </g>
        <g transform="matrix(1,0,0,1,486.7099,423.6607)">
            <path d="M0,-21.11L0,5.514L-6.176,5.514L-6.176,-21.105L-15.696,-21.099L-14.467,-26.624L9.595,-26.624L8.366,-21.115L0,-21.11Z" style="fill:rgb(56,56,56);fill-rule:nonzero;"/>
        </g>
        <g transform="matrix(1,0,0,1,522.3889,406.1169)">
            <path d="M0,18.602C-2.258,15.585 -4.835,11.888 -6.521,9.427C-2.956,7.678 -0.938,4.138 -0.938,0.709C-0.938,-4.095 -4.605,-9.081 -11.436,-9.081L-22.967,-9.081L-22.967,23.058L-16.792,23.058L-16.792,10.541L-12.615,10.541C-10.958,12.793 -8.512,16.084 -5.511,19.928C-0.309,26.523 5.16,27.614 5.409,27.683L7.302,24.292C7.054,24.157 3.478,23.219 0,18.602M-16.792,-3.739L-11.57,-3.739C-8.783,-3.739 -6.643,-1.95 -6.643,0.717C-6.643,3.382 -8.783,5.168 -11.57,5.168L-16.792,5.168L-16.792,-3.739Z" style="fill:rgb(56,56,56);fill-rule:nonzero;"/>
        </g>
        <g transform="matrix(1,0,0,1,541.1521,429.801)">
            <path d="M0,-33.416C-9.332,-33.416 -16.892,-25.937 -16.892,-16.71C-16.892,-7.483 -9.332,0 0,0C9.327,0 16.888,-7.483 16.888,-16.71C16.888,-25.937 9.327,-33.416 0,-33.416M0,-5.613C-5.982,-5.613 -10.822,-10.581 -10.822,-16.71C-10.822,-22.839 -5.982,-27.808 0,-27.808C5.977,-27.808 10.822,-22.839 10.822,-16.71C10.822,-10.581 5.977,-5.613 0,-5.613" style="fill:rgb(56,56,56);fill-rule:nonzero;"/>
        </g>
        <g transform="matrix(1,0,0,1,394.5033,403.3703)">
            <path d="M0,19.447C-3.064,23.679 -8.072,26.432 -13.73,26.432C-23.062,26.432 -30.623,18.947 -30.623,9.72C-30.623,0.494 -23.062,-6.985 -13.73,-6.985C-8.087,-6.985 -3.09,-4.249 -0.027,-0.042L-4.784,3.473C-6.733,0.546 -10.014,-1.378 -13.73,-1.378C-19.712,-1.378 -24.552,3.592 -24.552,9.72C-24.552,15.849 -19.712,20.817 -13.73,20.817C-10.097,20.817 -6.883,18.983 -4.919,16.164L0,19.447Z" style="fill:rgb(56,56,56);fill-rule:nonzero;"/>
        </g>
        <g transform="matrix(1,0,0,1,421.4815,396.3919)">
            <path d="M0,33.395C8.887,32.907 15.941,25.624 15.941,16.711C15.941,7.482 8.377,0 -0.952,0C-10.281,0 -18.264,7.523 -17.838,16.711C-17.615,21.537 -13.879,25.458 -8.997,25.458C-8.634,25.458 -8.277,25.436 -7.927,25.396C-10.508,23.364 -12.164,20.229 -12.164,16.711C-12.164,10.585 -7.143,5.592 -0.952,5.676C4.893,5.756 9.639,10.568 9.918,16.603C10.144,21.459 8.344,26.125 4.851,29.74C3.431,31.212 1.787,32.442 0,33.395" style="fill:rgb(56,56,56);fill-rule:nonzero;"/>
        </g>
        <g transform="matrix(1,0,0,1,411.2303,429.8123)">
            <path d="M0,-33.395C-8.887,-32.907 -15.941,-25.624 -15.941,-16.711C-15.941,-7.482 -8.377,0 0.952,0C10.281,0 18.264,-7.523 17.838,-16.711C17.615,-21.537 13.879,-25.458 8.997,-25.458C8.634,-25.458 8.277,-25.436 7.927,-25.396C10.508,-23.364 12.164,-20.229 12.164,-16.711C12.164,-10.585 7.143,-5.592 0.952,-5.676C-4.893,-5.756 -9.639,-10.568 -9.918,-16.603C-10.144,-21.459 -8.344,-26.125 -4.851,-29.74C-3.431,-31.213 -1.787,-32.442 0,-33.395" style="fill:rgb(56,56,56);fill-rule:nonzero;"/>
        </g>
    </g>
</svg>
