<?xml version="1.0" encoding="UTF-8" standalone="no"?>
<!DOCTYPE svg PUBLIC "-//W3C//DTD SVG 1.1//EN" "http://www.w3.org/Graphics/SVG/1.1/DTD/svg11.dtd">
<svg width="100%" height="100%" viewBox="0 0 500 200" version="1.1" xmlns="http://www.w3.org/2000/svg" xmlns:xlink="http://www.w3.org/1999/xlink" xml:space="preserve" xmlns:serif="http://www.serif.com/" style="fill-rule:evenodd;clip-rule:evenodd;stroke-linejoin:round;stroke-miterlimit:2;">
    <g transform="matrix(1.487402,0,0,1.487402,-994.691383,-1069.486315)">
        <g transform="matrix(0.531075,0,0,0.531075,493.0988,319.327234)">
            <g id="polygon1958" transform="matrix(1.263884,0,0,1.263884,525.4119,757.4134)">
                <rect x="8.504" y="47.114" width="175.748" height="98.528" style="fill:rgb(56,56,56);fill-rule:nonzero;"/>
            </g>
            <g id="path1960" transform="matrix(1,0,0,1,272.2225,346.8618)">
                <path d="M277.519,491.519L277.519,562.178L292.488,562.178C312.284,564.02 312.276,538.915 312.276,538.915L312.276,517.073C312.046,491.063 293.397,491.519 293.397,491.519L277.519,491.519ZM291.422,502.46C299.152,501.906 298.927,513.124 298.926,513.124L298.926,540.06C299.156,553.412 290.632,551.356 290.632,551.356L290.632,502.539C290.898,502.495 291.173,502.477 291.422,502.46Z" style="fill:white;fill-rule:nonzero;"/>
            </g>
            <g id="polygon1964" transform="matrix(1.263884,0,0,1.263884,525.4119,757.4134)">
                <rect x="51.849" y="64.051" width="10.199" height="55.912" style="fill:white;fill-rule:nonzero;"/>
            </g>
            <g id="polygon1966" transform="matrix(1.263884,0,0,1.263884,525.4119,757.4134)">
                <path d="M91.005,119.807L91.005,111.585L77.71,111.585L77.71,95.922L86.999,95.922L86.999,86.999L77.893,86.999L77.893,72.975L90.642,72.975L90.642,64.051L67.329,64.051L67.329,119.919L91.005,119.807Z" style="fill:white;fill-rule:nonzero;"/>
            </g>
            <g id="path1968" transform="matrix(1,0,0,1,272.2225,346.8618)">
                <path d="M392.147,511.761L403.426,511.761C403.426,511.761 404.807,489.894 387.083,489.894C369.358,489.894 370.281,506.926 370.281,506.926C370.281,506.926 367.979,520.737 382.711,531.785C382.711,531.785 398.133,540.763 392.378,550.429C392.378,550.429 383.171,558.717 382.94,542.143L371.201,542.143C371.201,542.143 369.129,564.931 388.464,564.011C388.464,564.011 404.346,563.78 405.499,547.208C405.499,547.208 407.34,535.007 394.91,523.729C394.91,523.729 377.187,512.22 383.631,503.012C383.631,503.014 390.997,495.418 392.147,511.761Z" style="fill:white;fill-rule:nonzero;"/>
            </g>
            <g id="polygon1970" transform="matrix(1.263884,0,0,1.263884,525.4119,757.4134)">
                <path d="M123.738,64.051L147.07,64.051L147.07,73.157L134.35,73.157L134.35,87.181L143.82,87.181L143.82,96.469L134.168,96.469L134.168,111.585L147.463,111.585L147.463,120.327L123.969,120.327L123.738,64.051Z" style="fill:white;fill-rule:nonzero;"/>
            </g>
            <g id="polygon1972" transform="matrix(1.263884,0,0,1.263884,525.4119,757.4134)">
                <path d="M152.337,64.051L162.575,64.051L162.575,111.585L173.324,111.585L173.324,120.327L152.337,120.327L152.337,64.051Z" style="fill:white;fill-rule:nonzero;"/>
            </g>
            <g id="path1974" transform="matrix(1,0,0,1,272.2225,346.8618)">
                <path d="M467.309,492.66C467.598,492.6 468.021,492.561 468.406,492.561C469.019,492.561 469.421,492.68 469.697,492.93C469.914,493.121 470.045,493.423 470.045,493.772C470.045,494.351 469.67,494.74 469.21,494.897L469.21,494.917C469.546,495.036 469.75,495.352 469.862,495.812C470.006,496.43 470.111,496.857 470.198,497.028L469.606,497.028C469.532,496.903 469.435,496.521 469.316,495.969C469.185,495.357 468.941,495.127 468.421,495.107L467.883,495.107L467.883,497.028L467.31,497.028L467.31,492.66L467.309,492.66ZM467.882,494.673L468.467,494.673C469.079,494.673 469.467,494.338 469.467,493.831C469.467,493.259 469.052,493.01 468.447,493.01C468.17,493.01 467.979,493.036 467.882,493.063L467.882,494.673Z" style="fill:white;fill-rule:nonzero;"/>
            </g>
            <g id="path1976" transform="matrix(1,0,0,1,272.2225,346.8618)">
                <path d="M472.453,494.958C472.452,496.034 472.016,497.009 471.313,497.712L471.312,497.712C470.608,498.414 469.636,498.849 468.56,498.85L468.56,498.852L468.558,498.852L468.558,498.85C467.481,498.85 466.508,498.414 465.804,497.712C465.1,497.008 464.666,496.034 464.665,494.96L464.664,494.96L464.664,494.958L464.665,494.958C464.666,493.881 465.101,492.908 465.804,492.204C466.506,491.5 467.481,491.066 468.557,491.065L468.557,491.063L468.56,491.063L468.56,491.065C469.635,491.065 470.608,491.501 471.313,492.205C472.017,492.909 472.452,493.881 472.452,494.956L472.453,494.956L472.453,494.958ZM471.571,494.959L471.57,494.956L471.571,494.956C471.571,494.127 471.232,493.375 470.687,492.83L470.687,492.829C470.144,492.284 469.392,491.947 468.56,491.947L468.56,491.948L468.557,491.948L468.557,491.947C467.727,491.947 466.975,492.286 466.429,492.83C465.883,493.375 465.546,494.128 465.546,494.959L465.548,494.959L465.548,494.961L465.546,494.961C465.547,495.79 465.885,496.541 466.429,497.087C466.974,497.633 467.727,497.971 468.558,497.971L468.558,497.969L468.56,497.969L468.56,497.971C469.391,497.971 470.143,497.633 470.689,497.088L470.687,497.088C471.233,496.541 471.571,495.788 471.571,494.959Z" style="fill:white;fill-rule:nonzero;"/>
            </g>
        </g>
    </g>
</svg>
