<?xml version="1.0" encoding="UTF-8" standalone="no"?>
<!DOCTYPE svg PUBLIC "-//W3C//DTD SVG 1.1//EN" "http://www.w3.org/Graphics/SVG/1.1/DTD/svg11.dtd">
<svg width="100%" height="100%" viewBox="0 0 500 200" version="1.1" xmlns="http://www.w3.org/2000/svg" xmlns:xlink="http://www.w3.org/1999/xlink" xml:space="preserve" xmlns:serif="http://www.serif.com/" style="fill-rule:evenodd;clip-rule:evenodd;stroke-linejoin:round;stroke-miterlimit:2;">
    <g transform="matrix(1.487402,0,0,1.487402,-2034.139614,-707.797612)">
        <g transform="matrix(-0.529525,-0.848294,-0.848294,0.529525,1522.799047,519.063261)">
            <rect x="9.873" y="-5.475" width="0.785" height="24.692" style="fill:rgb(56,56,56);"/>
        </g>
        <g transform="matrix(1,0,0,1,1547.9465,512.9378)">
            <path d="M0,8.566C2.683,6.942 6.035,6.8 8.076,6.902L7.176,0.332C4.356,-0.197 1.594,-0.211 1.594,-0.211C3.297,-1.494 5.28,-1.768 6.897,-1.706L6.479,-4.753L2.089,-6.722C2.089,-6.722 0.037,-3.362 -1.52,1.983L0.112,13.604C2.632,13.33 6.164,13.429 9.224,15.288L8.428,9.471C4.701,8.676 0,8.566 0,8.566" style="fill:rgb(56,56,56);fill-rule:nonzero;"/>
        </g>
        <g transform="matrix(1,0,0,1,1514.3632,516.1968)">
            <path d="M0,4.841L-8.446,4.856L-10.711,5.918L1.99,6.348L5.13,-1.507L4.519,-1.22L0,4.841Z" style="fill:rgb(56,56,56);fill-rule:nonzero;"/>
        </g>
        <g transform="matrix(1,0,0,1,1521.1108,520.7314)">
            <path d="M0,-9.921L-21.056,0L-7.255,-0.35L0,-9.921Z" style="fill:rgb(56,56,56);fill-rule:nonzero;"/>
        </g>
        <g transform="matrix(1,0,0,1,1546.2386,507.4107)">
            <path d="M0,11.811C-3.547,10.205 -11.329,9.078 -11.329,9.078C-8.274,6.907 -2.296,7.634 -0.595,7.896L-1.581,1.408C-4.998,-0.037 -10.425,-0.27 -10.425,-0.27C-8.607,-1.73 -4.115,-1.689 -2.036,-1.582L-2.864,-7.029L-8.624,-9.533C-8.624,-9.533 -15.683,3.291 -15.439,18.57C-15.439,18.57 -7.385,19.098 1.449,21.344L0,11.811Z" style="fill:rgb(56,56,56);fill-rule:nonzero;"/>
        </g>
        <g transform="matrix(0.080816,-0.996729,-0.996729,-0.080816,1543.552005,500.186184)">
            <path d="M0.886,3.746L3.892,3.746C3.892,3.746 4.36,1.011 3.164,-0.292L0.831,-1.222C0.831,-1.222 1.525,3.211 0.886,3.746" style="fill:rgb(56,56,56);fill-rule:nonzero;"/>
        </g>
        <g transform="matrix(1,0,0,1,1533.7682,501.7081)">
            <path d="M0,27.148C-0.08,27.154 -0.157,27.161 -0.235,27.167C-0.151,27.217 -0.064,27.26 0.019,27.311L0,27.148ZM-10.512,7.678C-7.063,5.965 -3.468,6.706 -2.402,6.988L-3.014,1.847L-7.645,-0.163C-7.645,-0.163 -15.759,7.908 -15.526,22.952C-15.526,22.952 -9.87,23.082 -4.087,25.316C-4.11,22.858 -3.935,20.433 -3.637,18.084C-7.381,17.03 -12.752,16.767 -12.752,16.767C-9.181,14.638 -4.876,15.178 -3.257,15.489C-2.924,13.525 -2.513,11.636 -2.06,9.86L-2.082,9.675C-5.434,8.13 -10.512,7.678 -10.512,7.678" style="fill:rgb(56,56,56);fill-rule:nonzero;"/>
        </g>
        <g transform="matrix(1,0,0,1,1508.7102,531.419)">
            <path d="M0,4.577C4.381,3.612 8.779,2.718 13.2,1.95C15.41,1.562 17.624,1.189 19.848,0.858C20.96,0.688 22.077,0.557 23.2,0.438C24.334,0.335 25.431,0.202 26.655,0.279C26.809,0.291 26.978,0.316 27.176,0.373C27.444,0.474 27.536,0.537 27.743,0.724C27.833,0.817 27.932,0.951 27.98,1.135C28.029,1.319 28,1.518 27.946,1.653C27.834,1.926 27.692,2.056 27.57,2.18C27.322,2.415 27.08,2.578 26.894,2.736C26.808,2.795 26.718,2.928 26.775,2.832C26.788,2.802 26.808,2.723 26.788,2.627C26.767,2.534 26.715,2.47 26.693,2.449C26.643,2.404 26.661,2.426 26.692,2.435C27.048,2.548 27.664,2.58 28.188,2.601C28.734,2.62 29.292,2.622 29.844,2.617C32.002,2.565 34.197,2.162 36.367,1.679C38.543,1.198 40.709,0.617 42.931,0.169C44.044,-0.051 45.173,-0.243 46.358,-0.229C46.947,-0.215 47.565,-0.168 48.176,0.116C48.476,0.26 48.775,0.476 48.977,0.777C49.181,1.074 49.286,1.418 49.318,1.742L49.368,2.235L48.883,2.161C48.312,2.073 47.573,2.129 47.314,2.505C47.244,2.588 47.201,2.724 47.18,2.823C47.168,2.816 47.189,2.885 47.296,2.968C47.505,3.127 47.824,3.251 48.133,3.351C49.411,3.733 50.786,3.934 52.145,4.112C54.877,4.45 57.634,4.627 60.39,4.783C57.628,4.82 54.864,4.75 52.101,4.542C50.72,4.419 49.337,4.31 47.957,3.929C47.611,3.823 47.266,3.718 46.913,3.472C46.753,3.354 46.509,3.128 46.535,2.762C46.567,2.521 46.63,2.32 46.764,2.123C47.03,1.727 47.462,1.54 47.842,1.46C48.238,1.376 48.601,1.371 49.003,1.414L48.568,1.833C48.488,0.865 47.417,0.618 46.361,0.662C45.301,0.7 44.211,0.911 43.129,1.132C40.962,1.598 38.801,2.208 36.607,2.724C34.411,3.223 32.182,3.735 29.848,3.733C29.279,3.73 28.715,3.72 28.142,3.692C27.552,3.646 27.029,3.66 26.312,3.435C26.214,3.392 26.102,3.354 25.949,3.213C25.876,3.145 25.783,3.021 25.748,2.858C25.71,2.694 25.745,2.542 25.783,2.448C25.956,2.094 26.094,2.045 26.218,1.922C26.463,1.723 26.688,1.571 26.849,1.421C26.928,1.352 26.981,1.271 26.973,1.282C26.943,1.3 27.001,1.487 26.998,1.443C27.004,1.436 26.855,1.342 26.857,1.352C26.786,1.333 26.677,1.309 26.553,1.299C25.537,1.221 24.391,1.33 23.296,1.421C22.188,1.519 21.08,1.66 19.969,1.78C17.748,2.034 15.528,2.331 13.31,2.644L0,4.577Z" style="fill:rgb(56,56,56);fill-rule:nonzero;"/>
        </g>
        <g transform="matrix(1,0,0,1,1515.4011,524.7147)">
            <path d="M0,4.328C1.707,8.091 4.314,8.87 4.314,8.87C4.314,8.87 4.448,8.878 4.685,8.892C10.835,8.02 19.24,6.979 20.428,7.609C21.745,8.307 19.056,9.126 19.667,9.564C21.586,9.627 23.542,9.68 25.449,9.715C31.774,8.919 39.688,5.556 41.767,7.536C43.164,5.874 43.521,3.697 43.521,3.697C31.204,5.344 2.665,2.435 2.665,2.435L-14.718,-5.009C-14.718,-5.009 -16.368,-5.387 -15.48,-5.009C-13.993,-4.375 -0.399,3.448 0,4.328" style="fill:rgb(56,56,56);fill-rule:nonzero;"/>
        </g>
        <g transform="matrix(1,0,0,1,1573.2502,509.7225)">
            <path d="M0,10.82C1.866,14.243 3.227,17.898 4.122,21.658C4.857,21.752 5.599,21.852 6.339,21.95C5.268,17.763 3.614,13.735 1.453,10.014C-4.368,-0.089 -14.026,-7.834 -25.024,-11.13C-19.657,-9.115 -14.704,-6.134 -10.418,-2.423C-6.111,1.275 -2.631,5.858 0,10.82" style="fill:rgb(56,56,56);fill-rule:nonzero;"/>
        </g>
        <g transform="matrix(1,0,0,1,1490.8608,496.6422)">
            <path d="M0,33.905C1.968,26.512 5.765,19.577 11.094,13.984C14.938,9.879 19.565,6.473 24.686,4.035C29.808,1.606 35.404,0.118 41.12,-0.321C29.622,-0.252 18.22,4.652 9.901,12.814C5.746,16.902 2.354,21.785 -0.058,27.127C-1.094,29.416 -1.927,31.796 -2.58,34.226C-1.738,34.117 -0.88,34.01 0,33.905" style="fill:rgb(56,56,56);fill-rule:nonzero;"/>
        </g>
        <g transform="matrix(1,0,0,1,1570.7556,510.8358)">
            <path d="M0,10.497C1.671,13.565 2.976,16.833 3.872,20.208C4.063,20.231 4.255,20.255 4.447,20.279C3.522,16.791 2.169,13.419 0.418,10.268C-2.204,5.612 -5.594,1.356 -9.73,-2.029C-13.838,-5.438 -18.562,-8.091 -23.613,-9.782C-18.588,-8.016 -13.918,-5.298 -9.884,-1.847C-5.822,1.58 -2.525,5.853 0,10.497" style="fill:rgb(56,56,56);fill-rule:nonzero;"/>
        </g>
        <g transform="matrix(1,0,0,1,1493.4624,499.0018)">
            <path d="M0,31.248C1.946,24.445 5.518,18.101 10.448,12.994C14.094,9.156 18.462,5.992 23.277,3.754C28.089,1.51 33.343,0.207 38.664,-0.07C33.34,0.127 28.051,1.352 23.178,3.536C18.302,5.714 13.847,8.836 10.103,12.661C5.028,17.851 1.348,24.343 -0.644,31.318C-0.432,31.294 -0.214,31.272 0,31.248" style="fill:rgb(56,56,56);fill-rule:nonzero;"/>
        </g>
        <g transform="matrix(1,0,0,1,1536.7434,570.1868)">
            <path d="M0,14.774C8.045,14.774 16.089,16.014 23.921,18.495L29.235,2.138C10.097,-3.952 -10.095,-3.952 -29.235,2.138L-23.921,18.495C-16.091,16.015 -8.043,14.774 0,14.774M24.696,20.014L24.123,19.828C8.34,14.698 -8.341,14.698 -24.123,19.828L-24.697,20.014L-30.757,1.362L-30.183,1.175C-10.437,-5.24 10.439,-5.24 30.183,1.175L30.757,1.362L24.696,20.014Z" style="fill:rgb(56,56,56);fill-rule:nonzero;"/>
        </g>
        <g transform="matrix(1,0,0,1,1533.5143,573.5486)">
            <path d="M0,7.43C-0.403,7.766 -0.935,7.955 -1.581,7.993C-2.087,8.021 -2.521,7.942 -2.869,7.754C-3.211,7.57 -3.451,7.324 -3.583,7.025C-3.724,6.707 -3.812,6.258 -3.844,5.691C-3.886,4.971 -3.744,4.388 -3.423,3.958C-3.102,3.531 -2.601,3.304 -1.894,3.263C-1.817,3.259 -1.741,3.256 -1.666,3.256C-1.091,3.256 -0.616,3.391 -0.222,3.666C0.206,3.964 0.45,4.592 0.505,5.533C0.56,6.467 0.39,7.106 0,7.43M-3.836,0.255C-3.875,-0.406 -3.733,-0.91 -3.415,-1.243C-3.089,-1.585 -2.672,-1.765 -2.141,-1.796C-2.084,-1.8 -2.029,-1.801 -1.976,-1.801C-1.459,-1.801 -1.037,-1.652 -0.72,-1.356C-0.367,-1.025 -0.169,-0.51 -0.131,0.174C-0.086,0.935 -0.215,1.52 -0.513,1.911C-0.811,2.3 -1.276,2.507 -1.935,2.546C-2.52,2.58 -2.968,2.418 -3.282,2.05C-3.604,1.67 -3.79,1.066 -3.836,0.255M1.267,3.412C0.81,3.087 0.308,2.869 -0.23,2.759C0.319,2.531 0.754,2.237 1.069,1.88C1.523,1.364 1.733,0.762 1.692,0.091C1.644,-0.757 1.221,-1.421 0.435,-1.883C-0.325,-2.332 -1.189,-2.533 -2.144,-2.476C-3.169,-2.417 -4.021,-2.111 -4.675,-1.566C-5.345,-1.01 -5.66,-0.31 -5.611,0.515C-5.572,1.19 -5.278,1.769 -4.735,2.235C-4.359,2.56 -3.912,2.803 -3.403,2.96C-4.05,3.185 -4.577,3.509 -4.972,3.928C-5.502,4.49 -5.748,5.153 -5.705,5.901C-5.655,6.767 -5.218,7.474 -4.407,8.003C-3.7,8.462 -2.849,8.695 -1.875,8.695C-1.751,8.695 -1.625,8.691 -1.496,8.683C-0.389,8.619 0.553,8.298 1.304,7.727C2.072,7.141 2.434,6.358 2.38,5.4C2.33,4.568 1.955,3.899 1.267,3.412M21.188,4.806C20.842,6.686 20.433,7.947 19.972,8.553C19.531,9.133 18.919,9.34 18.097,9.19C17.399,9.06 16.918,8.701 16.627,8.089C16.331,7.467 16.377,6.088 16.764,3.991C17.153,1.883 17.603,0.576 18.102,0.106C18.595,-0.356 19.17,-0.519 19.864,-0.392C20.556,-0.264 21.034,0.094 21.326,0.704C21.622,1.324 21.576,2.704 21.188,4.806M22.661,0.974C22.101,-0.178 21.204,-0.875 19.994,-1.097C18.785,-1.32 17.696,-0.992 16.765,-0.121C15.847,0.737 15.228,2.007 14.925,3.652C14.624,5.286 14.75,6.69 15.3,7.824C15.859,8.975 16.756,9.672 17.968,9.895C18.212,9.94 18.452,9.963 18.687,9.963C19.616,9.963 20.461,9.608 21.204,8.903C22.12,8.035 22.736,6.771 23.036,5.147C23.337,3.512 23.211,2.108 22.661,0.974M10.592,5.811C10.535,6.746 10.29,7.359 9.865,7.634C9.423,7.92 8.868,8.043 8.225,8.005C7.72,7.973 7.301,7.841 6.978,7.614C6.66,7.389 6.45,7.116 6.355,6.803C6.254,6.474 6.22,6.018 6.255,5.448C6.3,4.728 6.511,4.166 6.881,3.778C7.246,3.398 7.786,3.23 8.482,3.27C9.151,3.312 9.693,3.514 10.094,3.871C10.483,4.217 10.651,4.87 10.592,5.811M6.913,0.051C6.954,-0.609 7.156,-1.092 7.511,-1.385C7.834,-1.652 8.229,-1.786 8.687,-1.786C8.738,-1.786 8.789,-1.784 8.841,-1.781C9.442,-1.744 9.886,-1.546 10.199,-1.174C10.51,-0.805 10.646,-0.27 10.603,0.414C10.556,1.175 10.358,1.74 10.014,2.093C9.673,2.444 9.185,2.595 8.526,2.554C7.933,2.517 7.515,2.303 7.249,1.899C6.975,1.484 6.862,0.863 6.913,0.051M10.194,2.969C10.768,2.808 11.235,2.568 11.589,2.252C12.1,1.795 12.38,1.223 12.422,0.55C12.474,-0.298 12.133,-1.008 11.41,-1.56C10.708,-2.096 9.87,-2.398 8.919,-2.457C7.894,-2.52 7.013,-2.317 6.297,-1.856C5.567,-1.383 5.171,-0.725 5.12,0.099C5.078,0.772 5.301,1.382 5.784,1.911C6.119,2.279 6.534,2.573 7.021,2.79C6.35,2.936 5.788,3.195 5.346,3.564C4.753,4.058 4.429,4.688 4.383,5.436C4.329,6.301 4.679,7.055 5.422,7.677C6.149,8.285 7.094,8.63 8.229,8.7C8.367,8.709 8.503,8.713 8.638,8.713C9.578,8.713 10.413,8.502 11.123,8.085C11.957,7.595 12.409,6.861 12.469,5.904C12.521,5.073 12.229,4.363 11.603,3.796C11.188,3.419 10.716,3.142 10.194,2.969M-9.489,8.553C-9.93,8.632 -10.135,8.605 -10.229,8.568C-10.349,8.521 -10.422,8.442 -10.46,8.32C-10.51,8.156 -10.596,7.734 -10.717,7.066L-12.229,-1.333L-12.847,-1.222L-12.885,-1.186C-13.299,-0.78 -14.018,-0.475 -15.024,-0.278L-15.188,-0.246L-15.064,0.442L-14.507,0.342C-13.999,0.251 -13.809,0.3 -13.741,0.338C-13.624,0.403 -13.551,0.484 -13.52,0.585C-13.478,0.721 -13.394,1.139 -13.27,1.827L-12.276,7.347C-12.12,8.213 -12.083,8.513 -12.079,8.611C-12.075,8.72 -12.114,8.819 -12.197,8.916C-12.244,8.97 -12.4,9.077 -12.917,9.171L-13.384,9.254L-13.259,9.946L-8.844,9.151L-8.968,8.459L-9.489,8.553Z" style="fill:rgb(56,56,56);fill-rule:nonzero;"/>
        </g>
        <g transform="matrix(1,0,0,1,1480.9453,552.585)">
            <path d="M0,10.424C-0.528,12.548 -1.604,14.105 -3.237,15.111C-3.583,15.334 -3.966,15.514 -4.388,15.649C-4.81,15.786 -5.225,15.892 -5.633,15.971C-6.073,16.055 -6.555,16.085 -7.078,16.062C-7.601,16.039 -8.073,15.841 -8.494,15.467C-8.62,15.355 -8.75,15.169 -8.882,14.909C-9.015,14.65 -9.135,14.354 -9.241,14.02C-9.347,13.686 -9.452,13.341 -9.555,12.984C-9.658,12.627 -9.742,12.295 -9.808,11.987C-9.981,11.267 -10.191,10.336 -10.438,9.194C-10.689,8.032 -10.966,6.748 -11.27,5.344C-11.834,2.733 -12.312,0.482 -12.702,-1.409C-13.092,-3.299 -13.36,-4.791 -13.504,-5.884C-13.391,-5.952 -13.236,-6.017 -13.039,-6.078C-12.842,-6.14 -12.629,-6.21 -12.4,-6.289C-12.17,-6.368 -11.933,-6.437 -11.69,-6.495C-11.447,-6.553 -11.22,-6.603 -11.009,-6.643C-10.395,-6.759 -9.872,-6.829 -9.439,-6.852C-9.007,-6.875 -8.606,-6.875 -8.238,-6.851C-7.286,-6.82 -6.358,-6.529 -5.458,-5.982C-4.557,-5.434 -3.739,-4.715 -3.002,-3.829C-2.265,-2.942 -1.633,-1.917 -1.105,-0.756C-0.576,0.405 -0.2,1.626 0.028,2.905C0.545,5.795 0.526,8.301 0,10.424M2.085,-1.424C1.611,-2.494 1.062,-3.417 0.436,-4.19C-0.19,-4.963 -0.882,-5.606 -1.639,-6.118C-2.397,-6.629 -3.182,-7.021 -3.994,-7.292C-4.613,-7.505 -5.228,-7.637 -5.838,-7.69C-6.448,-7.742 -7.05,-7.75 -7.643,-7.711C-8.237,-7.672 -8.824,-7.599 -9.404,-7.492C-9.968,-7.387 -10.53,-7.282 -11.092,-7.175C-13.061,-6.8 -14.736,-6.459 -16.118,-6.164C-17.501,-5.868 -18.559,-5.637 -19.294,-5.48C-19.269,-5.37 -19.243,-5.261 -19.218,-5.151C-18.748,-5.183 -18.311,-5.161 -17.909,-5.086C-17.507,-5.01 -17.13,-4.802 -16.779,-4.462C-16.639,-4.33 -16.512,-4.133 -16.398,-3.87C-16.284,-3.607 -16.176,-3.308 -16.073,-2.974C-15.971,-2.64 -15.875,-2.276 -15.786,-1.882C-15.698,-1.487 -15.609,-1.093 -15.52,-0.698C-15.039,1.438 -14.558,3.574 -14.076,5.711C-13.943,6.302 -13.8,6.938 -13.647,7.617C-13.499,8.274 -13.359,8.916 -13.226,9.542C-13.094,10.169 -12.973,10.745 -12.863,11.273C-12.753,11.801 -12.663,12.218 -12.594,12.525C-12.514,12.875 -12.442,13.239 -12.374,13.614C-12.306,13.991 -12.252,14.346 -12.21,14.682C-12.169,15.017 -12.14,15.321 -12.121,15.592C-12.102,15.864 -12.121,16.063 -12.178,16.19C-12.304,16.538 -12.534,16.862 -12.866,17.163C-13.198,17.464 -13.56,17.691 -13.95,17.846C-13.925,17.955 -13.899,18.064 -13.873,18.174C-10.912,17.527 -7.944,16.922 -4.969,16.358C-4.22,16.216 -3.46,16.001 -2.687,15.711C-1.915,15.423 -1.186,15.037 -0.499,14.552C0.189,14.069 0.815,13.472 1.384,12.764C1.952,12.055 2.415,11.208 2.772,10.219C3.129,9.231 3.353,8.084 3.441,6.778C3.529,5.472 3.436,3.991 3.157,2.335C2.915,0.9 2.559,-0.353 2.085,-1.424" style="fill:rgb(56,56,56);fill-rule:nonzero;"/>
        </g>
        <g transform="matrix(1,0,0,1,1467.7163,568.796)">
            <path d="M0,-21.951C0.146,-20.893 0.407,-19.455 0.775,-17.671C1.165,-15.781 1.643,-13.531 2.206,-10.921L3.039,-7.07C3.285,-5.931 3.494,-5.002 3.667,-4.283C3.733,-3.975 3.816,-3.649 3.918,-3.298C4.02,-2.943 4.123,-2.6 4.229,-2.269C4.33,-1.951 4.445,-1.665 4.572,-1.417C4.718,-1.131 4.833,-0.996 4.903,-0.933C5.283,-0.597 5.694,-0.423 6.162,-0.402C6.664,-0.379 7.13,-0.409 7.549,-0.489C7.944,-0.565 8.353,-0.67 8.763,-0.803C9.162,-0.931 9.529,-1.103 9.855,-1.313C11.447,-2.294 12.469,-3.776 12.983,-5.848C13.504,-7.948 13.512,-10.442 13.008,-13.261C12.783,-14.519 12.409,-15.731 11.894,-16.862C11.377,-18 10.75,-19.015 10.033,-19.878C9.315,-20.74 8.51,-21.446 7.64,-21.977C6.781,-22.499 5.887,-22.779 4.983,-22.809C4.616,-22.833 4.221,-22.833 3.803,-22.811C3.381,-22.788 2.865,-22.719 2.267,-22.605C2.06,-22.566 1.837,-22.517 1.597,-22.46C1.363,-22.404 1.134,-22.337 0.912,-22.261C0.68,-22.181 0.464,-22.11 0.265,-22.048C0.164,-22.016 0.075,-21.983 0,-21.951M-5.206,-21.617C-5.008,-21.604 -4.817,-21.58 -4.633,-21.545C-4.182,-21.46 -3.759,-21.228 -3.374,-20.855C-3.209,-20.699 -3.066,-20.479 -2.937,-20.182C-2.818,-19.907 -2.706,-19.597 -2.603,-19.259C-2.498,-18.917 -2.399,-18.543 -2.311,-18.148L-0.171,-8.65C-0.023,-7.991 0.117,-7.348 0.25,-6.721L0.614,-4.99C0.724,-4.463 0.814,-4.048 0.883,-3.742C0.962,-3.388 1.036,-3.021 1.105,-2.642C1.173,-2.26 1.228,-1.901 1.27,-1.561C1.312,-1.22 1.342,-0.912 1.361,-0.636C1.383,-0.319 1.357,-0.085 1.282,0.082C1.15,0.449 0.895,0.811 0.533,1.14C0.352,1.303 0.161,1.448 -0.038,1.572C2.461,1.032 4.995,0.515 7.514,0.031C7.091,0.101 6.63,0.126 6.14,0.104C5.559,0.078 5.03,-0.144 4.567,-0.555C4.415,-0.69 4.269,-0.897 4.121,-1.187C3.982,-1.459 3.855,-1.772 3.747,-2.115C3.64,-2.45 3.535,-2.798 3.431,-3.157C3.327,-3.52 3.241,-3.858 3.173,-4.17C3.001,-4.887 2.791,-5.82 2.544,-6.963L1.712,-10.814C1.147,-13.426 0.67,-15.677 0.279,-17.569C-0.112,-19.466 -0.383,-20.977 -0.526,-22.062L-0.547,-22.225L-0.406,-22.311C-0.275,-22.39 -0.105,-22.462 0.114,-22.531C0.309,-22.592 0.52,-22.661 0.747,-22.74C0.984,-22.821 1.228,-22.892 1.48,-22.952C1.728,-23.011 1.959,-23.061 2.173,-23.102C2.792,-23.22 3.332,-23.292 3.776,-23.316C4.215,-23.339 4.629,-23.339 5.007,-23.315C5.991,-23.282 6.968,-22.977 7.903,-22.409C8.821,-21.85 9.669,-21.107 10.422,-20.202C11.169,-19.304 11.819,-18.25 12.355,-17.072C12.887,-15.902 13.274,-14.649 13.506,-13.35C14.023,-10.461 14.012,-7.895 13.475,-5.726C12.935,-3.55 11.807,-1.921 10.125,-0.885C9.767,-0.653 9.359,-0.463 8.918,-0.321C8.548,-0.202 8.18,-0.103 7.819,-0.027C7.95,-0.052 8.082,-0.077 8.213,-0.102C8.946,-0.241 9.7,-0.455 10.453,-0.737C11.201,-1.016 11.918,-1.396 12.584,-1.866C13.247,-2.332 13.863,-2.917 14.416,-3.606C14.964,-4.29 15.418,-5.122 15.763,-6.078C16.112,-7.043 16.332,-8.177 16.417,-9.45C16.504,-10.737 16.409,-12.211 16.136,-13.834C15.898,-15.248 15.543,-16.493 15.082,-17.532C14.62,-18.578 14.077,-19.49 13.468,-20.242C12.86,-20.993 12.18,-21.625 11.448,-22.119C10.713,-22.615 9.941,-23 9.155,-23.263C8.556,-23.468 7.956,-23.598 7.369,-23.649C6.773,-23.7 6.177,-23.708 5.602,-23.669C5.022,-23.632 4.439,-23.559 3.871,-23.454C3.308,-23.35 2.746,-23.244 2.184,-23.137C0.419,-22.801 -1.27,-22.462 -2.836,-22.127L-5.206,-21.617ZM-0.834,2.263L-1.018,1.479L-0.814,1.399C-0.453,1.256 -0.115,1.043 0.193,0.764C0.493,0.492 0.702,0.198 0.813,-0.108C0.842,-0.174 0.876,-0.302 0.856,-0.602C0.837,-0.869 0.808,-1.168 0.767,-1.499C0.726,-1.83 0.673,-2.18 0.606,-2.552C0.539,-2.924 0.467,-3.284 0.389,-3.631C0.319,-3.938 0.228,-4.357 0.118,-4.887L-0.245,-6.617C-0.377,-7.241 -0.517,-7.882 -0.665,-8.538L-2.805,-18.037C-2.891,-18.419 -2.985,-18.78 -3.087,-19.111C-3.184,-19.431 -3.291,-19.723 -3.402,-19.981C-3.501,-20.21 -3.609,-20.381 -3.724,-20.489C-4.038,-20.794 -4.375,-20.981 -4.727,-21.048C-5.107,-21.119 -5.526,-21.141 -5.971,-21.11L-6.187,-21.095L-6.371,-21.884L-2.942,-22.623C-1.372,-22.957 0.321,-23.298 2.089,-23.635C2.652,-23.742 3.215,-23.847 3.778,-23.952C4.366,-24.061 4.969,-24.136 5.569,-24.174C6.17,-24.214 6.791,-24.207 7.413,-24.154C8.041,-24.099 8.682,-23.961 9.318,-23.742C10.145,-23.466 10.958,-23.061 11.731,-22.539C12.505,-22.016 13.222,-21.35 13.862,-20.56C14.498,-19.774 15.065,-18.824 15.545,-17.737C16.023,-16.659 16.39,-15.374 16.635,-13.918C16.915,-12.256 17.012,-10.742 16.922,-9.416C16.834,-8.096 16.604,-6.915 16.239,-5.906C15.875,-4.898 15.394,-4.017 14.811,-3.289C14.228,-2.563 13.577,-1.945 12.876,-1.452C12.174,-0.957 11.418,-0.557 10.63,-0.263C9.85,0.03 9.069,0.251 8.307,0.395C5.342,0.958 2.348,1.568 -0.59,2.21L-0.834,2.263Z" style="fill:rgb(56,56,56);fill-rule:nonzero;"/>
        </g>
        <g transform="matrix(1,0,0,1,1493.5994,558.0921)">
            <path d="M0,-4.999C-0.466,-4.729 -0.959,-4.528 -1.479,-4.397C-2,-4.265 -2.565,-4.162 -3.176,-4.085C-3.197,-4.24 -3.247,-4.607 -3.327,-5.187C-3.409,-5.786 -3.504,-6.483 -3.613,-7.276C-3.722,-8.069 -3.719,-8.905 -3.827,-9.757C-3.936,-10.609 -3.79,-9.629 -3.868,-10.308C-3.914,-10.755 -3.949,-11.099 -3.974,-11.342C-4,-11.585 -4.017,-11.774 -4.028,-11.911C-4.039,-12.046 -4.043,-12.16 -4.039,-12.249C-4.036,-12.337 -4.035,-12.441 -4.035,-12.559C-3.931,-12.591 -3.78,-12.629 -3.584,-12.673C-3.388,-12.716 -3.129,-12.758 -2.807,-12.797C-2.364,-12.85 -1.932,-12.852 -1.514,-12.802C-1.096,-12.752 -0.69,-12.642 -0.297,-12.47C0.493,-12.108 1.122,-11.569 1.593,-10.855C2.063,-10.141 2.332,-9.128 2.241,-8.164C2.037,-6.025 0.453,-5.249 0,-4.999M8.416,5.555C7.863,5.138 7.264,4.453 6.617,3.499C6.205,2.873 3.895,-0.888 3.349,-1.794C2.596,-3.066 1.946,-3.447 1.672,-3.593L1.661,-3.68C2.126,-3.947 2.564,-4.26 2.975,-4.618C3.386,-4.976 3.734,-5.39 4.022,-5.861C4.309,-6.331 4.438,-6.898 4.662,-7.455C5.08,-8.491 4.654,-10.531 4.156,-11.255C3.66,-11.979 3.049,-12.529 2.324,-12.904C1.614,-13.28 0.854,-13.463 0.047,-13.451C-0.76,-13.439 -1.677,-13.374 -2.704,-13.251C-3.118,-13.202 -3.654,-13.137 -4.313,-13.055C-4.972,-12.974 -5.63,-12.885 -6.286,-12.79C-6.943,-12.695 -7.532,-12.611 -8.052,-12.541C-8.557,-12.473 -8.871,-12.43 -8.993,-12.413C-8.978,-12.316 -8.964,-12.22 -8.949,-12.123C-8.525,-12.103 -8.164,-12.058 -7.865,-11.99C-7.567,-11.922 -7.28,-11.748 -7.007,-11.469C-6.898,-11.366 -6.799,-11.187 -6.708,-10.933C-6.616,-10.679 -6.536,-10.394 -6.467,-10.078C-6.399,-9.763 -6.334,-9.426 -6.275,-9.07C-6.216,-8.713 -6.161,-8.361 -6.111,-8.013C-5.839,-6.129 -5.566,-4.245 -5.294,-2.36C-5.219,-1.838 -5.138,-1.278 -5.051,-0.679C-4.967,-0.099 -4.89,0.467 -4.817,1.019C-4.745,1.57 -4.679,2.079 -4.619,2.543C-4.56,3.008 -4.51,3.376 -4.471,3.646C-4.426,3.956 -4.388,4.276 -4.354,4.606C-4.322,4.937 -4.295,5.248 -4.274,5.541C-4.254,5.834 -4.249,6.099 -4.258,6.337C-4.268,6.574 -4.3,6.756 -4.355,6.882C-4.497,7.217 -4.722,7.483 -5.029,7.683C-5.336,7.883 -5.662,8.047 -6.009,8.175C-5.994,8.271 -5.98,8.368 -5.965,8.464C-3.674,8.142 -1.381,7.843 0.914,7.569C0.902,7.472 0.889,7.375 0.877,7.278C0.283,7.31 -0.196,7.217 -0.561,6.996C-0.927,6.776 -1.185,6.548 -1.334,6.311C-1.518,6.039 -1.648,5.682 -1.722,5.238C-1.798,4.796 -1.885,4.266 -1.984,3.648C-2.086,3.012 -2.2,2.229 -2.327,1.301C-2.453,0.373 -2.951,-2.451 -3.124,-3.708C-2.913,-3.715 -2.63,-3.74 -2.496,-3.757C-2.348,-3.775 -2.237,-3.749 -1.944,-3.707C-1.545,-3.657 -1.307,-3.403 -0.908,-3.058C-0.509,-2.713 -0.115,-1.978 0.199,-1.572C0.518,-1.169 2.415,1.925 2.681,2.328C2.951,2.73 3.218,3.136 3.48,3.549C3.743,3.962 4.043,4.425 4.381,4.937C4.665,5.358 4.873,5.674 5.007,5.885C5.14,6.096 5.25,6.256 5.335,6.364C5.421,6.473 5.496,6.568 5.564,6.649C5.631,6.731 5.74,6.851 5.889,7.012C7.361,6.859 8.834,6.715 10.308,6.582C10.299,6.485 10.289,6.388 10.28,6.291C9.59,6.217 8.969,5.971 8.416,5.555" style="fill:rgb(56,56,56);fill-rule:nonzero;"/>
        </g>
        <g transform="matrix(1,0,0,1,1489.9978,563.1172)">
            <path d="M0,-15.019C0.006,-14.968 0.015,-14.902 0.026,-14.814C0.079,-14.391 0.106,-13.972 0.132,-13.56C0.16,-13.133 0.185,-12.73 0.24,-12.335L0.642,-9.394C1.15,-9.466 1.626,-9.557 2.06,-9.667C2.556,-9.793 3.032,-9.986 3.474,-10.243L3.541,-10.279C4.052,-10.557 5.408,-11.295 5.591,-13.213C5.672,-14.079 5.439,-15.047 4.983,-15.741C4.54,-16.412 3.94,-16.925 3.199,-17.266C2.834,-17.424 2.449,-17.529 2.057,-17.576C1.661,-17.623 1.245,-17.621 0.825,-17.57C0.513,-17.533 0.262,-17.493 0.072,-17.451C-0.024,-17.43 -0.108,-17.41 -0.181,-17.391C-0.182,-17.346 -0.183,-17.303 -0.185,-17.264C-0.188,-17.182 -0.184,-17.079 -0.174,-16.955C-0.164,-16.821 -0.146,-16.634 -0.12,-16.394L-0.014,-15.359C0.001,-15.223 0.014,-15.108 0,-15.019M1.463,-9.017C1.491,-9.013 1.521,-9.008 1.553,-9.003L1.694,-8.982C2.115,-8.93 2.379,-8.696 2.715,-8.401L2.859,-8.275C3.148,-8.025 3.422,-7.609 3.663,-7.242C3.783,-7.06 3.897,-6.887 4.001,-6.752C4.226,-6.467 5.17,-4.954 5.858,-3.849C6.165,-3.357 6.41,-2.963 6.494,-2.837C6.764,-2.435 7.032,-2.026 7.295,-1.612C7.557,-1.2 7.857,-0.739 8.194,-0.227C8.478,0.194 8.687,0.512 8.822,0.724C8.95,0.927 9.054,1.079 9.136,1.183C9.22,1.29 9.293,1.382 9.36,1.461C9.412,1.525 9.489,1.612 9.59,1.722C10.77,1.6 11.951,1.484 13.132,1.374C12.678,1.239 12.254,1.025 11.865,0.732C11.287,0.297 10.68,-0.396 10.009,-1.384C9.594,-2.015 7.274,-5.791 6.734,-6.688C5.986,-7.95 5.36,-8.285 5.154,-8.394L5.039,-8.456L4.992,-8.841L5.137,-8.924C5.585,-9.182 6.013,-9.488 6.41,-9.834C6.798,-10.172 7.134,-10.57 7.407,-11.018C7.583,-11.305 7.698,-11.641 7.82,-11.997C7.885,-12.188 7.952,-12.381 8.029,-12.574C8.416,-13.536 8.004,-15.475 7.549,-16.137C7.079,-16.823 6.494,-17.35 5.809,-17.704C5.137,-18.06 4.407,-18.23 3.652,-18.223C3.065,-18.215 2.419,-18.177 1.723,-18.111C1.856,-18.105 1.987,-18.094 2.117,-18.078C2.558,-18.026 2.991,-17.908 3.405,-17.728C4.239,-17.345 4.91,-16.771 5.406,-16.019C5.931,-15.222 6.188,-14.155 6.095,-13.166C5.887,-10.979 4.303,-10.118 3.783,-9.835L3.726,-9.804C3.243,-9.524 2.725,-9.313 2.185,-9.176C1.955,-9.118 1.713,-9.065 1.463,-9.017M-4.453,-17.311C-4.367,-17.296 -4.285,-17.28 -4.207,-17.262C-3.862,-17.183 -3.532,-16.985 -3.225,-16.672C-3.092,-16.545 -2.974,-16.338 -2.868,-16.044C-2.774,-15.782 -2.69,-15.484 -2.619,-15.158C-2.549,-14.838 -2.484,-14.497 -2.424,-14.136C-2.365,-13.777 -2.309,-13.424 -2.259,-13.074L-1.199,-5.74C-1.115,-5.159 -1.037,-4.592 -0.965,-4.039L-0.767,-2.514C-0.708,-2.051 -0.658,-1.684 -0.619,-1.415C-0.573,-1.102 -0.535,-0.779 -0.501,-0.444C-0.468,-0.111 -0.441,0.203 -0.42,0.498C-0.399,0.798 -0.394,1.075 -0.403,1.322C-0.415,1.595 -0.453,1.802 -0.521,1.958C-0.682,2.336 -0.94,2.643 -1.289,2.87C-1.406,2.946 -1.525,3.017 -1.648,3.083C0.047,2.849 1.758,2.625 3.459,2.416C3.256,2.363 3.073,2.287 2.909,2.188C2.505,1.945 2.225,1.694 2.053,1.421C1.854,1.126 1.71,0.732 1.63,0.255C1.554,-0.188 1.467,-0.718 1.368,-1.337C1.266,-1.975 1.151,-2.759 1.024,-3.689C0.965,-4.122 0.825,-4.966 0.676,-5.871C0.504,-6.909 0.319,-8.027 0.227,-8.699L-0.262,-12.266C-0.319,-12.68 -0.346,-13.111 -0.373,-13.527C-0.398,-13.929 -0.424,-14.338 -0.477,-14.75C-0.506,-14.977 -0.525,-15.127 -0.509,-15.226C-0.511,-15.249 -0.514,-15.275 -0.517,-15.305L-0.624,-16.341C-0.65,-16.586 -0.668,-16.778 -0.679,-16.916C-0.69,-17.064 -0.695,-17.188 -0.691,-17.284C-0.687,-17.369 -0.686,-17.469 -0.687,-17.583L-0.687,-17.77L-0.509,-17.825C-0.465,-17.839 -0.413,-17.854 -0.354,-17.87C-0.459,-17.856 -0.568,-17.843 -0.68,-17.829C-1.338,-17.748 -1.993,-17.659 -2.648,-17.564C-3.307,-17.469 -3.896,-17.386 -4.417,-17.316L-4.453,-17.311ZM-2.576,3.725L-2.689,2.984L-2.495,2.912C-2.168,2.791 -1.855,2.635 -1.565,2.446C-1.299,2.273 -1.109,2.047 -0.986,1.758C-0.957,1.689 -0.92,1.557 -0.909,1.301C-0.9,1.073 -0.906,0.815 -0.925,0.533C-0.945,0.243 -0.972,-0.066 -1.005,-0.394C-1.037,-0.72 -1.076,-1.036 -1.12,-1.342C-1.159,-1.614 -1.209,-1.983 -1.269,-2.45L-1.467,-3.974C-1.539,-4.524 -1.617,-5.089 -1.7,-5.668L-2.76,-13.002C-2.81,-13.348 -2.865,-13.699 -2.923,-14.054C-2.982,-14.405 -3.045,-14.738 -3.113,-15.05C-3.18,-15.354 -3.257,-15.631 -3.344,-15.872C-3.441,-16.141 -3.526,-16.26 -3.58,-16.312C-3.824,-16.56 -4.071,-16.712 -4.32,-16.768C-4.603,-16.833 -4.953,-16.876 -5.36,-16.895L-5.567,-16.905L-5.68,-17.654L-4.484,-17.817C-3.965,-17.887 -3.377,-17.97 -2.721,-18.065C-2.063,-18.161 -1.403,-18.25 -0.742,-18.332C-0.084,-18.414 0.453,-18.478 0.867,-18.528C1.888,-18.65 2.822,-18.717 3.645,-18.73C4.493,-18.744 5.298,-18.548 6.044,-18.152C6.801,-17.761 7.449,-17.179 7.967,-16.423C8.504,-15.641 8.956,-13.521 8.499,-12.385C8.425,-12.201 8.361,-12.015 8.299,-11.832C8.173,-11.467 8.044,-11.089 7.84,-10.754C7.539,-10.262 7.17,-9.824 6.742,-9.452C6.409,-9.162 6.056,-8.898 5.687,-8.665C6.03,-8.431 6.573,-7.953 7.168,-6.948C7.707,-6.054 10.019,-2.289 10.43,-1.666C11.058,-0.74 11.644,-0.068 12.17,0.327C12.684,0.715 13.269,0.946 13.908,1.014L14.113,1.036L14.187,1.786L13.933,1.809C12.46,1.942 10.988,2.086 9.516,2.239L9.391,2.252L9.304,2.159C9.151,1.993 9.039,1.869 8.97,1.785C8.902,1.704 8.825,1.607 8.737,1.496C8.648,1.382 8.534,1.216 8.394,0.995C8.261,0.786 8.054,0.472 7.773,0.053C7.433,-0.462 7.131,-0.927 6.868,-1.34C6.607,-1.751 6.342,-2.156 6.072,-2.556C5.986,-2.686 5.739,-3.084 5.428,-3.581C4.785,-4.614 3.811,-6.175 3.602,-6.44C3.49,-6.586 3.368,-6.77 3.241,-6.964C3.017,-7.303 2.763,-7.688 2.528,-7.892L2.38,-8.021C2.079,-8.287 1.897,-8.447 1.626,-8.481L1.477,-8.503C1.284,-8.532 1.219,-8.54 1.136,-8.531C1.052,-8.52 0.913,-8.507 0.767,-8.496C0.866,-7.821 1.026,-6.857 1.175,-5.954C1.326,-5.043 1.466,-4.193 1.526,-3.758C1.652,-2.832 1.766,-2.051 1.867,-1.417C1.966,-0.8 2.053,-0.271 2.129,0.171C2.197,0.576 2.314,0.903 2.477,1.144C2.609,1.353 2.841,1.555 3.171,1.754C3.489,1.946 3.923,2.03 4.465,2.001L4.699,1.988L4.8,2.765L4.546,2.795C2.261,3.068 -0.052,3.369 -2.328,3.69L-2.576,3.725Z" style="fill:rgb(56,56,56);fill-rule:nonzero;"/>
        </g>
        <g transform="matrix(1,0,0,1,1583.6107,556.5869)">
            <path d="M0,-4.304C-0.52,-4.154 -1.048,-4.076 -1.586,-4.072C-2.124,-4.067 -2.697,-4.1 -3.308,-4.169C-3.29,-4.322 -3.246,-4.686 -3.177,-5.26C-3.105,-5.854 -3.022,-6.543 -2.927,-7.328C-2.832,-8.113 -2.618,-8.914 -2.508,-9.756C-2.399,-10.598 -2.505,-9.624 -2.409,-10.293C-2.341,-10.732 -2.287,-11.07 -2.251,-11.309C-2.214,-11.547 -2.184,-11.733 -2.16,-11.866C-2.136,-11.999 -2.111,-12.109 -2.085,-12.193C-2.06,-12.277 -2.032,-12.376 -2.003,-12.489C-1.894,-12.496 -1.738,-12.498 -1.537,-12.493C-1.336,-12.489 -1.075,-12.469 -0.753,-12.431C-0.31,-12.378 0.109,-12.279 0.501,-12.134C0.893,-11.989 1.259,-11.789 1.598,-11.533C2.271,-11.001 2.746,-10.337 3.022,-9.543C3.298,-8.749 3.304,-7.716 2.972,-6.814C2.235,-4.812 0.502,-4.438 0,-4.304M5.502,7.774C5.07,7.245 4.662,6.449 4.275,5.384C4.032,4.688 2.74,0.544 2.439,-0.451C2.03,-1.846 1.495,-2.362 1.266,-2.566C1.27,-2.595 1.274,-2.624 1.278,-2.652C1.796,-2.8 2.3,-2.997 2.789,-3.245C3.278,-3.491 3.721,-3.807 4.119,-4.191C4.516,-4.575 4.784,-5.087 5.142,-5.569C5.809,-6.464 5.911,-8.518 5.61,-9.328C5.312,-10.138 4.857,-10.808 4.248,-11.336C3.655,-11.862 2.964,-12.215 2.179,-12.392C1.394,-12.569 0.488,-12.72 -0.538,-12.842C-0.952,-12.891 -1.488,-12.954 -2.147,-13.03C-2.806,-13.105 -3.465,-13.173 -4.125,-13.235C-4.786,-13.297 -5.377,-13.355 -5.898,-13.409C-6.404,-13.461 -6.718,-13.493 -6.841,-13.505C-6.851,-13.409 -6.861,-13.313 -6.871,-13.217C-6.466,-13.099 -6.127,-12.971 -5.856,-12.837C-5.584,-12.702 -5.351,-12.469 -5.156,-12.138C-5.077,-12.013 -5.026,-11.819 -5.001,-11.554C-4.977,-11.29 -4.971,-10.998 -4.985,-10.679C-4.998,-10.361 -5.02,-10.023 -5.053,-9.668C-5.085,-9.312 -5.121,-8.962 -5.16,-8.617C-5.372,-6.748 -5.584,-4.879 -5.796,-3.01C-5.854,-2.492 -5.917,-1.936 -5.984,-1.342C-6.05,-0.767 -6.117,-0.206 -6.186,0.339C-6.256,0.885 -6.32,1.387 -6.379,1.846C-6.439,2.306 -6.483,2.67 -6.514,2.938C-6.548,3.245 -6.592,3.56 -6.643,3.885C-6.694,4.209 -6.747,4.514 -6.801,4.799C-6.856,5.084 -6.917,5.34 -6.986,5.566C-7.056,5.791 -7.133,5.958 -7.218,6.065C-7.44,6.353 -7.724,6.556 -8.072,6.676C-8.42,6.797 -8.778,6.877 -9.145,6.919L-9.176,7.207C-6.877,7.431 -4.58,7.679 -2.285,7.952C-2.273,7.856 -2.26,7.761 -2.248,7.665C-2.832,7.557 -3.272,7.356 -3.571,7.059C-3.87,6.763 -4.063,6.484 -4.147,6.222C-4.256,5.919 -4.292,5.546 -4.253,5.104C-4.214,4.662 -4.165,4.134 -4.105,3.52C-4.043,2.886 -3.956,2.11 -3.845,1.191C-3.733,0.271 -3.504,-2.55 -3.353,-3.796C-3.147,-3.753 -2.867,-3.711 -2.733,-3.696C-2.585,-3.679 -2.483,-3.628 -2.21,-3.519C-1.836,-3.378 -1.67,-3.08 -1.37,-2.656C-1.07,-2.232 -0.874,-1.435 -0.672,-0.974C-0.464,-0.513 0.595,2.894 0.75,3.342C0.911,3.791 1.067,4.243 1.218,4.699C1.368,5.156 1.543,5.67 1.742,6.239C1.91,6.709 2.032,7.061 2.109,7.294C2.185,7.528 2.252,7.706 2.307,7.83C2.362,7.954 2.411,8.063 2.457,8.157C2.502,8.25 2.577,8.391 2.681,8.58C4.148,8.777 5.615,8.984 7.081,9.201C7.096,9.106 7.111,9.01 7.126,8.915C6.475,8.683 5.934,8.303 5.502,7.774" style="fill:rgb(56,56,56);fill-rule:nonzero;"/>
        </g>
        <g transform="matrix(1,0,0,1,1580.5847,556.6672)">
            <path d="M0,-4.474C0.508,-4.425 0.992,-4.403 1.438,-4.406C1.951,-4.41 2.461,-4.484 2.955,-4.628L3.029,-4.647C3.595,-4.794 5.099,-5.184 5.761,-6.982C6.058,-7.791 6.076,-8.772 5.809,-9.54C5.551,-10.285 5.099,-10.915 4.467,-11.414C4.155,-11.65 3.807,-11.841 3.44,-11.977C3.066,-12.115 2.663,-12.21 2.243,-12.26C1.931,-12.297 1.678,-12.316 1.483,-12.321C1.383,-12.323 1.295,-12.324 1.219,-12.322C1.206,-12.279 1.194,-12.237 1.183,-12.2C1.159,-12.123 1.137,-12.023 1.115,-11.902C1.091,-11.77 1.062,-11.586 1.026,-11.35L0.868,-10.335C0.848,-10.2 0.832,-10.086 0.796,-10.004C0.789,-9.954 0.78,-9.889 0.769,-9.803C0.715,-9.386 0.635,-8.977 0.556,-8.576C0.475,-8.161 0.398,-7.77 0.35,-7.379L0,-4.474ZM-5.346,6.951C-3.654,7.12 -1.95,7.304 -0.26,7.5C-0.438,7.402 -0.593,7.289 -0.724,7.159C-1.055,6.83 -1.264,6.523 -1.363,6.22C-1.481,5.889 -1.521,5.477 -1.479,5.001C-1.441,4.559 -1.391,4.031 -1.331,3.415C-1.268,2.779 -1.182,2.001 -1.07,1.08C-1.019,0.656 -0.942,-0.173 -0.86,-1.064C-0.764,-2.107 -0.66,-3.235 -0.578,-3.906L-0.564,-4.026L-0.565,-4.026L-0.152,-7.439C-0.103,-7.849 -0.021,-8.268 0.059,-8.674C0.136,-9.064 0.214,-9.462 0.267,-9.869C0.295,-10.089 0.315,-10.237 0.355,-10.33C0.359,-10.353 0.363,-10.38 0.367,-10.41L0.525,-11.428C0.562,-11.669 0.593,-11.858 0.617,-11.992C0.643,-12.136 0.67,-12.255 0.698,-12.347C0.723,-12.428 0.75,-12.524 0.778,-12.633L0.824,-12.811L1.008,-12.822C1.042,-12.824 1.082,-12.826 1.125,-12.827C1.036,-12.837 0.944,-12.848 0.851,-12.858C0.194,-12.933 -0.465,-13.002 -1.123,-13.064C-1.784,-13.125 -2.376,-13.183 -2.898,-13.237L-2.924,-13.24C-2.852,-13.209 -2.782,-13.176 -2.717,-13.144C-2.402,-12.987 -2.131,-12.719 -1.912,-12.347C-1.815,-12.194 -1.752,-11.966 -1.723,-11.657C-1.698,-11.383 -1.692,-11.078 -1.706,-10.749C-1.719,-10.426 -1.742,-10.085 -1.774,-9.725C-1.807,-9.368 -1.844,-9.016 -1.882,-8.669L-2.707,-1.394C-2.772,-0.817 -2.84,-0.256 -2.909,0.291L-3.102,1.798C-3.161,2.256 -3.205,2.619 -3.236,2.886C-3.271,3.197 -3.315,3.516 -3.367,3.844C-3.418,4.171 -3.472,4.478 -3.526,4.766C-3.583,5.059 -3.647,5.326 -3.718,5.559C-3.797,5.817 -3.887,6.008 -3.993,6.142C-4.243,6.466 -4.571,6.7 -4.964,6.835C-5.09,6.879 -5.218,6.918 -5.346,6.951M5.867,8.266C7.042,8.424 8.216,8.589 9.389,8.759C8.986,8.525 8.632,8.222 8.332,7.854C7.879,7.3 7.464,6.494 7.063,5.39C6.816,4.684 5.52,0.526 5.223,-0.458C4.817,-1.839 4.295,-2.305 4.123,-2.458L4.024,-2.547L4.063,-2.844L4.235,-2.976C4.735,-3.118 5.228,-3.312 5.7,-3.551C6.165,-3.785 6.592,-4.089 6.968,-4.453C7.211,-4.687 7.407,-4.981 7.614,-5.292C7.726,-5.461 7.84,-5.632 7.965,-5.8C8.583,-6.63 8.673,-8.581 8.399,-9.321C8.116,-10.087 7.682,-10.728 7.108,-11.225C6.548,-11.722 5.889,-12.058 5.149,-12.225C4.587,-12.352 3.96,-12.465 3.28,-12.563C3.394,-12.53 3.506,-12.492 3.615,-12.452C4.03,-12.298 4.421,-12.084 4.777,-11.815C5.489,-11.252 5.996,-10.544 6.288,-9.707C6.596,-8.82 6.577,-7.736 6.236,-6.807C5.483,-4.761 3.732,-4.306 3.157,-4.157L3.094,-4.14C2.556,-3.985 2,-3.904 1.442,-3.899C1.209,-3.896 0.964,-3.902 0.713,-3.914C0.733,-3.906 0.755,-3.897 0.778,-3.888L0.909,-3.834C1.305,-3.685 1.503,-3.401 1.753,-3.04L1.863,-2.883C2.08,-2.575 2.241,-2.111 2.383,-1.702C2.453,-1.5 2.519,-1.309 2.586,-1.156C2.722,-0.854 3.171,0.544 3.659,2.073C3.83,2.61 3.967,3.04 4.015,3.179C4.177,3.627 4.333,4.081 4.484,4.539C4.634,4.995 4.809,5.508 5.007,6.075C5.176,6.546 5.298,6.9 5.376,7.134C5.449,7.358 5.512,7.529 5.564,7.647C5.618,7.768 5.666,7.874 5.71,7.965C5.745,8.038 5.798,8.138 5.867,8.266M10.321,9.388L10.07,9.371C8.605,9.154 7.14,8.948 5.673,8.751L5.546,8.734L5.485,8.622C5.378,8.427 5.3,8.281 5.255,8.185C5.209,8.092 5.158,7.98 5.102,7.853C5.043,7.723 4.974,7.536 4.895,7.292C4.819,7.061 4.697,6.711 4.53,6.245C4.329,5.671 4.154,5.156 4.004,4.698C3.854,4.244 3.698,3.794 3.538,3.348C3.488,3.204 3.35,2.77 3.177,2.227C2.811,1.083 2.26,-0.647 2.123,-0.95C2.051,-1.117 1.979,-1.321 1.904,-1.537C1.774,-1.914 1.626,-2.341 1.45,-2.59L1.337,-2.751C1.114,-3.073 0.979,-3.267 0.726,-3.362L0.587,-3.419C0.408,-3.492 0.347,-3.515 0.264,-3.525C0.18,-3.535 0.039,-3.554 -0.107,-3.578C-0.182,-2.902 -0.272,-1.927 -0.356,-1.018C-0.439,-0.12 -0.516,0.714 -0.568,1.141C-0.678,2.057 -0.765,2.832 -0.828,3.464C-0.887,4.078 -0.936,4.604 -0.974,5.046C-1.01,5.448 -0.979,5.788 -0.883,6.057C-0.809,6.285 -0.636,6.532 -0.367,6.799C-0.107,7.057 0.294,7.238 0.824,7.336L1.058,7.379L0.959,8.153L0.711,8.123C-1.57,7.852 -3.887,7.601 -6.174,7.378L-6.43,7.353L-6.35,6.61L-6.148,6.587C-5.801,6.548 -5.458,6.47 -5.129,6.357C-4.826,6.252 -4.585,6.08 -4.393,5.83C-4.346,5.771 -4.276,5.652 -4.202,5.411C-4.136,5.193 -4.077,4.947 -4.023,4.671C-3.97,4.389 -3.918,4.087 -3.867,3.765C-3.816,3.444 -3.774,3.132 -3.739,2.829C-3.709,2.56 -3.664,2.195 -3.604,1.734L-3.411,0.227C-3.342,-0.318 -3.276,-0.877 -3.21,-1.451L-2.386,-8.726C-2.347,-9.069 -2.311,-9.417 -2.279,-9.772C-2.247,-10.122 -2.225,-10.455 -2.212,-10.77C-2.199,-11.076 -2.204,-11.359 -2.228,-11.611C-2.253,-11.89 -2.305,-12.022 -2.344,-12.083C-2.516,-12.376 -2.717,-12.578 -2.942,-12.69C-3.203,-12.819 -3.531,-12.942 -3.917,-13.055L-4.12,-13.114L-4.04,-13.862L-2.845,-13.741C-2.325,-13.687 -1.735,-13.63 -1.075,-13.568C-0.413,-13.506 0.247,-13.437 0.908,-13.361C1.567,-13.286 2.104,-13.223 2.518,-13.174C3.539,-13.052 4.461,-12.899 5.26,-12.719C6.085,-12.533 6.819,-12.159 7.442,-11.606C8.079,-11.054 8.561,-10.343 8.874,-9.496C9.199,-8.62 9.103,-6.479 8.371,-5.498C8.252,-5.337 8.143,-5.173 8.035,-5.012C7.822,-4.692 7.602,-4.361 7.321,-4.089C6.907,-3.689 6.439,-3.356 5.929,-3.099C5.533,-2.899 5.124,-2.729 4.707,-2.592C4.982,-2.285 5.386,-1.699 5.708,-0.603C6.003,0.377 7.296,4.522 7.54,5.22C7.915,6.252 8.314,7.032 8.724,7.534C9.124,8.023 9.633,8.381 10.237,8.597L10.437,8.668L10.321,9.388Z" style="fill:rgb(56,56,56);fill-rule:nonzero;"/>
        </g>
        <g transform="matrix(1,0,0,1,1516.5989,549.8544)">
            <path d="M0,6.407C-0.13,7.645 -0.38,8.771 -0.749,9.784C-1.118,10.799 -1.61,11.643 -2.226,12.319C-2.842,12.996 -3.6,13.374 -4.506,13.456C-5.412,13.539 -6.235,13.335 -6.978,12.841C-7.722,12.347 -8.373,11.66 -8.934,10.778C-9.494,9.897 -9.962,8.86 -10.335,7.665C-10.709,6.471 -10.973,5.217 -11.125,3.902C-11.27,2.644 -11.306,1.39 -11.228,0.138C-11.151,-1.113 -10.935,-2.247 -10.579,-3.262C-10.224,-4.276 -9.715,-5.125 -9.053,-5.805C-8.391,-6.485 -7.558,-6.87 -6.561,-6.959C-5.579,-7.047 -4.698,-6.813 -3.923,-6.262C-3.149,-5.71 -2.481,-4.963 -1.92,-4.021C-1.359,-3.079 -0.915,-2.015 -0.584,-0.831C-0.254,0.353 -0.044,1.537 0.05,2.718C0.148,3.939 0.129,5.169 0,6.407M1.967,-1.479C1.497,-2.733 0.868,-3.825 0.076,-4.753C-0.717,-5.681 -1.656,-6.397 -2.741,-6.898C-3.826,-7.398 -5.026,-7.593 -6.332,-7.477C-7.531,-7.372 -8.648,-7.018 -9.675,-6.419C-10.702,-5.82 -11.563,-5.016 -12.256,-4.012C-12.948,-3.008 -13.446,-1.816 -13.751,-0.44C-14.056,0.938 -14.101,2.458 -13.895,4.12C-13.701,5.686 -13.304,7.097 -12.714,8.353C-12.123,9.609 -11.402,10.665 -10.555,11.523C-9.707,12.381 -8.768,13.016 -7.735,13.43C-6.701,13.844 -5.642,14 -4.55,13.9C-3.444,13.799 -2.424,13.447 -1.482,12.843C-0.541,12.239 0.264,11.427 0.936,10.402C1.608,9.378 2.117,8.193 2.461,6.845C2.806,5.497 2.928,4.048 2.817,2.497C2.719,1.101 2.437,-0.225 1.967,-1.479" style="fill:rgb(56,56,56);fill-rule:nonzero;"/>
        </g>
        <g transform="matrix(1,0,0,1,1510.429,562.9137)">
            <path d="M0,-19.783C-0.121,-19.783 -0.244,-19.777 -0.369,-19.766C-1.3,-19.683 -2.085,-19.321 -2.702,-18.688C-3.334,-18.038 -3.829,-17.214 -4.171,-16.238C-4.516,-15.252 -4.729,-14.131 -4.805,-12.906C-4.881,-11.682 -4.847,-10.431 -4.704,-9.187C-4.555,-7.897 -4.292,-6.646 -3.923,-5.469C-3.561,-4.308 -3.099,-3.281 -2.55,-2.417C-2.012,-1.57 -1.379,-0.901 -0.669,-0.43C0.031,0.035 0.785,0.222 1.641,0.145C2.489,0.068 3.181,-0.278 3.757,-0.911C4.348,-1.559 4.828,-2.384 5.183,-3.362C5.545,-4.356 5.792,-5.472 5.918,-6.679C6.046,-7.904 6.063,-9.129 5.968,-10.321C5.875,-11.487 5.664,-12.665 5.342,-13.822C5.018,-14.983 4.578,-16.036 4.032,-16.951C3.492,-17.858 2.841,-18.586 2.1,-19.115C1.476,-19.559 0.771,-19.783 0,-19.783M0.003,-20.29C0.879,-20.29 1.682,-20.034 2.393,-19.527C3.193,-18.958 3.89,-18.178 4.467,-17.21C5.035,-16.256 5.494,-15.162 5.829,-13.959C6.161,-12.77 6.377,-11.559 6.473,-10.361C6.57,-9.139 6.553,-7.882 6.422,-6.626C6.291,-5.378 6.035,-4.222 5.659,-3.189C5.281,-2.148 4.766,-1.267 4.131,-0.57C3.772,-0.175 3.362,0.127 2.907,0.333C3.482,0.158 4.032,-0.097 4.551,-0.43C5.458,-1.011 6.246,-1.807 6.894,-2.796C7.55,-3.796 8.052,-4.967 8.386,-6.277C8.725,-7.602 8.842,-9.038 8.735,-10.545C8.638,-11.916 8.357,-13.229 7.9,-14.449C7.441,-15.673 6.82,-16.749 6.053,-17.649C5.287,-18.546 4.368,-19.245 3.323,-19.727C2.292,-20.202 1.14,-20.391 -0.098,-20.288C-0.064,-20.289 -0.031,-20.29 0.003,-20.29M-1.456,-20.057C-2.129,-19.879 -2.771,-19.613 -3.377,-19.26C-4.368,-18.682 -5.209,-17.897 -5.877,-16.928C-6.547,-15.956 -7.037,-14.784 -7.333,-13.445C-7.629,-12.111 -7.677,-10.606 -7.474,-8.97C-7.285,-7.446 -6.895,-6.048 -6.314,-4.814C-5.741,-3.593 -5.031,-2.55 -4.205,-1.714C-3.386,-0.885 -2.465,-0.263 -1.471,0.135C-0.817,0.397 -0.145,0.553 0.537,0.6C0.011,0.503 -0.486,0.3 -0.949,-0.008C-1.718,-0.519 -2.401,-1.238 -2.978,-2.145C-3.55,-3.047 -4.031,-4.115 -4.407,-5.318C-4.785,-6.525 -5.054,-7.807 -5.206,-9.129C-5.353,-10.403 -5.388,-11.684 -5.31,-12.937C-5.232,-14.209 -5.009,-15.376 -4.648,-16.405C-4.282,-17.452 -3.749,-18.338 -3.064,-19.041C-2.606,-19.511 -2.068,-19.851 -1.456,-20.057M0.992,1.123C0.09,1.123 -0.799,0.949 -1.659,0.605C-2.719,0.181 -3.697,-0.479 -4.566,-1.358C-5.432,-2.235 -6.174,-3.326 -6.773,-4.599C-7.375,-5.881 -7.781,-7.331 -7.976,-8.908C-8.186,-10.602 -8.136,-12.165 -7.828,-13.554C-7.518,-14.957 -7.001,-16.189 -6.294,-17.215C-5.583,-18.247 -4.687,-19.081 -3.633,-19.697C-2.577,-20.313 -1.417,-20.681 -0.185,-20.789C1.161,-20.906 2.412,-20.705 3.535,-20.187C4.647,-19.674 5.624,-18.931 6.438,-17.977C7.243,-17.033 7.895,-15.906 8.374,-14.627C8.848,-13.361 9.139,-12 9.24,-10.58C9.351,-9.019 9.229,-7.529 8.876,-6.152C8.528,-4.788 8.004,-3.565 7.318,-2.519C6.63,-1.47 5.791,-0.624 4.824,-0.004C3.854,0.619 2.784,0.988 1.643,1.093C1.426,1.113 1.209,1.123 0.992,1.123" style="fill:rgb(56,56,56);fill-rule:nonzero;"/>
        </g>
        <g transform="matrix(1,0,0,1,1531.2194,551.2917)">
            <path d="M0,1.132C0.003,1.229 0.007,1.326 0.01,1.423C0.876,1.493 1.487,1.778 1.842,2.273C2.104,2.615 2.267,3.058 2.334,3.599C2.4,4.141 2.442,4.751 2.46,5.43C2.478,6.109 2.466,6.768 2.425,7.41C2.383,8.051 2.308,8.5 2.199,8.754C1.87,9.481 1.411,10.012 0.822,10.351C0.233,10.689 -0.407,10.87 -1.099,10.896C-2.066,10.931 -2.934,10.72 -3.709,10.258C-4.484,9.797 -5.156,9.135 -5.727,8.269C-6.298,7.403 -6.76,6.353 -7.11,5.117C-7.461,3.881 -7.683,2.507 -7.771,0.995C-7.851,-0.382 -7.778,-1.704 -7.548,-2.97C-7.318,-4.236 -6.947,-5.363 -6.434,-6.35C-5.921,-7.337 -5.27,-8.134 -4.484,-8.74C-3.697,-9.346 -2.792,-9.667 -1.776,-9.702C-0.822,-9.734 0.047,-9.555 0.828,-9.168C1.609,-8.781 2.251,-8.262 2.757,-7.614C3.151,-7.118 3.525,-6.485 3.876,-5.716C4.227,-4.946 4.492,-4.127 4.675,-3.257C4.766,-3.258 4.856,-3.26 4.947,-3.261C4.908,-5.374 4.87,-7.487 4.832,-9.6C4.763,-9.599 4.694,-9.598 4.625,-9.597C4.431,-9.265 4.267,-8.981 4.134,-8.746C4,-8.511 3.919,-8.393 3.888,-8.392C3.857,-8.392 3.709,-8.491 3.444,-8.69C3.179,-8.888 2.801,-9.103 2.311,-9.335C1.821,-9.567 1.218,-9.776 0.503,-9.96C-0.212,-10.144 -1.032,-10.222 -1.957,-10.191C-3.499,-10.138 -4.798,-9.807 -5.845,-9.206C-6.893,-8.605 -7.757,-7.826 -8.436,-6.876C-8.917,-6.209 -9.305,-5.506 -9.601,-4.769C-9.897,-4.032 -10.116,-3.309 -10.259,-2.6C-10.401,-1.891 -10.489,-1.218 -10.521,-0.584C-10.555,0.051 -10.554,0.611 -10.522,1.095C-10.411,2.743 -10.108,4.218 -9.617,5.522C-9.127,6.825 -8.48,7.916 -7.677,8.795C-6.874,9.674 -5.921,10.323 -4.814,10.747C-3.707,11.17 -2.474,11.354 -1.105,11.304C-0.414,11.279 0.274,11.158 0.96,10.943C1.646,10.729 2.271,10.474 2.835,10.179C3.399,9.884 3.877,9.597 4.271,9.317C4.664,9.038 4.911,8.84 5.01,8.722C4.984,7.306 4.958,5.891 4.932,4.476C4.923,4.03 4.923,3.585 4.929,3.138C4.936,2.692 4.989,2.362 5.089,2.146C5.217,1.873 5.429,1.671 5.724,1.541C6.02,1.411 6.293,1.324 6.546,1.282C6.545,1.186 6.544,1.089 6.542,0.992C4.361,1.018 2.18,1.064 0,1.132" style="fill:rgb(56,56,56);fill-rule:nonzero;"/>
        </g>
        <g transform="matrix(1,0,0,1,1530.3461,562.302)">
            <path d="M0,-20.931C0.646,-20.859 1.253,-20.683 1.813,-20.405C2.623,-20.004 3.301,-19.457 3.83,-18.78C4.234,-18.27 4.622,-17.614 4.979,-16.831C5.201,-16.345 5.391,-15.834 5.548,-15.302L5.462,-20.041C5.376,-19.891 5.297,-19.755 5.228,-19.631C5.029,-19.284 4.938,-19.153 4.766,-19.15C4.675,-19.136 4.598,-19.173 4.166,-19.497C3.915,-19.685 3.548,-19.894 3.076,-20.117C2.599,-20.342 2.006,-20.547 1.313,-20.725C0.912,-20.829 0.473,-20.897 0,-20.931M1.842,-9.654C2.308,-9.492 2.67,-9.235 2.921,-8.885C3.204,-8.514 3.387,-8.027 3.458,-7.442C3.525,-6.89 3.568,-6.266 3.586,-5.587C3.604,-4.913 3.592,-4.24 3.551,-3.585C3.507,-2.905 3.426,-2.438 3.305,-2.156C2.954,-1.38 2.456,-0.804 1.822,-0.44C1.642,-0.337 1.458,-0.248 1.269,-0.172C1.432,-0.212 1.595,-0.258 1.758,-0.309C2.427,-0.518 3.043,-0.769 3.591,-1.056C4.146,-1.346 4.619,-1.63 4.998,-1.9C5.362,-2.158 5.542,-2.306 5.629,-2.389L5.552,-6.53C5.543,-6.978 5.543,-7.426 5.549,-7.876C5.557,-8.363 5.616,-8.721 5.732,-8.97C5.888,-9.301 6.144,-9.546 6.495,-9.701C6.538,-9.72 6.58,-9.738 6.622,-9.755C5.036,-9.733 3.434,-9.699 1.842,-9.654M-1.29,-20.939C-2.688,-20.865 -3.884,-20.549 -4.845,-19.997C-5.855,-19.418 -6.7,-18.658 -7.356,-17.74C-7.823,-17.092 -8.206,-16.401 -8.493,-15.685C-8.781,-14.968 -8.998,-14.253 -9.137,-13.56C-9.277,-12.868 -9.364,-12.202 -9.395,-11.582C-9.427,-10.968 -9.427,-10.413 -9.396,-9.932C-9.288,-8.324 -8.989,-6.859 -8.507,-5.578C-8.031,-4.312 -7.396,-3.239 -6.617,-2.387C-5.847,-1.542 -4.916,-0.908 -3.85,-0.5C-3.172,-0.241 -2.433,-0.072 -1.643,0.003C-2.11,-0.109 -2.552,-0.289 -2.965,-0.534C-3.769,-1.013 -4.476,-1.709 -5.065,-2.602C-5.65,-3.488 -6.126,-4.572 -6.48,-5.825C-6.836,-7.08 -7.062,-8.485 -7.15,-10.001C-7.232,-11.399 -7.155,-12.753 -6.924,-14.026C-6.689,-15.314 -6.306,-16.475 -5.785,-17.477C-5.258,-18.492 -4.578,-19.325 -3.765,-19.951C-3.037,-20.512 -2.206,-20.843 -1.29,-20.939M-0.66,0.555C-1.888,0.555 -3.021,0.36 -4.031,-0.027C-5.171,-0.463 -6.167,-1.142 -6.991,-2.045C-7.813,-2.945 -8.483,-4.074 -8.981,-5.4C-9.481,-6.727 -9.79,-8.241 -9.901,-9.899C-9.934,-10.399 -9.934,-10.974 -9.901,-11.608C-9.868,-12.253 -9.778,-12.943 -9.634,-13.66C-9.488,-14.384 -9.262,-15.128 -8.963,-15.874C-8.66,-16.627 -8.258,-17.354 -7.768,-18.035C-7.069,-19.012 -6.171,-19.82 -5.097,-20.436C-4.014,-21.058 -2.667,-21.4 -1.093,-21.454C-0.148,-21.486 0.703,-21.405 1.439,-21.215C2.163,-21.029 2.786,-20.813 3.292,-20.575C3.795,-20.337 4.191,-20.111 4.469,-19.903C4.571,-19.826 4.646,-19.772 4.701,-19.734C4.724,-19.772 4.753,-19.82 4.788,-19.881C4.921,-20.117 5.085,-20.401 5.279,-20.735L5.351,-20.859L5.954,-20.867L6.078,-14.022L5.344,-14.011L5.3,-14.215C5.122,-15.066 4.858,-15.875 4.518,-16.621C4.178,-17.367 3.813,-17.987 3.432,-18.466C2.949,-19.086 2.329,-19.585 1.589,-19.952C0.848,-20.319 0.013,-20.486 -0.895,-20.459C-1.853,-20.427 -2.715,-20.121 -3.456,-19.55C-4.21,-18.969 -4.843,-18.193 -5.336,-17.244C-5.833,-16.287 -6.2,-15.173 -6.426,-13.935C-6.65,-12.702 -6.724,-11.388 -6.645,-10.03C-6.559,-8.551 -6.339,-7.182 -5.993,-5.963C-5.653,-4.76 -5.198,-3.724 -4.642,-2.881C-4.096,-2.052 -3.444,-1.409 -2.706,-0.97C-1.969,-0.531 -1.164,-0.334 -0.235,-0.367C0.411,-0.391 1.018,-0.563 1.569,-0.879C2.109,-1.189 2.537,-1.687 2.842,-2.36C2.936,-2.581 3.006,-3.005 3.046,-3.617C3.086,-4.257 3.098,-4.915 3.08,-5.574C3.063,-6.237 3.021,-6.845 2.956,-7.38C2.895,-7.874 2.747,-8.279 2.514,-8.583C2.2,-9.021 1.646,-9.272 0.862,-9.335L0.637,-9.354L0.612,-10.124L0.865,-10.131C3.043,-10.199 5.246,-10.246 7.413,-10.272L7.666,-10.275L7.676,-9.514L7.461,-9.478C7.232,-9.44 6.976,-9.359 6.699,-9.238C6.46,-9.132 6.293,-8.975 6.191,-8.756C6.107,-8.576 6.061,-8.277 6.055,-7.868C6.049,-7.425 6.049,-6.982 6.058,-6.539L6.139,-2.198L6.077,-2.125C6.004,-2.039 5.843,-1.879 5.291,-1.487C4.894,-1.204 4.401,-0.909 3.826,-0.607C3.251,-0.307 2.607,-0.044 1.909,0.175C1.203,0.395 0.486,0.521 -0.223,0.547C-0.37,0.552 -0.515,0.555 -0.66,0.555" style="fill:rgb(56,56,56);fill-rule:nonzero;"/>
        </g>
        <g transform="matrix(1,0,0,1,1551.0292,562.126)">
            <path d="M0,-20.4C0.353,-20.371 0.704,-20.288 1.055,-20.152C1.404,-20.015 1.709,-19.681 1.967,-19.15C2.081,-18.895 2.143,-18.568 2.152,-18.171C2.162,-17.774 2.167,-17.391 2.17,-17.024C2.163,-16.385 2.152,-15.814 2.134,-15.312C2.116,-14.809 2.099,-14.315 2.083,-13.832C2.066,-13.349 2.049,-12.846 2.031,-12.324C2.021,-12.061 2.025,-12.161 2.027,-12.229C2.026,-12.195 2.024,-12.141 2.021,-12.032C-0.94,-12.129 -3.902,-12.189 -6.865,-12.21C-6.863,-12.403 -6.861,-12.762 -6.857,-13.285C-6.853,-13.827 -6.859,-13.054 -6.854,-13.752C-6.849,-14.468 -6.84,-15.219 -6.828,-16.003C-6.815,-16.787 -6.798,-17.518 -6.778,-18.196C-6.76,-18.642 -6.681,-19.009 -6.54,-19.298C-6.4,-19.588 -6.23,-19.814 -6.028,-19.976C-5.828,-20.139 -5.603,-20.257 -5.356,-20.332C-5.109,-20.406 -4.878,-20.461 -4.662,-20.497C-4.66,-20.594 -4.659,-20.691 -4.658,-20.787C-6.952,-20.82 -9.247,-20.83 -11.542,-20.818C-11.541,-20.721 -11.54,-20.625 -11.54,-20.528C-11.139,-20.472 -10.781,-20.371 -10.465,-20.227C-10.15,-20.082 -9.884,-19.845 -9.668,-19.515C-9.576,-19.38 -9.507,-19.191 -9.46,-18.949C-9.414,-18.706 -9.379,-18.435 -9.356,-18.135C-9.333,-17.834 -9.321,-17.51 -9.321,-17.161C-9.321,-16.812 -9.32,-16.464 -9.32,-16.115C-9.319,-14.69 -9.318,-13.265 -9.316,-11.841C-9.316,-11.317 -9.314,-9.363 -9.314,-8.762C-9.313,-8.181 -9.317,-7.614 -9.323,-7.062C-9.331,-6.51 -9.338,-6.001 -9.344,-5.536C-9.351,-5.071 -9.354,-4.703 -9.354,-4.432C-9.354,-4.122 -9.361,-3.797 -9.375,-3.458C-9.389,-3.119 -9.407,-2.804 -9.428,-2.514C-9.45,-2.223 -9.479,-1.966 -9.515,-1.743C-9.551,-1.52 -9.598,-1.361 -9.655,-1.264C-9.829,-0.992 -10.081,-0.763 -10.413,-0.578C-10.745,-0.392 -11.09,-0.259 -11.45,-0.179C-11.45,-0.082 -11.449,0.015 -11.448,0.112C-9.321,0.095 -7.194,0.098 -5.066,0.122C-5.065,0.025 -5.064,-0.072 -5.063,-0.168C-5.365,-0.21 -5.674,-0.32 -5.99,-0.497C-6.307,-0.674 -6.55,-0.927 -6.722,-1.258C-6.836,-1.471 -6.899,-1.84 -6.91,-2.363C-6.921,-2.886 -6.924,-3.428 -6.92,-3.99C-6.903,-6.536 -6.886,-9.082 -6.869,-11.628C-3.912,-11.608 -0.955,-11.549 2,-11.452C1.994,-11.259 1.982,-10.92 1.965,-10.437C1.949,-9.973 1.883,-8.041 1.861,-7.423C1.841,-6.823 1.818,-6.175 1.794,-5.479C1.771,-4.802 1.74,-4.145 1.704,-3.508C1.696,-3.276 1.684,-3.034 1.668,-2.783C1.652,-2.532 1.632,-2.291 1.61,-2.059C1.588,-1.827 1.563,-1.625 1.535,-1.451C1.507,-1.278 1.478,-1.163 1.447,-1.106C1.323,-0.858 1.076,-0.638 0.709,-0.445C0.341,-0.253 -0.11,-0.134 -0.646,-0.09C-0.648,0.007 -0.651,0.104 -0.654,0.201C1.56,0.255 3.772,0.331 5.984,0.43C5.989,0.333 5.994,0.237 5.999,0.14C5.626,0.065 5.285,-0.055 4.975,-0.223C4.664,-0.391 4.423,-0.671 4.251,-1.065C4.172,-1.243 4.131,-1.568 4.13,-2.043C4.128,-2.517 4.139,-3.034 4.163,-3.595C4.192,-4.291 4.215,-4.929 4.233,-5.508C4.25,-6.088 4.27,-6.649 4.293,-7.19C4.317,-7.75 4.399,-9.7 4.423,-10.26C4.448,-10.84 4.475,-11.487 4.505,-12.202L4.656,-15.77C4.668,-16.06 4.681,-16.359 4.694,-16.669C4.707,-16.978 4.728,-17.282 4.755,-17.581C4.783,-17.88 4.818,-18.149 4.858,-18.39C4.9,-18.63 4.953,-18.816 5.02,-18.949C5.205,-19.329 5.479,-19.613 5.842,-19.8C6.204,-19.987 6.571,-20.101 6.943,-20.142C6.948,-20.238 6.953,-20.335 6.957,-20.431C4.642,-20.54 2.325,-20.627 0.008,-20.69C0.005,-20.593 0.003,-20.497 0,-20.4" style="fill:rgb(56,56,56);fill-rule:nonzero;"/>
        </g>
        <g transform="matrix(1,0,0,1,1551.3881,541.7628)">
            <path d="M0,20.337C1.59,20.381 3.193,20.437 4.786,20.503C4.686,20.46 4.589,20.413 4.496,20.363C4.135,20.168 3.854,19.844 3.66,19.399C3.565,19.186 3.52,18.843 3.518,18.321C3.516,17.844 3.527,17.323 3.551,16.758C3.581,16.063 3.604,15.426 3.621,14.847C3.638,14.267 3.659,13.705 3.681,13.163L4.082,3.684C4.095,3.371 4.117,3.062 4.144,2.759C4.172,2.454 4.209,2.178 4.25,1.932C4.296,1.662 4.356,1.456 4.435,1.3C4.642,0.875 4.956,0.55 5.366,0.338C5.509,0.265 5.654,0.202 5.799,0.149C4.124,0.074 2.43,0.009 0.742,-0.042C0.757,-0.036 0.773,-0.03 0.788,-0.025C1.198,0.136 1.551,0.515 1.836,1.103C1.967,1.395 2.037,1.758 2.046,2.186C2.056,2.585 2.061,2.969 2.064,3.337C2.057,3.983 2.046,4.556 2.028,5.06L1.921,8.149L1.921,8.173L1.906,8.593L1.653,8.584C-1.295,8.487 -4.283,8.427 -7.226,8.407L-7.479,8.405L-7.467,6.76C-7.467,6.714 -7.467,6.664 -7.466,6.61C-7.461,5.893 -7.452,5.141 -7.439,4.356C-7.427,3.57 -7.41,2.838 -7.39,2.159C-7.371,1.68 -7.283,1.275 -7.128,0.954C-6.971,0.632 -6.775,0.375 -6.547,0.19C-6.345,0.027 -6.12,-0.098 -5.876,-0.182C-7.577,-0.202 -9.289,-0.208 -10.994,-0.206C-10.899,-0.171 -10.807,-0.134 -10.719,-0.094C-10.361,0.07 -10.057,0.341 -9.816,0.709C-9.705,0.871 -9.624,1.088 -9.571,1.367C-9.523,1.62 -9.487,1.903 -9.463,2.209C-9.439,2.515 -9.427,2.847 -9.427,3.202L-9.42,11.601C-9.419,12.183 -9.423,12.751 -9.429,13.304L-9.45,14.83C-9.457,15.294 -9.46,15.661 -9.46,15.931C-9.46,16.244 -9.467,16.573 -9.481,16.915C-9.495,17.258 -9.513,17.575 -9.535,17.868C-9.558,18.167 -9.586,18.431 -9.624,18.66C-9.666,18.923 -9.721,19.103 -9.797,19.23C-9.995,19.542 -10.28,19.801 -10.648,20.007C-10.789,20.085 -10.933,20.156 -11.08,20.217C-9.455,20.208 -7.82,20.21 -6.201,20.224C-6.291,20.183 -6.382,20.137 -6.473,20.087C-6.831,19.886 -7.111,19.595 -7.306,19.222C-7.439,18.972 -7.51,18.573 -7.522,18.005C-7.532,17.48 -7.536,16.936 -7.532,16.372L-7.479,8.48L-7.226,8.481C-4.284,8.502 -1.298,8.562 1.65,8.659L1.904,8.667L1.688,14.893C1.665,15.572 1.635,16.23 1.598,16.87C1.59,17.098 1.578,17.343 1.562,17.596C1.545,17.851 1.526,18.095 1.503,18.329C1.481,18.566 1.455,18.774 1.426,18.952C1.383,19.221 1.34,19.323 1.311,19.377C1.165,19.669 0.888,19.922 0.467,20.142C0.324,20.217 0.167,20.282 0,20.337M5.865,21.057L5.614,21.046C3.409,20.948 1.177,20.871 -1.019,20.817L-1.272,20.81L-1.25,20.04L-1.026,20.021C-0.526,19.979 -0.102,19.869 0.232,19.694C0.551,19.527 0.763,19.341 0.862,19.144C0.866,19.135 0.893,19.08 0.926,18.872C0.954,18.703 0.978,18.505 0.999,18.281C1.021,18.051 1.041,17.812 1.057,17.564C1.072,17.316 1.084,17.076 1.092,16.847C1.129,16.205 1.159,15.551 1.182,14.875L1.38,9.156C-1.396,9.067 -4.205,9.011 -6.976,8.99L-7.026,16.375C-7.03,16.934 -7.026,17.474 -7.016,17.995C-7.003,18.592 -6.923,18.864 -6.858,18.986C-6.707,19.276 -6.5,19.491 -6.226,19.645C-5.938,19.806 -5.656,19.907 -5.387,19.944L-5.166,19.974L-5.178,20.741L-5.429,20.738C-7.538,20.715 -9.683,20.711 -11.805,20.729L-12.058,20.73L-12.063,19.982L-11.864,19.938C-11.53,19.863 -11.203,19.737 -10.895,19.565C-10.601,19.4 -10.377,19.198 -10.228,18.964C-10.208,18.931 -10.164,18.83 -10.124,18.579C-10.089,18.363 -10.061,18.113 -10.04,17.83C-10.018,17.542 -10.001,17.23 -9.987,16.894C-9.973,16.56 -9.966,16.238 -9.966,15.932C-9.966,15.659 -9.963,15.29 -9.956,14.823L-9.935,13.298C-9.929,12.747 -9.925,12.181 -9.926,11.601L-9.933,3.202C-9.933,2.86 -9.945,2.542 -9.967,2.248C-9.99,1.961 -10.024,1.696 -10.068,1.462C-10.107,1.255 -10.164,1.097 -10.237,0.991C-10.43,0.695 -10.656,0.492 -10.93,0.367C-11.221,0.233 -11.559,0.139 -11.934,0.086L-12.15,0.056L-12.158,-0.707L-11.902,-0.708C-9.615,-0.72 -7.298,-0.71 -5.013,-0.678L-4.76,-0.674L-4.772,0.081L-4.979,0.116C-5.186,0.151 -5.409,0.204 -5.642,0.274C-5.856,0.338 -6.053,0.443 -6.228,0.584C-6.399,0.722 -6.548,0.921 -6.672,1.175C-6.797,1.433 -6.868,1.77 -6.884,2.177C-6.905,2.852 -6.921,3.581 -6.933,4.364C-6.946,5.148 -6.955,5.898 -6.96,6.613L-6.963,6.981L-6.963,7.081L-6.969,7.902C-4.187,7.924 -1.369,7.981 1.417,8.07C1.417,8.057 1.418,8.044 1.418,8.03L1.522,5.043C1.54,4.542 1.551,3.973 1.558,3.337C1.555,2.976 1.55,2.594 1.54,2.198C1.532,1.837 1.477,1.54 1.377,1.316C1.153,0.855 0.891,0.559 0.603,0.447C0.277,0.32 -0.054,0.242 -0.38,0.216L-0.62,0.196L-0.598,-0.587L-0.344,-0.58C1.974,-0.516 4.315,-0.429 6.61,-0.321L6.865,-0.309L6.826,0.449L6.612,0.473C6.273,0.511 5.932,0.617 5.599,0.788C5.283,0.951 5.051,1.192 4.889,1.525C4.832,1.637 4.786,1.801 4.749,2.016C4.71,2.25 4.676,2.514 4.649,2.805C4.621,3.1 4.601,3.401 4.588,3.705L4.187,13.184C4.165,13.723 4.143,14.283 4.127,14.862C4.11,15.444 4.087,16.082 4.057,16.779C4.033,17.335 4.022,17.848 4.024,18.319C4.026,18.891 4.087,19.113 4.123,19.194C4.274,19.54 4.474,19.776 4.736,19.917C5.022,20.072 5.342,20.185 5.69,20.255L5.904,20.298L5.865,21.057Z" style="fill:rgb(56,56,56);fill-rule:nonzero;"/>
        </g>
        <g transform="matrix(1,0,0,1,1560.3401,563.5825)">
            <path d="M0,-21.769C-0.005,-21.673 -0.011,-21.576 -0.016,-21.48C0.395,-21.38 0.728,-21.279 0.984,-21.177C1.239,-21.076 1.474,-20.864 1.684,-20.542C1.77,-20.421 1.83,-20.228 1.868,-19.965C1.905,-19.701 1.925,-19.404 1.928,-19.075C1.931,-18.746 1.923,-18.398 1.909,-18.031C1.893,-17.664 1.875,-17.307 1.853,-16.96C1.735,-15.079 1.618,-13.198 1.5,-11.318C1.468,-10.797 1.433,-10.237 1.396,-9.639C1.36,-9.061 1.32,-8.497 1.279,-7.947C1.237,-7.398 1.198,-6.892 1.162,-6.43C1.126,-5.967 1.099,-5.601 1.082,-5.331C1.063,-5.022 1.036,-4.709 1.002,-4.392C0.968,-4.074 0.923,-3.772 0.869,-3.485C0.815,-3.197 0.759,-2.944 0.702,-2.724C0.645,-2.505 0.576,-2.34 0.497,-2.228C0.276,-1.93 0.004,-1.704 -0.316,-1.547C-0.637,-1.39 -0.979,-1.281 -1.344,-1.223C-1.349,-1.126 -1.355,-1.03 -1.36,-0.933C3.049,-0.71 7.454,-0.399 11.853,0C12.393,-1.802 12.94,-3.603 13.493,-5.402C13.416,-5.438 13.338,-5.474 13.261,-5.511C12.811,-4.719 12.387,-4.046 11.988,-3.491C11.589,-2.936 11.19,-2.472 10.791,-2.101C10.39,-1.729 9.986,-1.448 9.576,-1.26C9.167,-1.071 8.728,-0.956 8.26,-0.917C7.835,-0.873 7.432,-0.856 7.048,-0.866C6.664,-0.876 6.35,-0.889 6.105,-0.907C5.529,-0.949 4.999,-1.045 4.518,-1.194C4.036,-1.343 3.74,-1.555 3.629,-1.834C3.518,-2.112 3.464,-2.527 3.466,-3.079C3.469,-3.631 3.484,-4.215 3.513,-4.833C3.527,-5.025 3.54,-5.262 3.552,-5.542C3.564,-5.822 3.581,-6.116 3.603,-6.425C3.625,-6.752 3.717,-8.05 3.74,-8.378C3.763,-8.706 3.783,-8.995 3.801,-9.246C3.84,-9.805 3.878,-10.344 3.914,-10.865C3.951,-11.385 3.993,-11.779 4.042,-12.047C4.281,-12.032 4.475,-12.018 4.624,-12.008C4.788,-11.997 4.938,-11.987 5.072,-11.978C5.221,-11.967 5.371,-11.952 5.519,-11.932C5.667,-11.911 5.853,-11.884 6.076,-11.849C6.52,-11.778 6.904,-11.643 7.225,-11.444C7.547,-11.246 7.815,-11.002 8.031,-10.714C8.271,-10.366 8.486,-9.855 8.674,-9.182C8.863,-8.508 8.903,-6.89 8.967,-6.265C9.055,-6.258 9.143,-6.25 9.231,-6.243C9.526,-9.596 9.822,-12.948 10.118,-16.3C10.027,-16.308 9.937,-16.315 9.846,-16.323C9.708,-15.791 9.564,-15.314 9.414,-14.89C9.263,-14.467 9.08,-14.099 8.865,-13.787C8.649,-13.474 8.381,-13.215 8.063,-13.007C7.744,-12.8 7.355,-12.645 6.896,-12.544C6.697,-12.501 6.451,-12.475 6.157,-12.467C5.863,-12.459 5.569,-12.456 5.277,-12.457C4.984,-12.458 4.725,-12.466 4.501,-12.481C4.276,-12.496 4.127,-12.506 4.052,-12.511C4.057,-12.569 4.064,-12.675 4.075,-12.829C4.087,-13.003 4.1,-13.249 4.115,-13.567C4.13,-13.886 4.155,-14.295 4.19,-14.797C4.225,-15.298 4.269,-15.914 4.32,-16.647C4.409,-17.919 4.431,-18.065 4.522,-19.028C4.612,-19.99 4.684,-20.624 4.736,-20.93C4.892,-20.959 5.144,-20.976 5.492,-20.98C5.839,-20.986 6.174,-20.976 6.496,-20.953C7.51,-20.88 8.364,-20.755 9.06,-20.584C9.755,-20.412 10.227,-20.237 10.473,-20.061C11.501,-19.297 12.542,-17.887 13.574,-15.833C13.655,-15.874 13.735,-15.915 13.816,-15.956C13.46,-17.589 13.096,-19.222 12.725,-20.854C8.488,-21.236 4.246,-21.541 0,-21.769" style="fill:rgb(56,56,56);fill-rule:nonzero;"/>
        </g>
        <g transform="matrix(1,0,0,1,1568.9097,562.7669)">
            <path d="M0,-20.134C0.193,-20.097 0.377,-20.057 0.551,-20.014C1.284,-19.833 1.774,-19.649 2.051,-19.452C2.979,-18.761 3.907,-17.576 4.815,-15.922C4.531,-17.216 4.243,-18.509 3.949,-19.803C2.638,-19.92 1.32,-20.031 0,-20.134M-3.187,-11.388C-3.13,-11.382 -3.073,-11.375 -3.017,-11.367C-2.867,-11.347 -2.679,-11.319 -2.454,-11.283C-1.977,-11.207 -1.559,-11.059 -1.212,-10.844C-0.866,-10.631 -0.571,-10.364 -0.337,-10.051C-0.075,-9.672 0.154,-9.131 0.348,-8.434C0.444,-8.091 0.502,-7.541 0.545,-6.983L1.19,-14.306C1.154,-14.197 1.119,-14.092 1.082,-13.99C0.925,-13.547 0.73,-13.156 0.503,-12.827C0.272,-12.492 -0.021,-12.206 -0.368,-11.98C-0.713,-11.755 -1.134,-11.588 -1.62,-11.481C-1.835,-11.434 -2.092,-11.407 -2.406,-11.399C-2.662,-11.392 -2.92,-11.388 -3.176,-11.388L-3.187,-11.388ZM-9.183,-0.332C-7.311,-0.234 -5.429,-0.118 -3.548,0.013C-3.748,-0.029 -3.941,-0.079 -4.126,-0.136C-4.691,-0.311 -5.035,-0.569 -5.176,-0.925C-5.3,-1.236 -5.359,-1.675 -5.356,-2.264C-5.354,-2.82 -5.339,-3.408 -5.309,-4.03C-5.296,-4.226 -5.283,-4.46 -5.271,-4.738C-5.259,-5.019 -5.242,-5.316 -5.219,-5.627L-4.908,-10.067C-4.871,-10.603 -4.828,-10.999 -4.777,-11.277L-4.743,-11.458L-4.789,-11.461L-4.747,-12.031C-4.735,-12.204 -4.722,-12.448 -4.707,-12.763C-4.693,-13.083 -4.668,-13.495 -4.632,-13.999L-4.502,-15.849C-4.429,-16.88 -4.401,-17.174 -4.345,-17.758L-4.3,-18.236C-4.207,-19.219 -4.136,-19.847 -4.082,-20.158L-4.052,-20.333L-3.878,-20.364C-3.803,-20.378 -3.711,-20.389 -3.602,-20.397C-4.946,-20.488 -6.288,-20.572 -7.626,-20.648C-7.579,-20.631 -7.535,-20.614 -7.492,-20.597C-7.187,-20.476 -6.913,-20.229 -6.673,-19.865C-6.569,-19.716 -6.495,-19.492 -6.451,-19.185C-6.412,-18.906 -6.391,-18.596 -6.389,-18.262C-6.386,-17.928 -6.394,-17.576 -6.408,-17.205C-6.424,-16.836 -6.442,-16.477 -6.464,-16.129L-6.921,-8.808C-6.958,-8.228 -6.997,-7.663 -7.038,-7.113L-7.155,-5.595C-7.192,-5.133 -7.218,-4.768 -7.234,-4.499C-7.254,-4.187 -7.281,-3.87 -7.316,-3.549C-7.35,-3.224 -7.397,-2.916 -7.452,-2.622C-7.507,-2.329 -7.565,-2.069 -7.623,-1.845C-7.688,-1.593 -7.768,-1.404 -7.866,-1.266C-8.114,-0.933 -8.418,-0.678 -8.775,-0.504C-8.907,-0.439 -9.043,-0.382 -9.183,-0.332M-1.004,0.201C0.367,0.307 1.737,0.422 3.1,0.545C3.521,-0.859 3.947,-2.262 4.376,-3.664C4.116,-3.242 3.865,-2.862 3.624,-2.528C3.219,-1.963 2.804,-1.482 2.393,-1.1C1.974,-0.71 1.543,-0.411 1.112,-0.214C0.677,-0.014 0.206,0.109 -0.288,0.151C-0.531,0.176 -0.771,0.193 -1.004,0.201M3.466,1.086L3.26,1.067C-1.116,0.67 -5.558,0.357 -9.942,0.135L-10.195,0.123L-10.156,-0.624L-9.954,-0.657C-9.618,-0.711 -9.295,-0.812 -8.997,-0.958C-8.714,-1.097 -8.472,-1.3 -8.276,-1.564C-8.237,-1.618 -8.174,-1.738 -8.112,-1.973C-8.057,-2.187 -8.003,-2.435 -7.949,-2.715C-7.897,-2.996 -7.853,-3.293 -7.819,-3.603C-7.786,-3.916 -7.759,-4.226 -7.74,-4.531C-7.723,-4.802 -7.697,-5.17 -7.66,-5.634L-7.543,-7.151C-7.502,-7.699 -7.462,-8.262 -7.427,-8.84L-6.969,-16.16C-6.948,-16.505 -6.93,-16.861 -6.914,-17.226C-6.9,-17.588 -6.892,-17.932 -6.895,-18.258C-6.897,-18.57 -6.916,-18.858 -6.952,-19.114C-6.991,-19.391 -7.05,-19.521 -7.093,-19.581C-7.278,-19.863 -7.474,-20.045 -7.679,-20.127C-7.924,-20.224 -8.25,-20.322 -8.645,-20.418L-8.851,-20.467L-8.808,-21.22L-8.556,-21.206C-4.329,-20.979 -0.044,-20.671 4.178,-20.29L4.361,-20.274L4.402,-20.095C4.774,-18.461 5.137,-16.828 5.493,-15.195L5.535,-15.003L4.893,-14.677L4.779,-14.904C3.773,-16.904 2.755,-18.297 1.753,-19.043C1.605,-19.148 1.252,-19.32 0.43,-19.523C-0.256,-19.691 -1.105,-19.814 -2.092,-19.885C-2.407,-19.908 -2.737,-19.918 -3.074,-19.912C-3.32,-19.909 -3.492,-19.899 -3.612,-19.888C-3.66,-19.548 -3.721,-18.979 -3.795,-18.188L-3.841,-17.71C-3.897,-17.13 -3.925,-16.838 -3.997,-15.814L-4.127,-13.964C-4.162,-13.465 -4.187,-13.057 -4.201,-12.74C-4.216,-12.418 -4.23,-12.17 -4.243,-11.996L-4.247,-11.931L-4.052,-11.918C-3.832,-11.903 -3.579,-11.896 -3.292,-11.895C-3.003,-11.893 -2.711,-11.897 -2.42,-11.905C-2.142,-11.913 -1.909,-11.937 -1.728,-11.976C-1.302,-12.069 -0.937,-12.213 -0.645,-12.404C-0.354,-12.594 -0.108,-12.833 0.086,-13.115C0.288,-13.407 0.463,-13.758 0.605,-14.16C0.751,-14.569 0.894,-15.044 1.032,-15.571L1.086,-15.777L1.823,-15.715L0.891,-5.155L0.167,-5.214L0.146,-5.424C0.127,-5.608 0.11,-5.878 0.091,-6.184C0.047,-6.886 -0.013,-7.846 -0.139,-8.298C-0.319,-8.94 -0.523,-9.431 -0.748,-9.755C-0.939,-10.009 -1.186,-10.234 -1.478,-10.413C-1.768,-10.593 -2.124,-10.717 -2.534,-10.783C-2.754,-10.818 -2.938,-10.845 -3.085,-10.865C-3.227,-10.884 -3.371,-10.899 -3.514,-10.909L-4.314,-10.963C-4.346,-10.723 -4.376,-10.411 -4.403,-10.032L-4.715,-5.591C-4.736,-5.285 -4.753,-4.993 -4.765,-4.716C-4.777,-4.432 -4.79,-4.194 -4.804,-4C-4.833,-3.392 -4.848,-2.81 -4.85,-2.262C-4.852,-1.746 -4.803,-1.359 -4.705,-1.112C-4.625,-0.91 -4.38,-0.745 -3.977,-0.62C-3.517,-0.478 -3.002,-0.385 -2.445,-0.344C-2.205,-0.326 -1.894,-0.313 -1.516,-0.303C-1.146,-0.295 -0.749,-0.31 -0.335,-0.353C0.105,-0.39 0.519,-0.498 0.9,-0.674C1.282,-0.849 1.668,-1.117 2.049,-1.471C2.435,-1.83 2.827,-2.285 3.214,-2.823C3.604,-3.368 4.028,-4.04 4.471,-4.82L4.587,-5.024L5.23,-4.722L5.165,-4.512C4.613,-2.713 4.066,-0.913 3.526,0.888L3.466,1.086Z" style="fill:rgb(56,56,56);fill-rule:nonzero;"/>
        </g>
        <g transform="matrix(1,0,0,1,1595.9822,549.6224)">
            <path d="M0,12.865C0.377,10.722 0.754,8.579 1.13,6.436C1.234,5.848 1.329,5.308 1.416,4.814C1.505,4.302 1.592,3.809 1.676,3.335C1.759,2.861 1.845,2.392 1.934,1.929C2.024,1.465 2.11,0.996 2.193,0.522C2.285,0.089 2.378,-0.374 2.472,-0.866C2.566,-1.358 2.71,-1.754 2.904,-2.054C3.181,-2.476 3.516,-2.732 3.909,-2.823C4.3,-2.913 4.661,-2.959 4.991,-2.961C5.009,-3.056 5.026,-3.151 5.043,-3.245C2.768,-3.635 0.489,-4.003 -1.792,-4.348C-1.807,-4.253 -1.823,-4.158 -1.838,-4.062C-1.451,-3.945 -1.113,-3.791 -0.824,-3.601C-0.535,-3.41 -0.312,-3.136 -0.153,-2.78C-0.084,-2.633 -0.046,-2.437 -0.041,-2.192C-0.035,-1.947 -0.045,-1.676 -0.072,-1.378C-0.099,-1.08 -0.141,-0.76 -0.198,-0.419C-0.256,-0.076 -0.313,0.265 -0.371,0.607C-0.682,2.459 -0.993,4.311 -1.303,6.163C-1.39,6.676 -1.482,7.227 -1.581,7.816C-1.677,8.386 -1.773,8.941 -1.872,9.481C-1.97,10.021 -2.061,10.519 -2.145,10.973C-2.228,11.428 -2.293,11.789 -2.337,12.054C-2.388,12.358 -2.443,12.666 -2.503,12.979C-2.564,13.291 -2.628,13.588 -2.697,13.869C-2.766,14.151 -2.837,14.394 -2.908,14.597C-2.979,14.801 -3.059,14.954 -3.15,15.057C-3.419,15.347 -3.722,15.553 -4.058,15.678C-4.394,15.802 -4.747,15.876 -5.116,15.899C-5.132,15.994 -5.147,16.089 -5.162,16.184C-2.996,16.505 -0.833,16.848 1.328,17.213C1.345,17.118 1.363,17.023 1.38,16.929C1.087,16.84 0.77,16.68 0.429,16.448C0.088,16.216 -0.14,15.925 -0.255,15.574C-0.333,15.347 -0.335,14.976 -0.258,14.461C-0.183,13.947 -0.097,13.415 0,12.865" style="fill:rgb(56,56,56);fill-rule:nonzero;"/>
        </g>
        <g transform="matrix(1,0,0,1,1591.5928,546.4471)">
            <path d="M0,19.219C1.651,19.468 3.306,19.73 4.941,20.001C4.854,19.949 4.766,19.893 4.676,19.832C4.29,19.569 4.026,19.231 3.894,18.828C3.802,18.564 3.797,18.161 3.88,17.6C3.957,17.084 4.043,16.549 4.14,15.997L5.816,6.466C5.899,5.991 5.986,5.521 6.075,5.056C6.164,4.594 6.251,4.127 6.334,3.654C6.426,3.213 6.519,2.752 6.614,2.261C6.713,1.741 6.87,1.311 7.081,0.984C7.394,0.506 7.784,0.211 8.241,0.106C8.352,0.08 8.46,0.058 8.567,0.039C6.867,-0.248 5.155,-0.524 3.458,-0.785C3.544,-0.738 3.626,-0.689 3.705,-0.637C4.033,-0.42 4.29,-0.107 4.468,0.292C4.551,0.47 4.596,0.696 4.602,0.977C4.607,1.242 4.596,1.525 4.569,1.82C4.542,2.124 4.499,2.45 4.441,2.799L3.058,11.033C2.962,11.604 2.865,12.16 2.767,12.702L2.494,14.195C2.41,14.647 2.346,15.007 2.302,15.271C2.25,15.578 2.195,15.888 2.135,16.202C2.074,16.519 2.009,16.82 1.939,17.105C1.867,17.396 1.793,17.646 1.721,17.855C1.639,18.092 1.544,18.269 1.43,18.399C1.13,18.722 0.793,18.953 0.42,19.09C0.283,19.141 0.143,19.184 0,19.219M5.921,20.679L5.675,20.637C3.538,20.277 1.357,19.931 -0.809,19.61L-1.062,19.573L-0.946,18.834L-0.743,18.821C-0.399,18.8 -0.068,18.731 0.244,18.616C0.542,18.505 0.814,18.318 1.054,18.06C1.097,18.011 1.169,17.902 1.242,17.689C1.311,17.492 1.38,17.257 1.447,16.984C1.515,16.707 1.578,16.414 1.638,16.106C1.697,15.796 1.752,15.49 1.802,15.187C1.847,14.921 1.912,14.559 1.995,14.103L2.268,12.611C2.367,12.072 2.463,11.517 2.559,10.949L3.941,2.715C3.997,2.38 4.039,2.067 4.065,1.775C4.09,1.498 4.101,1.233 4.096,0.988C4.091,0.781 4.062,0.618 4.008,0.502C3.865,0.184 3.676,-0.049 3.426,-0.214C3.158,-0.391 2.839,-0.535 2.478,-0.645L2.265,-0.709L2.388,-1.46L2.636,-1.423C4.902,-1.08 7.204,-0.709 9.475,-0.319L9.728,-0.276L9.591,0.466L9.382,0.467C9.071,0.469 8.726,0.514 8.355,0.599C8.025,0.675 7.747,0.891 7.505,1.26C7.331,1.531 7.198,1.9 7.111,2.357C7.016,2.851 6.922,3.315 6.831,3.75C6.749,4.217 6.662,4.687 6.572,5.152C6.483,5.614 6.397,6.081 6.314,6.554L4.639,16.084C4.542,16.632 4.456,17.162 4.381,17.674C4.295,18.262 4.329,18.538 4.374,18.666C4.473,18.969 4.664,19.212 4.961,19.413C5.279,19.631 5.576,19.781 5.842,19.862L6.058,19.927L5.921,20.679Z" style="fill:rgb(56,56,56);fill-rule:nonzero;"/>
        </g>
        <g transform="matrix(1,0,0,1,1604.8672,560.2829)">
            <path d="M0,-3.179C0.598,-4.253 1.157,-5.248 1.676,-6.166C2.195,-7.082 1.622,-5.992 2.046,-6.716C2.469,-7.439 2.827,-8.054 3.12,-8.561C3.412,-9.068 3.634,-9.437 3.78,-9.67C3.787,-9.603 3.795,-9.528 3.803,-9.455C3.795,-9.457 3.786,-9.458 3.778,-9.459C3.778,-9.459 3.985,-6.074 4.233,-2.343C2.823,-2.632 1.412,-2.91 0,-3.179M8.558,9.082C8.348,8.873 8.183,8.648 8.065,8.409C7.946,8.169 7.858,7.942 7.802,7.727C7.746,7.512 7.712,7.363 7.702,7.279C7.646,6.741 7.595,6.259 7.549,5.834C7.503,5.409 7.469,4.88 7.448,4.248C7.38,2.958 7.31,1.653 7.238,0.333C7.167,-0.987 7.09,-2.353 7.005,-3.766C6.921,-5.179 6.823,-6.65 6.712,-8.178C6.601,-9.706 6.478,-11.322 6.342,-13.026C6.279,-13.039 6.216,-13.052 6.153,-13.065C6.061,-12.942 5.932,-12.787 5.768,-12.598C5.604,-12.41 5.411,-12.217 5.188,-12.02C4.965,-11.823 4.717,-11.641 4.445,-11.474C4.173,-11.306 3.88,-11.173 3.566,-11.074C3.599,-10.846 3.632,-10.617 3.665,-10.389C3.061,-9.379 2.421,-8.291 1.745,-7.122C1.07,-5.953 0.398,-4.793 -0.27,-3.641C-0.938,-2.488 -0.563,-3.286 -1.191,-2.196C-1.823,-1.107 -3.385,1.793 -3.872,2.651C-4.407,3.58 -4.839,4.277 -5.172,4.74C-5.505,5.204 -5.735,5.496 -5.864,5.613C-5.923,5.684 -6.108,5.802 -6.421,5.969C-6.732,6.136 -7.084,6.216 -7.477,6.209C-7.496,6.316 -7.516,6.423 -7.536,6.53C-5.974,6.795 -4.414,7.073 -2.856,7.363C-2.837,7.266 -2.817,7.169 -2.798,7.072C-2.981,6.998 -3.173,6.916 -3.376,6.829C-3.579,6.741 -3.761,6.628 -3.923,6.487C-4.086,6.347 -4.21,6.184 -4.295,5.998C-4.38,5.811 -4.399,5.592 -4.349,5.339C-4.266,4.913 -3.968,4.202 -3.451,3.21C-3.109,2.568 -2.767,1.931 -2.425,1.3C-2.085,0.669 -0.71,-1.914 -0.329,-2.607C1.208,-2.316 2.743,-2.013 4.276,-1.698C4.463,1.049 4.667,3.88 4.888,5.634C4.89,5.885 4.889,6.113 4.883,6.318C4.873,6.73 4.849,7.023 4.809,7.196C4.746,7.467 4.626,7.673 4.447,7.817C4.269,7.961 4.077,8.062 3.873,8.12C3.668,8.178 3.478,8.209 3.301,8.213C3.125,8.217 3.015,8.214 2.971,8.205C2.95,8.301 2.928,8.398 2.906,8.494C5.035,8.935 7.161,9.398 9.282,9.886C9.31,9.771 9.339,9.656 9.368,9.541C9.037,9.445 8.768,9.292 8.558,9.082" style="fill:rgb(56,56,56);fill-rule:nonzero;"/>
        </g>
        <g transform="matrix(1,0,0,1,1605.219,560.4686)">
            <path d="M0,-3.529C1.212,-3.297 2.425,-3.057 3.635,-2.811C3.454,-5.536 3.298,-8.031 3.232,-9.092C3.151,-8.954 3.062,-8.802 2.965,-8.634C2.672,-8.126 2.313,-7.511 1.89,-6.787C1.784,-6.606 1.712,-6.483 1.631,-6.431C1.602,-6.38 1.566,-6.318 1.521,-6.24C1.048,-5.401 0.54,-4.498 0,-3.529M3.266,8.225C4.986,8.585 6.719,8.963 8.432,9.353C8.287,9.269 8.159,9.17 8.046,9.057C7.819,8.831 7.638,8.584 7.509,8.324C7.384,8.071 7.289,7.827 7.231,7.598C7.171,7.37 7.136,7.211 7.124,7.122C7.068,6.579 7.017,6.097 6.971,5.672C6.925,5.241 6.891,4.702 6.87,4.07L6.66,0.16C6.589,-1.16 6.511,-2.526 6.427,-3.938C6.342,-5.351 6.244,-6.82 6.134,-8.347C6.03,-9.778 5.915,-11.286 5.789,-12.872C5.729,-12.799 5.662,-12.72 5.587,-12.635C5.419,-12.441 5.217,-12.24 4.986,-12.036C4.756,-11.832 4.496,-11.64 4.213,-11.466C3.979,-11.322 3.729,-11.201 3.466,-11.105L3.549,-10.528L3.508,-10.458C2.905,-9.449 2.265,-8.362 1.59,-7.194C1.543,-7.112 1.496,-7.031 1.448,-6.949C1.454,-6.953 1.459,-6.956 1.465,-6.959C1.475,-6.977 1.486,-6.996 1.498,-7.016C1.921,-7.74 2.279,-8.354 2.572,-8.861C2.832,-9.312 3.037,-9.656 3.183,-9.892L3.182,-9.909L3.193,-9.907C3.208,-9.932 3.222,-9.955 3.236,-9.977L3.582,-10.529L3.707,-9.375L3.67,-9.38C3.724,-8.498 3.902,-5.64 4.108,-2.544L4.127,-2.246L3.835,-2.306C2.428,-2.595 1.017,-2.873 -0.394,-3.141L-0.703,-3.2L-0.55,-3.475C-0.438,-3.677 -0.327,-3.876 -0.217,-4.073C-0.287,-3.952 -0.356,-3.833 -0.425,-3.713C-0.773,-3.112 -0.848,-3.024 -0.926,-2.931C-0.984,-2.861 -1.046,-2.789 -1.346,-2.268C-1.718,-1.626 -2.413,-0.358 -3.025,0.761C-3.448,1.533 -3.827,2.226 -4.027,2.577C-4.578,3.534 -5.007,4.224 -5.339,4.687C-5.69,5.176 -5.92,5.464 -6.062,5.595C-6.1,5.643 -6.219,5.745 -6.665,5.983C-6.868,6.092 -7.088,6.168 -7.323,6.211C-6.179,6.407 -5.028,6.611 -3.887,6.82C-4.083,6.729 -4.264,6.612 -4.424,6.473C-4.609,6.313 -4.754,6.122 -4.854,5.906C-4.958,5.677 -4.983,5.41 -4.924,5.11C-4.835,4.653 -4.534,3.936 -4.004,2.919C-3.662,2.275 -3.319,1.638 -2.977,1.006L-2.323,-0.215C-1.793,-1.207 -1.127,-2.452 -0.881,-2.902L-0.801,-3.047L-0.639,-3.016C0.899,-2.725 2.435,-2.422 3.97,-2.107L4.139,-2.072L4.151,-1.899C4.328,0.703 4.536,3.629 4.762,5.42C4.765,5.7 4.764,5.931 4.759,6.138C4.748,6.573 4.721,6.875 4.678,7.062C4.604,7.381 4.456,7.632 4.239,7.808C4.035,7.971 3.815,8.087 3.583,8.153C3.474,8.184 3.369,8.208 3.266,8.225M9.097,9.972L8.879,9.921C6.771,9.437 4.628,8.969 2.508,8.531L2.281,8.484L2.447,7.753L2.664,7.797C2.704,7.803 2.796,7.803 2.945,7.8C3.101,7.797 3.274,7.769 3.459,7.716C3.632,7.667 3.799,7.579 3.953,7.454C4.092,7.343 4.185,7.18 4.236,6.959C4.271,6.805 4.294,6.524 4.304,6.126C4.309,5.924 4.31,5.698 4.309,5.449C4.089,3.713 3.885,0.868 3.709,-1.696C2.287,-1.988 0.864,-2.268 -0.561,-2.539C-0.851,-2.006 -1.442,-0.9 -1.922,-0.001L-2.577,1.222C-2.919,1.854 -3.261,2.489 -3.602,3.13C-4.103,4.093 -4.399,4.789 -4.478,5.197C-4.518,5.401 -4.506,5.576 -4.441,5.717C-4.369,5.873 -4.263,6.012 -4.127,6.129C-3.983,6.255 -3.819,6.357 -3.638,6.434C-3.436,6.522 -3.245,6.602 -3.064,6.676L-2.889,6.747L-3.029,7.442L-3.25,7.4C-4.797,7.112 -6.371,6.832 -7.926,6.569L-8.153,6.53L-8.016,5.793L-7.825,5.796C-7.476,5.805 -7.158,5.732 -6.88,5.583C-6.477,5.368 -6.4,5.293 -6.388,5.281C-6.289,5.187 -6.111,4.983 -5.708,4.422C-5.385,3.971 -4.964,3.294 -4.421,2.352C-4.223,2.003 -3.845,1.312 -3.424,0.544C-2.81,-0.578 -2.114,-1.849 -1.74,-2.495C-1.419,-3.051 -1.349,-3.135 -1.274,-3.224C-1.214,-3.294 -1.146,-3.374 -0.819,-3.94C-0.151,-5.093 0.521,-6.253 1.197,-7.421C1.857,-8.565 2.484,-9.631 3.077,-10.622L2.962,-11.418L3.146,-11.476C3.44,-11.569 3.719,-11.696 3.975,-11.853C4.235,-12.013 4.475,-12.19 4.685,-12.376C4.901,-12.566 5.089,-12.754 5.245,-12.933C5.405,-13.117 5.53,-13.269 5.62,-13.388L5.707,-13.501L6.203,-13.399L6.217,-13.23C6.352,-11.525 6.475,-9.909 6.587,-8.38C6.698,-6.85 6.795,-5.379 6.88,-3.966C6.964,-2.552 7.042,-1.186 7.113,0.135L7.323,4.05C7.344,4.676 7.377,5.203 7.423,5.623C7.469,6.049 7.52,6.531 7.576,7.07C7.585,7.143 7.618,7.283 7.67,7.484C7.721,7.683 7.804,7.897 7.916,8.122C8.023,8.338 8.175,8.544 8.367,8.736C8.551,8.92 8.784,9.051 9.079,9.137L9.289,9.198L9.097,9.972Z" style="fill:rgb(56,56,56);fill-rule:nonzero;"/>
        </g>
        <g transform="matrix(1,0,0,1,1455.0835,560.6566)">
            <path d="M0,1.669L-0.011,1.842C-0.054,2.493 -0.141,2.983 -0.269,3.295C-0.389,3.586 -0.528,3.782 -0.68,3.881C-0.848,3.988 -1.134,4.077 -1.533,4.144L-2.065,4.232C-2.562,4.316 -2.712,4.273 -2.746,4.256C-2.827,4.22 -2.881,4.158 -2.914,4.066C-2.961,3.94 -3.035,3.578 -3.135,2.988L-3.862,-1.353C-4.003,-2.19 -4.027,-2.507 -4.023,-2.627C-4.02,-2.714 -4.006,-2.829 -3.946,-2.882C-3.929,-2.896 -3.83,-2.971 -3.395,-3.042L-2.871,-3.132L-2.988,-3.846L-6.785,-3.208L-6.664,-2.491L-6.293,-2.557C-5.839,-2.633 -5.729,-2.588 -5.715,-2.58C-5.655,-2.551 -5.6,-2.471 -5.557,-2.347C-5.515,-2.223 -5.436,-1.909 -5.302,-1.111L-4.62,2.954C-4.48,3.791 -4.451,4.12 -4.451,4.247C-4.452,4.388 -4.482,4.491 -4.544,4.558C-4.573,4.589 -4.68,4.671 -5.021,4.728L-5.442,4.802L-5.322,5.515L1.055,4.445L0.635,1.561L0,1.669Z" style="fill:rgb(56,56,56);fill-rule:nonzero;"/>
        </g>
        <g transform="matrix(1,0,0,1,1458.1661,559.7388)">
            <path d="M0,1.151L0.484,-1.666L1.864,0.839L0,1.151ZM5.655,3.364L5.46,3.373C5.248,3.386 5.102,3.354 5.005,3.291C4.894,3.218 4.793,3.104 4.707,2.952L0.723,-4.188L0.215,-4.101L-0.882,2.144C-0.963,2.591 -1.005,2.844 -1.011,2.898C-1.137,3.719 -1.251,4.059 -1.325,4.2C-1.415,4.376 -1.581,4.506 -1.831,4.598L-2.002,4.66L-1.888,5.339L0.627,4.917L0.507,4.202L0.289,4.239C0.121,4.266 -0.02,4.244 -0.138,4.168C-0.249,4.098 -0.318,3.974 -0.349,3.789C-0.373,3.648 -0.365,3.276 -0.195,2.302L-0.129,1.9L2.222,1.506L2.942,2.816C3.242,3.353 3.284,3.481 3.289,3.506C3.31,3.635 3.273,3.663 3.258,3.675C3.222,3.7 3.093,3.769 2.681,3.839L2.464,3.875L2.584,4.59L5.771,4.055L5.655,3.364Z" style="fill:rgb(56,56,56);fill-rule:nonzero;"/>
        </g>
        <g transform="matrix(1,0,0,1,1507.8295,541.5062)">
            <path d="M0,31.811C-16.644,32.969 -33.258,35.127 -49.794,38.298L-50.691,33.623L-51.468,33.669C-57.907,34.039 -63.958,28.999 -65.56,21.915C-67.202,14.659 -63.471,7.601 -56.881,5.499L-56.132,5.259L-57.107,0.176C-38.01,-3.406 -18.826,-5.759 0.384,-6.888L-1.199,-8.565C-20.284,-7.381 -39.341,-4.998 -58.31,-1.401L-59.183,-1.236L-58.166,4.069C-65.173,6.731 -69.075,14.421 -67.29,22.305C-65.562,29.942 -59.139,35.463 -52.151,35.462L-52.144,35.462L-51.202,40.376L-50.329,40.207C-33.461,36.936 -16.511,34.724 0.469,33.557L0,31.811Z" style="fill:rgb(56,56,56);fill-rule:nonzero;"/>
        </g>
        <g transform="matrix(1,0,0,1,1620.9037,569.4187)">
            <path d="M0,-23.833L0.971,-28.949L0.102,-29.116C-16.201,-32.246 -32.571,-34.48 -48.97,-35.827L-49.989,-34.129C-33.652,-32.819 -17.344,-30.627 -1.101,-27.54L-2.047,-22.559L-1.245,-22.349C5.695,-20.534 9.826,-13.353 8.158,-6.002C6.534,1.16 0.073,6.175 -6.522,5.434L-7.34,5.341L-8.21,9.925C-23.745,7.043 -39.343,5.053 -54.963,3.943L-55.523,5.679C-39.534,6.798 -23.568,8.846 -7.667,11.831L-6.798,11.994L-5.901,7.265C1.39,7.631 8.103,2.26 9.888,-5.609C11.705,-13.616 7.388,-21.45 0,-23.833" style="fill:rgb(56,56,56);fill-rule:nonzero;"/>
        </g>
        <g transform="matrix(1,0,0,1,1512.816,545.4244)">
            <path d="M0,24.671C-17.594,25.69 -35.136,27.815 -52.522,31.049C-52.742,29.874 -52.962,28.7 -53.182,27.526C-53.209,27.382 -53.236,27.237 -53.263,27.093C-53.411,27.104 -53.558,27.115 -53.706,27.126C-56.762,27.359 -59.894,26.48 -62.367,24.682C-64.852,22.903 -66.646,20.225 -67.28,17.266C-67.927,14.311 -67.392,11.112 -65.732,8.455C-64.099,5.788 -61.354,3.708 -58.203,2.771C-58.102,2.741 -58,2.71 -57.898,2.68C-57.916,2.584 -57.934,2.489 -57.953,2.393C-58.21,1.039 -58.467,-0.314 -58.724,-1.667C-44.821,-4.289 -30.822,-6.256 -16.771,-7.564C-30.949,-6.445 -45.095,-4.658 -59.16,-2.202C-59.268,-2.183 -59.376,-2.164 -59.484,-2.145C-59.466,-2.045 -59.448,-1.945 -59.43,-1.845C-59.188,-0.482 -58.945,0.881 -58.703,2.245C-61.907,3.247 -64.712,5.366 -66.412,8.093C-68.194,10.893 -68.793,14.294 -68.125,17.445C-67.474,20.601 -65.576,23.483 -62.93,25.409C-60.417,27.266 -57.244,28.227 -54.095,28.118C-53.877,29.323 -53.659,30.529 -53.441,31.735C-53.411,31.902 -53.381,32.069 -53.351,32.235C-53.182,32.204 -53.012,32.173 -52.843,32.142C-36.442,29.126 -19.907,27.104 -3.327,26.062C-2.535,25.647 -1.45,25.162 0,24.671" style="fill:rgb(56,56,56);fill-rule:nonzero;"/>
        </g>
        <g transform="matrix(1,0,0,1,1625.335,561.9083)">
            <path d="M0,-8.395C-1.842,-11.14 -4.849,-13.218 -8.21,-14.105C-7.977,-15.425 -7.743,-16.746 -7.51,-18.066C-7.492,-18.164 -7.475,-18.261 -7.458,-18.358C-7.565,-18.377 -7.672,-18.397 -7.778,-18.416C-21.607,-20.879 -35.516,-22.693 -49.461,-23.859C-35.642,-22.507 -21.877,-20.518 -8.208,-17.897C-8.458,-16.581 -8.708,-15.265 -8.957,-13.95C-8.976,-13.851 -8.995,-13.752 -9.013,-13.654C-8.905,-13.627 -8.797,-13.6 -8.689,-13.574C-5.383,-12.754 -2.439,-10.712 -0.668,-8.027C1.132,-5.352 1.741,-2.09 1.078,0.909C0.432,3.914 -1.462,6.613 -4.076,8.35C-6.677,10.106 -9.961,10.873 -13.109,10.48C-13.265,10.46 -13.422,10.441 -13.579,10.421C-13.607,10.573 -13.635,10.724 -13.663,10.875C-13.876,12.012 -14.088,13.149 -14.3,14.286C-30.202,11.39 -46.231,9.421 -62.306,8.375C-60.804,8.918 -59.932,9.412 -59.458,9.737C-44.233,10.784 -29.048,12.657 -13.972,15.371C-13.801,15.402 -13.63,15.432 -13.459,15.464C-13.429,15.298 -13.399,15.132 -13.369,14.967C-13.16,13.806 -12.951,12.645 -12.743,11.484C-9.494,11.749 -6.169,10.897 -3.527,9.083C-0.741,7.202 1.263,4.295 1.927,1.091C2.61,-2.108 1.931,-5.577 0,-8.395" style="fill:rgb(56,56,56);fill-rule:nonzero;"/>
        </g>
    </g>
</svg>
