<?xml version="1.0" encoding="UTF-8" standalone="no"?>
<!DOCTYPE svg PUBLIC "-//W3C//DTD SVG 1.1//EN" "http://www.w3.org/Graphics/SVG/1.1/DTD/svg11.dtd">
<svg width="100%" height="100%" viewBox="0 0 500 200" version="1.1" xmlns="http://www.w3.org/2000/svg" xmlns:xlink="http://www.w3.org/1999/xlink" xml:space="preserve" xmlns:serif="http://www.serif.com/" style="fill-rule:evenodd;clip-rule:evenodd;stroke-linejoin:round;stroke-miterlimit:2;">
    <g transform="matrix(1.487402,0,0,1.487402,-1402.302608,-1067.535779)">
        <g transform="matrix(0.514274,0,0,0.514274,871.344243,715.407258)">
            <g transform="matrix(1,0,0,1,151.49344,104.96404)">
                <path d="M533.144,38.709L541.485,14.489L549.631,38.709L533.144,38.709ZM443.224,28.085L438.716,28.085L438.716,4.932L442.461,4.932C449.089,4.932 453.539,9.198 453.539,17.082C453.539,21.421 450.144,28.085 443.224,28.085ZM392.67,38.71L401.01,14.49L409.156,38.71L392.67,38.71ZM628.503,4.933L628.503,2.946L600.453,2.946L600.453,4.932L604.807,4.932L604.807,43.174L578.667,2.946L566.502,2.946L566.502,4.932L570.843,4.932L570.843,56.206L563.313,56.206L544.358,0.521L524.79,56.206L517.535,56.206L517.535,4.932L521.895,4.932L521.895,2.946L510.392,2.946L495.892,44.959L480.682,2.946L469.4,2.946L469.4,4.932L473.75,4.932L473.75,56.206L465.116,56.206C462.671,56.206 460.531,54.023 460.531,50.322L460.531,42.236C460.531,36.039 458.524,30.851 452.319,29.091C457.716,27.456 461.486,22.294 461.486,16.776C461.486,8.92 455.625,2.946 444.294,2.946L427.269,2.946L427.269,4.932L431.611,4.932L431.611,56.206L422.837,56.206L403.883,0.521L384.314,56.206L380.456,56.206L380.456,58.192L391.388,58.192L391.388,56.206L386.558,56.206L392.015,40.658L409.788,40.658L414.991,56.206L408.313,56.206L408.313,58.192L445.44,58.192L445.44,56.206L438.716,56.206L438.716,30.072L443.224,30.072C449.807,30.072 453.119,32.769 453.119,39.164L453.119,43.904C453.119,55.17 460.538,58.192 464.581,58.192L480.475,58.192L480.475,56.206L475.737,56.206L475.737,10.796L493.577,58.782L510.429,9.371L510.429,56.206L506.078,56.206L506.078,58.192L531.864,58.192L531.864,56.206L527.034,56.206L532.492,40.658L550.263,40.658L555.467,56.206L548.789,56.206L548.789,58.192L577.2,58.192L577.2,56.206L572.829,56.206L572.829,7.766L606.795,60L606.795,4.932L617.041,4.932L617.041,56.206L612.685,56.206L612.685,58.192L628.503,58.192L628.503,56.206L624.147,56.206L624.147,4.932L628.503,4.933ZM198.683,28.089L194.174,28.089L194.174,4.936L197.918,4.936C204.547,4.936 208.998,9.202 208.998,17.086C208.998,21.425 205.602,28.089 198.683,28.089ZM224.813,4.936L229.17,4.936L229.17,56.21L220.574,56.21C218.128,56.21 215.99,54.027 215.99,50.327L215.99,42.24C215.99,36.044 213.982,30.856 207.777,29.096C213.175,27.461 216.944,22.298 216.944,16.781C216.944,8.924 211.082,2.951 199.751,2.951L182.726,2.951L182.726,4.937L187.068,4.937L187.068,56.212L182.726,56.212L182.726,58.196L200.898,58.196L200.898,56.212L194.174,56.212L194.174,30.076L198.683,30.076C205.263,30.076 208.576,32.772 208.576,39.166L208.576,43.908C208.576,55.173 215.996,58.195 220.039,58.195L240.632,58.195L240.632,56.21L236.276,56.21L236.276,4.936L240.632,4.937L240.632,2.95L224.814,2.95L224.814,4.936L224.813,4.936ZM266.704,57.61C252.746,57.61 251.956,39.318 251.956,30.61C251.956,21.975 252.996,3.613 266.704,3.613C280.384,3.613 281.528,21.979 281.528,30.611C281.528,39.247 280.638,57.611 266.704,57.611L266.704,57.61ZM266.704,1.625C252.136,1.625 242.711,17.797 242.711,30.611C242.711,44.611 252.923,59.521 266.704,59.521C280.477,59.521 290.699,45.508 290.699,30.611C290.699,17.784 280.5,1.625 266.704,1.625ZM156.587,57.61C142.629,57.61 141.839,39.318 141.839,30.61C141.839,21.975 142.88,3.613 156.587,3.613C170.266,3.613 171.411,21.979 171.411,30.611C171.411,39.247 170.52,57.611 156.587,57.611L156.587,57.61ZM156.587,1.625C142.017,1.625 132.594,17.797 132.594,30.611C132.594,44.611 142.804,59.521 156.587,59.521C170.359,59.521 180.581,45.508 180.581,30.611C180.581,17.784 170.383,1.625 156.587,1.625Z" style="fill:rgb(56,56,56);fill-rule:nonzero;"/>
            </g>
            <g transform="matrix(1,0,0,1,151.49344,104.96404)">
                <path d="M98.702,56.21L88.27,56.21L88.27,4.938L98.703,4.938L98.703,56.211L98.702,56.21ZM105.885,4.938L108.637,4.938C116.252,4.938 121.015,8.788 121.015,19.457C121.015,29.101 117.357,33.668 108.637,33.668L105.885,33.668L105.885,4.938ZM110.164,35.656C122.801,35.656 129.038,28.576 129.038,19.456C129.038,10.677 123.599,2.951 110.164,2.951L81.126,2.951L66.626,44.962L51.416,2.951L40.135,2.951L40.135,4.937L44.485,4.937L44.485,56.21L40.135,56.21L40.135,58.196L51.21,58.196L51.21,56.21L46.47,56.21L46.47,10.8L64.31,58.786L81.164,9.376L81.164,56.21L76.81,56.21L76.81,58.196L110.24,58.196L110.24,56.21L105.884,56.21L105.884,35.655L110.163,35.655L110.164,35.656ZM36.684,17.928L34.774,17.928C34.774,10.038 32.685,4.937 23.594,4.937L11.45,4.937L11.45,29.313L14.85,29.313C20.782,29.313 23.256,26.287 23.256,20.984L25.166,20.984L25.166,39.627L23.256,39.627C23.256,34.392 20.782,31.299 14.85,31.299L11.45,31.299L11.45,56.21L19.811,56.21C32.734,56.21 34.773,49.921 34.773,41.691L36.683,41.691L36.683,58.196L0,58.196L0,56.21L4.345,56.21L4.345,4.938L0,4.938L0,2.95L36.684,2.95L36.684,17.928M347.663,9.598C348.027,8.235 349.063,8.282 350.625,8.282L354.503,8.282C354.167,4.98 350.437,2.912 348.883,2.912L333.496,2.91C333.239,2.91 333.096,3.102 332.978,3.302C332.883,3.462 331.113,6.034 331.146,9.418L331.149,9.598L347.663,9.598M311.33,2.937L283.662,2.937C283.592,3.287 283.557,3.643 283.556,4C283.556,7.699 287.501,9.596 287.501,9.596L316.906,9.596L311.331,2.936M319.464,12.651L291.796,12.651C291.726,13.001 291.69,13.357 291.689,13.714C291.689,17.414 295.636,19.31 295.636,19.31L325.038,19.31L319.464,12.651M398.525,2.937L370.848,2.937L365.268,9.597L394.685,9.597C394.685,9.597 398.631,7.699 398.631,4C398.631,3.643 398.595,3.287 398.525,2.937M362.723,12.651L357.135,19.31L386.552,19.31C386.552,19.31 390.498,17.413 390.498,13.714C390.497,13.357 390.461,13.001 390.391,12.651L362.723,12.651M308.052,32.069C307.981,32.436 307.946,32.789 307.946,33.132C307.946,36.83 311.892,38.727 311.892,38.727L325.667,38.727C327.034,36.085 329.453,33.912 332.847,33.912C334.008,33.912 334.767,34.312 335.32,34.602C335.643,34.774 335.899,34.908 336.122,34.908C336.744,34.908 337.039,34.664 337.14,34.068L337.152,33.99L337.916,33.99L337.916,38.727L346.275,38.727L348.078,33.598L348.164,33.349C348.164,33.349 348.961,35.687 349.994,38.727L370.297,38.727C370.297,38.727 374.243,36.83 374.243,33.132C374.243,32.789 374.209,32.436 374.137,32.069L308.052,32.069" style="fill:rgb(56,56,56);fill-rule:nonzero;"/>
            </g>
            <g transform="matrix(1,0,0,1,151.49344,104.96404)">
                <path d="M332.86,34.77C330.165,34.77 328.877,36.629 328.258,38.727L336.888,38.727C336.186,36.007 334.447,34.77 332.86,34.77M327.689,43.864C327.689,45.66 327.826,47.182 328.099,48.439L336.109,48.439L336.109,45.984L334.369,45.984L334.369,45.124L340.191,45.124L340.191,45.984L338.709,45.984L338.709,48.439L342.861,48.439L345.201,41.78L327.748,41.78C327.703,42.474 327.683,43.169 327.688,43.864M362.172,48.44C362.172,48.44 366.118,46.542 366.118,42.844C366.118,42.502 366.083,42.149 366.012,41.78L351.034,41.78L353.3,48.44L362.172,48.44M324.584,41.78L316.18,41.78C316.11,42.13 316.074,42.487 316.073,42.844C316.073,46.542 320.02,48.439 320.02,48.439L325.424,48.439C324.732,46.923 324.361,45.296 324.361,43.864C324.361,43.2 324.436,42.496 324.584,41.78M332.51,52.957C333.794,52.957 334.781,52.351 335.395,51.499L329.396,51.499C330.168,52.474 331.203,52.957 332.509,52.957" style="fill:rgb(56,56,56);fill-rule:nonzero;"/>
            </g>
            <g transform="matrix(1,0,0,1,151.49344,104.96404)">
                <path d="M356.756,52.48L356.756,53.338L349.579,53.338L349.579,52.481L351.815,52.481L351.486,51.499L342.743,51.499L342.398,52.481L344.003,52.481L344.003,53.338L340.103,53.338L340.103,52.481L341.441,52.481L341.786,51.499L338.709,51.499L338.709,53.339L337.849,53.339L337.841,53.257C337.781,52.611 337.463,52.194 337.032,52.194C336.354,52.194 335.928,52.488 335.436,52.827C334.781,53.277 334.04,53.789 332.509,53.789C330.496,53.789 328.794,52.867 327.472,51.499L324.316,51.499C324.246,51.849 324.211,52.204 324.21,52.561C324.21,56.259 328.156,58.157 328.156,58.157L354.031,58.157C354.031,58.157 357.978,56.259 357.978,52.561C357.978,52.221 357.944,51.866 357.872,51.499L354.342,51.499L354.676,52.481L356.756,52.481M346.529,12.634L331.138,12.634L330.868,19.297L348.416,19.297L346.529,12.634M354.6,22.353L351.95,25.533L349.283,22.353L330.73,22.353L330.258,25.516L327.582,22.353L299.917,22.353C299.845,22.721 299.81,23.073 299.81,23.415C299.81,27.114 303.756,29.011 303.756,29.011L378.436,29.011C378.436,29.011 382.381,27.114 382.381,23.415C382.381,23.073 382.347,22.721 382.275,22.353L354.6,22.353M348.234,41.78L346.11,41.78L344.666,45.976L349.639,45.976L348.234,41.78M350.463,48.44L349.922,46.821L344.374,46.821L343.816,48.439L350.463,48.439" style="fill:rgb(56,56,56);fill-rule:nonzero;"/>
            </g>
        </g>
    </g>
</svg>
