<?xml version="1.0" encoding="UTF-8" standalone="no"?>
<!DOCTYPE svg PUBLIC "-//W3C//DTD SVG 1.1//EN" "http://www.w3.org/Graphics/SVG/1.1/DTD/svg11.dtd">
<svg width="100%" height="100%" viewBox="0 0 500 200" version="1.1" xmlns="http://www.w3.org/2000/svg" xmlns:xlink="http://www.w3.org/1999/xlink" xml:space="preserve" xmlns:serif="http://www.serif.com/" style="fill-rule:evenodd;clip-rule:evenodd;stroke-linejoin:round;stroke-miterlimit:2;">
    <g transform="matrix(1.487402,0,0,1.487402,-692.42293,-1069.98313)">
        <g transform="matrix(1.326301,0,0,1.326301,153.583938,491.475085)">
            <g transform="matrix(1,0,0,1,294.420925,209.760324)">
                <path d="M89.751,10.925C84.983,9.396 82.909,8.048 83.265,5.829C83.607,3.628 85.994,3.759 88.312,3.939C90.603,4.131 92.47,4.64 93.832,5.087C93.857,5.105 93.937,5.083 93.953,5.005C94.074,4.199 94.512,2.062 94.631,1.33C94.649,1.239 94.563,1.194 94.518,1.183C91.729,0.428 89.182,-0.052 86.137,0.004C80.434,0.103 77.783,2.4 77.459,7.196C77.268,9.995 79.207,13.089 83.236,14.423C87.265,15.757 90.14,16.51 89.722,18.993C89.353,21.097 86.872,21.335 84.183,21.18C81.828,21.036 79.835,20.475 78.349,20.024C78.242,19.992 78.177,20.045 78.152,20.143C78.041,21.007 77.728,23.214 77.621,23.992C77.617,24.096 77.705,24.18 77.75,24.19C79.609,24.635 82.9,25.26 86.947,25.26C92.42,25.26 95.259,22.913 95.578,18.419C95.825,14.932 94.183,12.352 89.751,10.925Z" style="fill:rgb(56,56,56);fill-rule:nonzero;"/>
            </g>
            <g transform="matrix(1,0,0,1,294.420925,209.760324)">
                <path d="M65.068,10.925C60.297,9.396 58.229,8.048 58.583,5.829C58.927,3.628 61.312,3.759 63.623,3.939C65.915,4.131 67.783,4.64 69.14,5.087C69.179,5.105 69.236,5.083 69.253,5.005C69.392,4.199 69.819,2.062 69.944,1.33C69.95,1.239 69.882,1.194 69.833,1.183C67.04,0.428 64.494,-0.052 61.454,0.004C55.75,0.103 53.101,2.4 52.766,7.196C52.578,9.996 54.519,13.092 58.54,14.426C62.564,15.76 65.438,16.512 65.034,18.993C64.667,21.098 62.188,21.335 59.495,21.181C57.129,21.039 55.149,20.474 53.653,20.025C53.557,19.993 53.485,20.046 53.465,20.142C53.355,21.009 53.04,23.215 52.935,23.995C52.932,24.097 53.01,24.183 53.059,24.191C54.915,24.636 58.226,25.261 62.25,25.261C67.728,25.261 70.56,22.914 70.882,18.418C71.138,14.932 69.495,12.352 65.068,10.925Z" style="fill:rgb(56,56,56);fill-rule:nonzero;"/>
            </g>
            <g transform="matrix(1,0,0,1,294.420925,209.760324)">
                <path d="M17.998,0.555L1.468,0.555C1.37,0.555 1.306,0.63 1.306,0.71L1.306,24.681C1.306,24.769 1.37,24.841 1.468,24.841L6.96,24.841C7.048,24.841 7.115,24.769 7.115,24.681L7.115,15.71C7.115,15.628 7.187,15.55 7.277,15.55L16.802,15.55C16.894,15.55 16.966,15.486 16.966,15.4L16.966,11.692C16.966,11.603 16.894,11.527 16.802,11.527L7.277,11.527C7.187,11.527 7.115,11.457 7.115,11.365L7.115,4.74C7.115,4.655 7.187,4.58 7.277,4.58L18.138,4.58C18.227,4.58 18.294,4.511 18.294,4.423L18.168,0.711C18.156,0.631 18.078,0.555 17.998,0.555Z" style="fill:rgb(56,56,56);fill-rule:nonzero;"/>
            </g>
            <g transform="matrix(1,0,0,1,294.420925,209.760324)">
                <path d="M109.023,0.537L103.357,0.537C103.257,0.537 103.197,0.605 103.197,0.693L103.197,24.684C103.197,24.768 103.258,24.833 103.357,24.833L109.023,24.833C109.113,24.833 109.177,24.768 109.177,24.684L109.177,0.693C109.177,0.605 109.111,0.537 109.023,0.537Z" style="fill:rgb(56,56,56);fill-rule:nonzero;"/>
            </g>
            <g transform="matrix(1,0,0,1,294.420925,209.760324)">
                <path d="M133.536,20.742L124.141,20.742C124.055,20.742 123.983,20.668 123.983,20.586L123.981,0.732C123.981,0.633 123.915,0.571 123.821,0.571L118.163,0.571C118.077,0.571 118.001,0.633 118.001,0.732L118.001,24.683C118.001,24.767 118.077,24.83 118.163,24.83L133.349,24.83C133.437,24.83 133.513,24.767 133.517,24.683L133.699,20.911C133.697,20.813 133.634,20.742 133.536,20.742Z" style="fill:rgb(56,56,56);fill-rule:nonzero;"/>
            </g>
            <g transform="matrix(1,0,0,1,294.420925,209.760324)">
                <path d="M35.363,0.026C27.927,0.026 23.87,4.904 23.87,12.769C23.87,20.626 27.929,25.507 35.363,25.507C42.796,25.507 46.85,20.626 46.85,12.769C46.85,9.168 46.046,6.222 44.472,4.074C42.556,1.46 39.5,0.026 35.363,0.026ZM35.363,21.488C30.313,21.488 29.614,17.295 29.614,12.769C29.614,8.249 30.313,4.055 35.363,4.055C40.407,4.055 41.101,8.247 41.101,12.769C41.101,17.294 40.407,21.488 35.363,21.488Z" style="fill:rgb(56,56,56);fill-rule:nonzero;"/>
            </g>
        </g>
    </g>
</svg>
