<?xml version="1.0" encoding="UTF-8" standalone="no"?>
<!DOCTYPE svg PUBLIC "-//W3C//DTD SVG 1.1//EN" "http://www.w3.org/Graphics/SVG/1.1/DTD/svg11.dtd">
<svg width="100%" height="100%" viewBox="0 0 500 200" version="1.1" xmlns="http://www.w3.org/2000/svg" xmlns:xlink="http://www.w3.org/1999/xlink" xml:space="preserve" xmlns:serif="http://www.serif.com/" style="fill-rule:evenodd;clip-rule:evenodd;stroke-linejoin:round;stroke-miterlimit:2;">
    <g transform="matrix(1.487402,0,0,1.487402,365.556253,99.59617)">
        <path d="M0,0.543C0,-5.873 -0.362,-8.448 -1.429,-9.659C-2.249,-10.602 -3.543,-11.14 -4.984,-11.14C-6.423,-11.14 -7.717,-10.601 -8.536,-9.66C-9.603,-8.448 -9.962,-5.874 -9.962,0.543C-9.962,6.941 -9.604,9.508 -8.54,10.715C-7.689,11.675 -6.392,12.227 -4.984,12.227C-3.574,12.227 -2.276,11.676 -1.426,10.714C-0.361,9.507 0,6.94 0,0.543M10.11,0.543C10.11,7.296 9.804,12.028 5.702,16.128C2.896,18.967 -0.602,20.348 -4.984,20.348C-9.361,20.348 -12.855,18.968 -15.67,16.128C-19.541,12.256 -20.222,8.017 -20.222,0.543C-20.222,-6.931 -19.541,-11.169 -15.668,-15.041C-12.855,-17.88 -9.36,-19.261 -4.984,-19.261C-0.603,-19.261 2.893,-17.88 5.705,-15.039C9.804,-10.941 10.11,-6.209 10.11,0.543M-37.4,4.033L-42.214,4.033L-42.214,12.547L-37.4,12.547C-35.428,12.547 -33.39,10.818 -33.39,8.185C-33.39,6.247 -34.795,4.033 -37.4,4.033M-39.006,-3.523C-36.529,-3.523 -35.049,-5.651 -35.049,-7.56C-35.049,-9.366 -36.437,-11.44 -39.006,-11.44L-42.165,-11.44L-42.165,-3.523L-39.006,-3.523ZM-24.197,8.263C-24.277,15.419 -29.302,20.042 -37,20.042L-45.187,20.042C-46.341,20.042 -48.086,20.042 -49.474,18.656C-50.86,17.268 -50.86,15.523 -50.86,14.368L-50.86,-13.281C-50.86,-14.437 -50.86,-16.184 -49.473,-17.568C-48.086,-18.955 -46.341,-18.955 -45.187,-18.955L-38.714,-18.955C-30.875,-18.955 -25.81,-14.425 -25.81,-7.415C-25.81,-4.666 -27.019,-2.236 -29.323,-0.313C-25.959,1.292 -24.152,4.288 -24.197,8.263M-61.837,-19.347C-63.79,-19.347 -65.537,-18.445 -66.407,-16.971C-67.05,-15.8 -67.114,-14.962 -67.114,-13.19L-67.114,14.114C-67.114,15.887 -67.051,16.724 -66.404,17.904C-65.542,19.364 -63.791,20.27 -61.837,20.27C-59.88,20.27 -58.134,19.369 -57.267,17.895C-56.622,16.719 -56.558,15.882 -56.558,14.114L-56.558,-13.19C-56.558,-14.918 -56.624,-15.797 -57.271,-16.979C-58.133,-18.44 -59.883,-19.347 -61.837,-19.347M-84.598,-11.144L-88.89,-11.144L-88.89,-2.184L-84.598,-2.184C-82.749,-2.184 -80.836,-3.951 -80.836,-6.65C-80.836,-8.783 -82.243,-11.144 -84.598,-11.144M-72.789,11.837C-71.905,13.384 -71.52,14.168 -71.448,15.317C-71.375,16.993 -72.33,18.633 -73.881,19.508C-74.712,19.996 -75.575,20.246 -76.431,20.246C-79.118,20.246 -80.201,18.349 -81.157,16.676L-87.898,5.579L-88.58,5.579L-88.58,14.114C-88.58,15.86 -88.638,16.685 -89.214,17.838C-90.019,19.332 -91.653,20.246 -93.489,20.246C-95.327,20.246 -96.963,19.326 -97.759,17.847C-98.342,16.682 -98.398,15.858 -98.398,14.114L-98.398,-13.281C-98.398,-14.437 -98.398,-16.184 -97.011,-17.569C-95.623,-18.955 -93.878,-18.955 -92.724,-18.955L-85.145,-18.955C-77.404,-18.955 -71.997,-13.843 -71.997,-6.522C-71.997,-2.082 -74.688,2.174 -78.526,4.006L-72.789,11.837ZM-117.982,-6.795L-121.747,4.319L-114.215,4.319L-117.982,-6.795ZM-102.771,12.51C-102.134,14.296 -101.339,16.524 -103.212,18.649C-104.114,19.673 -105.412,20.26 -106.773,20.26C-107.864,20.26 -108.821,19.915 -109.619,19.235C-110.527,18.442 -110.895,17.588 -111.522,15.828L-112.586,12.365L-123.377,12.365L-124.436,15.816C-125.07,17.595 -125.436,18.442 -126.339,19.233C-127.143,19.917 -128.099,20.26 -129.188,20.26C-130.55,20.26 -131.849,19.673 -132.75,18.649C-134.625,16.526 -133.831,14.299 -133.191,12.51L-123.413,-15.477C-122.903,-16.873 -122.568,-17.787 -121.738,-18.538C-120.868,-19.351 -119.531,-19.805 -117.982,-19.805C-116.433,-19.805 -115.098,-19.354 -114.223,-18.536C-113.431,-17.819 -113.104,-16.995 -112.55,-15.481L-102.771,12.51ZM-138.113,-17.09C-137.507,-15.874 -137.476,-14.932 -137.476,-12.385L-137.476,15.089C-137.476,15.836 -137.525,16.664 -138.109,17.837C-138.914,19.332 -140.548,20.246 -142.385,20.246C-144.224,20.246 -145.86,19.326 -146.656,17.847C-147.237,16.684 -147.293,15.86 -147.293,14.114L-147.293,4.023L-155.672,4.023L-155.672,14.114C-155.672,15.859 -155.73,16.685 -156.305,17.837C-157.111,19.332 -158.744,20.246 -160.581,20.246C-162.418,20.246 -164.055,19.326 -164.851,17.846C-165.442,16.668 -165.49,15.839 -165.49,15.089L-165.49,-12.385C-165.49,-14.993 -165.462,-15.876 -164.856,-17.084C-164.051,-18.578 -162.418,-19.492 -160.581,-19.492C-158.744,-19.492 -157.108,-18.572 -156.309,-17.092C-155.729,-15.93 -155.672,-15.106 -155.672,-13.359L-155.672,-4.297C-155.291,-4.294 -154.793,-4.293 -154.144,-4.293C-151.947,-4.293 -148.984,-4.309 -147.293,-4.32L-147.293,-13.359C-147.293,-15.106 -147.237,-15.932 -146.662,-17.083C-145.857,-18.578 -144.223,-19.492 -142.385,-19.492C-140.548,-19.492 -138.912,-18.572 -138.113,-17.09" style="fill:rgb(56,56,56);fill-rule:nonzero;"/>
    </g>
</svg>
