<?xml version="1.0" encoding="UTF-8" standalone="no"?>
<!DOCTYPE svg PUBLIC "-//W3C//DTD SVG 1.1//EN" "http://www.w3.org/Graphics/SVG/1.1/DTD/svg11.dtd">
<svg width="100%" height="100%" viewBox="0 0 500 200" version="1.1" xmlns="http://www.w3.org/2000/svg" xmlns:xlink="http://www.w3.org/1999/xlink" xml:space="preserve" xmlns:serif="http://www.serif.com/" style="fill-rule:evenodd;clip-rule:evenodd;stroke-linejoin:round;stroke-miterlimit:2;">
    <g transform="matrix(1.487402,0,0,1.487402,-351.355969,-902.136268)">
        <g>
            <g transform="matrix(1,0,0,1,378.9342,700.1151)">
                <path d="M0,1.502L2.733,1.502L2.733,-0.241L0,-0.241L0,-1.368L2.922,-1.368L2.922,-3.111L-1.954,-3.111L-1.954,4.613L3.006,4.613L3.006,2.818L0,2.818L0,1.502Z" style="fill:rgb(56,56,56);fill-rule:nonzero;"/>
            </g>
            <g transform="matrix(1,0,0,1,391.1887,702.9957)">
                <path d="M0,-4.259L1.966,-4.259L1.966,1.732L3.856,1.732L3.856,-4.259L5.811,-4.259L5.811,-5.991L0,-5.991L0,-4.259Z" style="fill:rgb(56,56,56);fill-rule:nonzero;"/>
            </g>
            <g transform="matrix(1,0,0,1,407.9431,704.7282)">
                <path d="M0,-7.724L0,-6.128L1.093,-6.128L1.093,0L2.962,0L2.962,-7.724L0,-7.724Z" style="fill:rgb(56,56,56);fill-rule:nonzero;"/>
            </g>
            <g transform="matrix(1,0,0,1,418.8059,700.3656)">
                <path d="M0,1.005C-0.189,0.677 -0.474,0.414 -0.857,0.215C-0.567,0.005 -0.355,-0.212 -0.22,-0.435C-0.04,-0.735 0.051,-1.058 0.051,-1.403C0.051,-1.996 -0.175,-2.488 -0.628,-2.879C-1.08,-3.27 -1.78,-3.465 -2.726,-3.465C-3.44,-3.465 -4.015,-3.308 -4.449,-2.994C-5.006,-2.586 -5.284,-2.061 -5.284,-1.419C-5.284,-1.028 -5.188,-0.683 -4.995,-0.382C-4.853,-0.162 -4.628,0.036 -4.319,0.215C-4.721,0.385 -5.019,0.627 -5.212,0.939C-5.405,1.252 -5.502,1.633 -5.502,2.083C-5.502,2.544 -5.399,2.961 -5.193,3.334C-4.987,3.708 -4.686,3.99 -4.29,4.182C-3.894,4.374 -3.321,4.47 -2.571,4.47C-2.172,4.47 -1.796,4.427 -1.444,4.342C-1.091,4.257 -0.797,4.123 -0.56,3.942C-0.324,3.76 -0.124,3.502 0.039,3.169C0.201,2.836 0.282,2.478 0.282,2.094C0.282,1.696 0.189,1.333 0,1.005M-2.622,-2.09C-2.181,-2.09 -1.824,-1.731 -1.824,-1.288C-1.824,-0.846 -2.181,-0.487 -2.622,-0.487C-3.062,-0.487 -3.419,-0.846 -3.419,-1.288C-3.419,-1.731 -3.062,-2.09 -2.622,-2.09M-2.622,2.967C-3.139,2.967 -3.56,2.536 -3.56,2.006C-3.56,1.475 -3.139,1.044 -2.622,1.044C-2.104,1.044 -1.684,1.475 -1.684,2.006C-1.684,2.536 -2.104,2.967 -2.622,2.967" style="fill:rgb(56,56,56);fill-rule:nonzero;"/>
            </g>
            <g transform="matrix(1,0,0,1,426.0987,701.4804)">
                <path d="M0,-1.176C-0.492,-1.65 -1.164,-1.888 -1.973,-1.859L-0.349,-4.529L-2.5,-4.529L-4.686,-0.974C-5,-0.474 -5.187,0.152 -5.187,0.7C-5.187,2.336 -4.058,3.353 -2.24,3.353C-0.409,3.353 0.729,2.336 0.729,0.7C0.729,-0.067 0.477,-0.716 0,-1.176M-2.238,1.679C-2.82,1.679 -3.293,1.232 -3.293,0.68C-3.293,0.128 -2.82,-0.32 -2.238,-0.32C-1.654,-0.32 -1.181,0.128 -1.181,0.68C-1.181,1.232 -1.654,1.679 -2.238,1.679" style="fill:rgb(56,56,56);fill-rule:nonzero;"/>
            </g>
            <g transform="matrix(1,0,0,1,431.309,704.729)">
                <path d="M0,-7.83C-1.831,-7.83 -2.969,-6.809 -2.969,-5.166C-2.969,-4.397 -2.72,-3.75 -2.249,-3.295C-1.753,-2.816 -1.051,-2.584 -0.221,-2.608L-0.209,-2.608L-1.903,0L0.248,0L2.425,-3.45C2.788,-4.023 2.947,-4.536 2.958,-5.166C2.958,-6.809 1.825,-7.83 0,-7.83M-0.001,-4.152C-0.584,-4.152 -1.057,-4.6 -1.057,-5.152C-1.057,-5.703 -0.584,-6.151 -0.001,-6.151C0.583,-6.151 1.056,-5.703 1.056,-5.152C1.056,-4.6 0.583,-4.152 -0.001,-4.152" style="fill:rgb(56,56,56);fill-rule:nonzero;"/>
            </g>
            <g transform="matrix(1,0,0,1,394.267,654.2444)">
                <path d="M0,22.548C0.003,22.295 -0.281,21.995 -0.588,22.219C-1.356,22.7 -3.04,23.598 -5.453,23.833L-14.269,24.825L-15.664,14.629C-13.062,14.287 -10.434,13.973 -8.789,13.808C-6.971,13.626 -5.786,13.876 -5.094,14.08C-4.607,14.257 -4.375,13.958 -4.412,13.634L-5.11,5.296C-5.168,4.838 -5.479,4.84 -5.8,5.029C-6.396,5.379 -7.331,5.665 -9.622,5.897C-11.798,6.117 -14.313,6.401 -16.746,6.716L-17.926,-1.912C-16.874,-2.078 -13.347,-2.704 -9.052,-3.149C-5.907,-3.484 -4.075,-3.109 -3.435,-2.911C-3.051,-2.765 -2.878,-3.03 -2.891,-3.267L-3.345,-11.19C-12.341,-10.568 -20.192,-9.408 -28.363,-7.945C-28.834,-7.861 -28.909,-7.539 -28.71,-7.202C-27.909,-5.882 -27.609,-4.064 -27.26,-1.693L-22.988,27.373C-22.579,29.708 -22.369,31.521 -22.578,33.115C-22.667,33.589 -22.289,33.738 -21.932,33.676C-14.753,32.435 -6.747,31.438 0.536,31.045L0,22.548Z" style="fill:rgb(56,56,56);fill-rule:nonzero;"/>
            </g>
            <g transform="matrix(1,0,0,1,398.7811,643.141)">
                <path d="M0,41.487C0.69,39.716 0.687,37.544 0.7,35.422L0.661,5.717C0.628,3.87 0.458,1.98 -0.102,0.172C-0.153,0.004 -0.207,-0.347 0.264,-0.365C2.86,-0.462 7.2,-0.534 10.311,-0.452C10.812,-0.437 10.752,-0.031 10.7,0.144C10.037,2.317 10.086,3.515 10.012,5.44L9.97,35.397C9.957,37.249 10.058,39.986 10.596,41.405C10.688,41.653 10.663,41.913 10.321,41.906C6.698,41.831 3.74,41.877 0.253,42.01C-0.043,42.021 -0.136,41.786 0,41.487" style="fill:rgb(56,56,56);fill-rule:nonzero;"/>
            </g>
            <g transform="matrix(1,0,0,1,443.3603,648.8547)">
                <path d="M0,34.697C-0.323,36.352 -0.405,37.974 -0.161,39.725C-0.114,39.971 -0.227,40.361 -0.71,40.259C-3.901,39.589 -6.351,39.094 -8.601,38.696C-9.926,34.583 -16.748,12.428 -16.826,12.203L-19.015,31.105C-19.195,32.64 -19.467,34.988 -18.934,36.77C-18.836,37.155 -19.035,37.256 -19.322,37.223C-22.206,36.881 -25.833,36.566 -28.289,36.417C-28.757,36.39 -28.591,35.93 -28.543,35.833C-27.736,34.218 -27.393,31.891 -27.204,30.383L-23.756,0.47C-23.591,-1.029 -23.287,-3.145 -23.755,-5.01C-23.861,-5.383 -23.656,-5.664 -23.195,-5.627C-19.974,-5.36 -16.121,-4.944 -13.712,-4.621L-5.535,21.558L-2.267,3.55C-1.632,0.781 -1.511,-0.713 -1.785,-2.238C-1.839,-2.517 -1.72,-2.754 -1.293,-2.686C1.207,-2.242 4.991,-1.448 7.676,-0.862C7.953,-0.802 8.012,-0.529 7.785,-0.288C6.709,1.21 6.481,2.594 5.91,5.014C5.917,5.006 0,34.697 0,34.697" style="fill:rgb(56,56,56);fill-rule:nonzero;"/>
            </g>
            <g transform="matrix(1,0,0,1,473.3225,658.6588)">
                <path d="M0,29.948C-1.761,30.068 -4.194,29.657 -5.865,29.082C-9.65,27.844 -10.938,27.44 -13.27,26.708L9.025,6.798L8.885,-0.894C-0.943,-4.713 -7.336,-6.653 -13.95,-8.564L-16.333,-0.704C-16.426,-0.427 -16.262,-0.127 -15.839,-0.143C-14.104,-0.213 -11.335,0.483 -9.901,0.913C-8.215,1.417 -1.862,3.462 -0.539,3.954L-24.216,25.283L-24.093,32.045C-17.265,33.775 -9.866,36.052 -3.481,38.512L0.479,30.681C0.645,30.354 0.566,29.916 0,29.948" style="fill:rgb(56,56,56);fill-rule:nonzero;"/>
            </g>
            <g transform="matrix(1,0,0,1,367.3187,657.1563)">
                <path d="M0,31.036C-1.041,29.533 -1.757,27.583 -2.22,25.511L-10.359,-2.734C-10.782,-4.429 -11.102,-6.401 -10.93,-8.241C-10.883,-8.49 -11.159,-8.665 -11.358,-8.617C-13.676,-8.061 -18.074,-6.898 -20.957,-6.063C-21.267,-5.972 -21.434,-5.733 -21.243,-5.379C-20.475,-4.129 -19.733,-2.267 -19.238,-0.2L-16.502,9.022C-19.103,9.672 -23.946,11.111 -26.625,11.924L-29.544,3.044C-30.313,0.94 -30.568,-0.496 -30.612,-2.315C-30.612,-2.315 -30.551,-2.995 -31.146,-2.811C-33.92,-1.89 -37.884,-0.355 -40.779,0.759C-41.142,0.899 -41.146,1.209 -40.88,1.516C-39.653,3.028 -38.908,4.695 -38.299,6.517L-29.218,33.514C-28.547,35.354 -27.952,37.108 -28.007,39.106C-28.013,39.282 -27.939,39.701 -27.488,39.527C-24.807,38.574 -20.958,37.207 -18.081,36.326C-17.814,36.245 -17.728,35.942 -17.965,35.698C-18.979,34.464 -19.891,32.399 -20.346,31.034L-24.139,19.493C-20.064,18.268 -18.08,17.691 -14.235,16.663L-10.973,27.657C-10.282,30.474 -10.141,31.968 -10.293,33.568C-10.316,33.779 -10.126,34.054 -9.803,33.969C-7.048,33.22 -3.615,32.385 -0.213,31.665C0.184,31.58 0.132,31.211 0,31.036" style="fill:rgb(56,56,56);fill-rule:nonzero;"/>
            </g>
            <g transform="matrix(1,0,0,1,390.1681,699.4357)">
                <path d="M0,2.923C0,4.483 -1.184,5.41 -2.965,5.41C-4.264,5.41 -5.5,4.985 -6.401,4.144L-5.27,2.737C-4.546,3.337 -3.74,3.654 -2.892,3.654C-2.347,3.654 -2.053,3.458 -2.053,3.13C-2.053,2.814 -2.294,2.618 -3.289,2.378C-4.851,2.007 -6.055,1.568 -6.055,-0.044C-6.055,-1.463 -4.976,-2.487 -3.216,-2.487C-1.97,-2.487 -0.996,-2.138 -0.199,-1.473L-1.215,0.022C-1.886,-0.469 -2.619,-0.731 -3.269,-0.731C-3.761,-0.731 -4.002,-0.491 -4.002,-0.219C-4.002,0.13 -3.75,0.283 -2.734,0.523C-1.048,0.905 0,1.494 0,2.923" style="fill:rgb(56,56,56);fill-rule:nonzero;"/>
            </g>
            <g transform="matrix(1,0,0,1,400.6759,702.1475)">
                <path d="M0,-5.143L-1.944,-5.143L-1.944,0L0,0C0.725,0 1.351,-0.247 1.809,-0.713C2.276,-1.188 2.538,-1.873 2.526,-2.589C2.526,-3.858 1.658,-5.143 0,-5.143M-0.471,-3.684L0.046,-3.684C0.737,-3.684 1.053,-3.112 1.053,-2.58C1.053,-2.023 0.741,-1.46 0.046,-1.46L-0.471,-1.46L-0.471,-3.684Z" style="fill:rgb(56,56,56);fill-rule:nonzero;"/>
            </g>
            <g transform="matrix(0,1,1,0,400.5232,703.0798)">
                <path d="M0.877,-0.876C0.393,-0.876 -0,-0.483 -0,0.001C-0,0.485 0.393,0.877 0.877,0.877C1.361,0.877 1.753,0.485 1.753,0.001C1.753,-0.483 1.361,-0.876 0.877,-0.876" style="fill:rgb(56,56,56);fill-rule:nonzero;"/>
            </g>
        </g>
    </g>
</svg>
