<?xml version="1.0" encoding="UTF-8" standalone="no"?>
<!DOCTYPE svg PUBLIC "-//W3C//DTD SVG 1.1//EN" "http://www.w3.org/Graphics/SVG/1.1/DTD/svg11.dtd">
<svg width="100%" height="100%" viewBox="0 0 500 200" version="1.1" xmlns="http://www.w3.org/2000/svg" xmlns:xlink="http://www.w3.org/1999/xlink" xml:space="preserve" xmlns:serif="http://www.serif.com/" style="fill-rule:evenodd;clip-rule:evenodd;stroke-linejoin:round;stroke-miterlimit:2;">
    <g transform="matrix(1.487402,0,0,1.487402,327.0318,81.547289)">
        <path d="M0,25.861C0.65,26.902 1.434,27.741 2.246,28.128L3.715,28.945C4.019,29.109 4.114,29.336 4.114,29.694L4.103,29.959L3.896,32.09C3.8,32.644 3.418,32.737 2.675,32.737L-4.691,32.737C-5.947,32.737 -6.046,32.371 -6.614,31.341L-12.785,20.103L-15.107,22.329L-15.107,25.495C-15.107,26.571 -14.597,27.702 -13.752,28.128L-12.285,28.945C-11.988,29.109 -11.884,29.336 -11.884,29.694L-11.903,29.959L-12.111,32.09C-12.206,32.644 -12.591,32.737 -13.326,32.737L-25.532,32.737C-26.264,32.737 -26.644,32.644 -26.74,32.09L-26.95,29.959L-26.972,29.694C-26.972,29.336 -26.868,29.109 -26.568,28.945L-25.101,28.128C-24.287,27.741 -23.926,26.571 -23.926,25.495L-23.926,1.354C-23.926,0.273 -24.262,-0.856 -25.101,-1.285L-26.568,-2.101C-26.868,-2.273 -26.972,-2.492 -26.972,-2.847L-26.95,-3.112L-26.74,-4.63C-26.644,-5.191 -26.264,-5.275 -25.532,-5.275L-16.684,-5.275C-15.815,-5.275 -15.113,-4.573 -15.113,-3.71L-15.113,14.614L-11.182,11.06C-10.616,10.579 -9.701,9.777 -9.349,9.425C-8.985,9.061 -8.911,8.531 -9.425,8.318L-10.813,7.698C-11.121,7.55 -11.203,7.329 -11.203,6.982L-11.184,6.734L-10.979,4.786C-10.892,4.256 -10.529,4.171 -9.832,4.171L0.76,4.171C1.464,4.171 1.822,4.256 1.915,4.786L2.12,6.734L2.136,6.982C2.161,7.411 1.667,7.613 1.355,7.75C1.355,7.75 0.606,7.971 -0.076,8.359C-0.762,8.747 -1.492,9.34 -2.412,10.154L-6.494,14.076L0,25.861ZM44.172,6.501C44.172,6.501 44.686,6.25 45.628,5.805C47.47,4.928 51.081,3.393 54.062,4.335C56.649,5.163 58.873,7.04 58.873,11.962L58.873,26.877C58.873,27.517 58.905,27.782 59.203,27.943C59.594,28.159 60.293,27.508 60.949,27.167C61.613,26.825 61.987,27.227 62.391,27.683C62.749,28.077 63.175,28.634 62.826,29.366C61.73,31.677 59.258,33 56.373,33C53.638,33 50.163,31.431 50.163,27.344L50.163,12.983C50.163,10.787 48.571,10.028 47.339,10.181C45.464,10.408 44.107,11.967 44.107,14.757L44.107,25.495C44.107,26.571 44.467,27.741 45.287,28.128L46.748,28.945C47.052,29.109 47.153,29.336 47.153,29.694L47.136,29.959L46.923,32.09C46.828,32.644 46.445,32.737 45.71,32.737L33.507,32.737C32.772,32.737 32.39,32.644 32.297,32.09L32.081,29.959L32.073,29.694C32.073,29.336 32.163,29.109 32.474,28.945L33.936,28.128C34.75,27.741 35.11,26.571 35.11,25.495L35.11,12.008C35.11,10.883 34.917,9.438 33.928,8.944L32.993,8.405C32.649,8.244 32.562,8.004 32.562,7.627L32.586,7.351L32.802,5.75C32.903,5.168 33.302,5.073 34.07,5.073L42.743,5.073C43.426,5.073 43.694,5.461 43.885,5.9L44.172,6.501ZM-74.873,6.501C-74.873,6.501 -74.358,6.25 -73.425,5.805C-71.581,4.928 -67.972,3.393 -64.983,4.335C-62.397,5.163 -60.169,7.04 -60.169,11.962L-60.169,26.877C-60.169,27.517 -60.14,27.782 -59.843,27.943C-59.448,28.159 -58.756,27.508 -58.099,27.167C-57.432,26.825 -57.061,27.227 -56.654,27.683C-56.296,28.077 -55.864,28.634 -56.216,29.366C-57.317,31.677 -59.782,33 -62.68,33C-65.404,33 -68.879,31.431 -68.879,27.344L-68.879,12.983C-68.879,10.787 -70.474,10.028 -71.712,10.181C-73.575,10.408 -74.935,11.967 -74.935,14.757L-74.935,25.495C-74.935,26.571 -74.579,27.741 -73.765,28.128L-72.301,28.945C-71.99,29.109 -71.889,29.336 -71.889,29.694L-71.908,29.959L-72.119,32.09C-72.217,32.644 -72.598,32.737 -73.337,32.737L-85.533,32.737C-86.274,32.737 -86.654,32.644 -86.751,32.09L-86.961,29.959L-86.975,29.694C-86.975,29.336 -86.878,29.109 -86.573,28.945L-85.109,28.128C-84.294,27.741 -83.933,26.571 -83.933,25.495L-83.933,12.008C-83.933,10.883 -84.126,9.438 -85.117,8.944L-86.054,8.405C-86.393,8.244 -86.486,8.004 -86.486,7.627L-86.461,7.351L-86.24,5.75C-86.145,5.168 -85.743,5.073 -84.975,5.073L-76.3,5.073C-75.618,5.073 -75.356,5.461 -75.157,5.9L-74.873,6.501ZM-102.743,32.737C-103.478,32.737 -103.858,32.644 -103.95,32.09L-104.167,29.959L-104.179,29.694C-104.179,29.336 -104.078,29.109 -103.776,28.945L-102.313,28.128C-101.499,27.741 -101.137,26.571 -101.137,25.495L-101.137,12.008C-101.137,10.883 -101.331,9.438 -102.323,8.944L-103.258,8.405C-103.594,8.244 -103.692,8.004 -103.692,7.627L-103.663,7.351L-103.44,5.75C-103.344,5.168 -102.946,5.073 -102.181,5.073L-92.969,5.073C-92.514,5.073 -92.137,5.441 -92.137,5.9L-92.137,25.495C-92.137,26.571 -91.776,27.741 -90.966,28.128L-89.502,28.945C-89.199,29.109 -89.099,29.336 -89.099,29.694L-89.114,29.959L-89.327,32.09C-89.417,32.644 -89.794,32.737 -90.537,32.737L-102.743,32.737ZM-92.441,-1.309C-92.441,1.316 -94.641,3.444 -97.356,3.444C-100.076,3.444 -102.279,1.316 -102.279,-1.309C-102.279,-3.928 -100.076,-6.054 -97.356,-6.054C-94.641,-6.054 -92.441,-3.928 -92.441,-1.309M-146.163,15.669C-146.163,15.213 -146.536,14.841 -146.994,14.841L-154.378,14.841C-154.835,14.841 -155.21,15.213 -155.21,15.669L-155.21,25.271C-155.21,26.399 -154.859,27.631 -153.98,28.022L-152.101,28.872C-151.765,29.027 -151.669,29.273 -151.669,29.642L-151.697,29.918L-151.925,32.06C-152.015,32.644 -152.412,32.737 -153.183,32.737L-166.812,32.737C-167.585,32.737 -167.976,32.644 -168.078,32.06L-168.297,29.918L-168.328,29.642C-168.328,29.273 -168.231,29.027 -167.891,28.872L-166.009,28.022C-165.14,27.631 -164.784,26.399 -164.784,25.271L-164.784,1.655C-164.784,0.529 -165.14,-0.703 -166.009,-1.099L-167.891,-1.946C-168.231,-2.101 -168.328,-2.355 -168.328,-2.724L-168.297,-3.003L-168.078,-4.603C-167.976,-5.191 -167.585,-5.275 -166.812,-5.275L-153.819,-5.275C-153.046,-5.275 -152.653,-5.191 -152.552,-4.603L-152.33,-3.003L-152.306,-2.724C-152.306,-2.355 -152.403,-2.101 -152.74,-1.946L-154.273,-1.099C-155.155,-0.593 -155.21,0.529 -155.21,1.655L-155.21,8.242C-155.21,8.695 -154.835,9.069 -154.378,9.069L-146.994,9.069C-146.536,9.069 -146.163,8.695 -146.163,8.242L-146.163,1.655C-146.163,0.529 -146.222,-0.593 -147.099,-1.099L-148.634,-1.946C-148.97,-2.101 -149.063,-2.355 -149.063,-2.724L-149.041,-3.003L-148.814,-4.603C-148.719,-5.191 -148.325,-5.275 -147.55,-5.275L-134.562,-5.275C-133.786,-5.275 -133.39,-5.191 -133.294,-4.603L-133.072,-3.003L-133.051,-2.724C-133.051,-2.355 -133.139,-2.101 -133.48,-1.946L-135.363,-1.099C-136.231,-0.703 -136.589,0.529 -136.589,1.655L-136.589,25.271C-136.589,26.399 -136.231,27.631 -135.363,28.022L-133.48,28.872C-133.139,29.027 -133.051,29.273 -133.051,29.642L-133.072,29.918L-133.294,32.06C-133.39,32.644 -133.786,32.737 -134.562,32.737L-148.186,32.737C-148.958,32.737 -149.357,32.644 -149.454,32.06L-149.678,29.918L-149.7,29.642C-149.7,29.273 -149.604,29.027 -149.265,28.872L-147.391,28.022C-146.518,27.631 -146.163,26.399 -146.163,25.271L-146.163,15.669ZM12.693,17.049C12.305,15.983 12.329,13.604 13.059,11.637C13.548,10.315 14.285,9.285 15.569,8.777C17.014,8.195 18.249,8.345 19.222,8.911C20.323,9.542 21.118,10.809 21.623,12.514C21.97,13.691 21.894,14.939 21.514,15.412C20.948,16.09 20.074,16.428 19.05,16.795C18.017,17.163 17.11,17.458 16.676,17.601C14.334,18.322 13.239,18.532 12.693,17.049M27.633,23.668C26.098,25.205 24.098,26.746 22.131,27.366C20.279,27.962 14.995,28.426 13.444,24.064C13.108,23.116 13.381,22.829 14.233,22.567C15.509,22.193 18.793,21.226 22.26,19.925C25.41,18.759 28.215,17.316 29.087,16.723C30.66,15.691 30.895,14.243 30.207,12.68C27.991,7.714 23.008,2.513 14.695,4.1C8.1,5.357 3.371,11.292 3.371,18.092C3.371,26.508 8.444,31.423 14.9,32.953C20.864,34.371 27.874,31.478 30.879,26.621C32.073,24.746 28.715,22.523 27.633,23.668M-46.224,17.049C-46.617,15.983 -46.584,13.604 -45.86,11.637C-45.366,10.315 -44.637,9.285 -43.35,8.777C-41.902,8.195 -40.662,8.345 -39.703,8.911C-38.585,9.542 -37.801,10.809 -37.296,12.514C-36.944,13.691 -37.017,14.939 -37.411,15.412C-37.968,16.09 -38.85,16.428 -39.872,16.795C-40.891,17.163 -41.804,17.458 -42.241,17.601C-44.585,18.322 -45.686,18.532 -46.224,17.049M-31.28,23.668C-32.818,25.205 -34.818,26.746 -36.777,27.366C-38.635,27.962 -43.924,28.426 -45.472,24.064C-45.806,23.116 -45.533,22.829 -44.683,22.567C-43.404,22.193 -40.121,21.226 -36.657,19.925C-33.512,18.759 -30.707,17.316 -29.83,16.723C-28.251,15.691 -28.021,14.243 -28.712,12.68C-30.92,7.714 -35.911,2.513 -44.219,4.1C-50.816,5.357 -55.532,11.292 -55.532,18.092C-55.532,26.508 -50.472,31.423 -44.022,32.953C-38.055,34.371 -31.04,31.478 -28.038,26.621C-26.855,24.746 -30.198,22.523 -31.28,23.668M-123.517,17.049C-124.162,15.265 -123.643,9.807 -120.632,8.777C-117.463,7.69 -115.525,9.313 -114.578,12.514C-114.224,13.691 -114.306,14.939 -114.694,15.412C-115.254,16.09 -116.256,16.497 -117.149,16.795L-119.528,17.587C-121.853,18.374 -122.969,18.532 -123.517,17.049M-108.568,23.668C-110.106,25.205 -112.103,26.746 -114.065,27.366C-115.917,27.962 -121.203,28.426 -122.76,24.064C-123.094,23.116 -122.823,22.829 -121.965,22.567C-120.692,22.193 -117.413,21.226 -113.944,19.925C-110.793,18.759 -107.989,17.316 -107.117,16.723C-105.537,15.691 -105.306,14.243 -105.992,12.68C-108.209,7.714 -113.204,2.513 -121.499,4.1C-128.104,5.357 -132.827,11.292 -132.827,18.092C-132.827,26.508 -127.755,31.423 -121.304,32.953C-115.34,34.371 -108.325,31.478 -105.325,26.621C-104.135,24.746 -107.482,22.523 -108.568,23.668M59.512,-3.8L58.436,-3.8L58.436,-5.139L59.381,-5.139C59.791,-5.139 60.28,-4.969 60.28,-4.505C60.28,-4.103 59.971,-3.8 59.512,-3.8M60.788,-3.09C61.228,-3.262 61.656,-3.8 61.656,-4.579C61.656,-5.821 60.536,-6.209 59.881,-6.209L57.086,-6.209L57.086,-0.367L58.427,-0.367L58.427,-2.645L58.933,-2.645C59.608,-2.645 59.993,-2.467 60.187,-1.842C60.32,-1.407 60.391,-0.992 60.659,-0.367L62.124,-0.367C61.963,-0.7 61.673,-1.159 61.577,-1.79C61.484,-2.421 61.274,-2.776 60.788,-3.09M59.334,1.248C56.936,1.248 54.991,-0.694 54.991,-3.077C54.991,-5.477 56.936,-7.403 59.334,-7.403C61.717,-7.403 63.648,-5.477 63.648,-3.077C63.648,-0.694 61.717,1.248 59.334,1.248M59.334,-8.502C56.327,-8.51 53.895,-6.087 53.895,-3.077C53.895,-0.085 56.327,2.338 59.334,2.338C62.32,2.338 64.749,-0.085 64.749,-3.077C64.749,-6.087 62.32,-8.51 59.334,-8.502" style="fill:rgb(56,56,56);fill-rule:nonzero;"/>
    </g>
</svg>
