<?xml version="1.0" encoding="UTF-8" standalone="no"?>
<!DOCTYPE svg PUBLIC "-//W3C//DTD SVG 1.1//EN" "http://www.w3.org/Graphics/SVG/1.1/DTD/svg11.dtd">
<svg width="100%" height="100%" viewBox="0 0 500 200" version="1.1" xmlns="http://www.w3.org/2000/svg" xmlns:xlink="http://www.w3.org/1999/xlink" xml:space="preserve" xmlns:serif="http://www.serif.com/" style="fill-rule:evenodd;clip-rule:evenodd;stroke-linejoin:round;stroke-miterlimit:2;">
    <g transform="matrix(1.487402,0,0,1.487402,-757.786322,-716.097331)">
        <g transform="matrix(1,0,0,1,543.9061,530.6999)">
            <path d="M0,35.105L7.433,35.105L23.624,13.983L20.018,35.105L24.507,35.105L40.698,13.983L37.018,35.105L42.906,35.105L49.014,0L43.715,0L28.702,19.503L31.94,0L26.642,0L0,35.105Z" style="fill:rgb(56,56,56);fill-rule:nonzero;"/>
        </g>
        <g transform="matrix(1,0,0,1,754.8304,565.8041)">
            <path d="M0,-35.105L-7.433,-35.105L-23.624,-13.983L-20.018,-35.105L-24.507,-35.105L-40.698,-13.983L-37.018,-35.105L-42.906,-35.105L-49.015,0L-43.716,0L-28.702,-19.503L-31.94,0L-26.641,0L0,-35.105Z" style="fill:rgb(56,56,56);fill-rule:nonzero;"/>
        </g>
        <g transform="matrix(1,0,0,1,597.3364,561.6941)">
            <path d="M0,-12.031C0,-12.031 1.815,-15.22 5.593,-15.22C9.371,-15.22 9.715,-12.031 9.715,-12.031L0,-12.031ZM5.372,-21.721C5.372,-21.721 -5.397,-21.735 -7.36,-8.179C-9.401,5.921 8.611,9.704 14.646,-4.279L7.703,-4.279C7.703,-4.279 6.378,-1.924 2.551,-1.924C-1.276,-1.924 -1.472,-6.045 -1.472,-6.045L15.308,-6.045C15.308,-6.045 18.767,-21.721 5.372,-21.721" style="fill:rgb(56,56,56);fill-rule:nonzero;"/>
        </g>
        <g transform="matrix(1,0,0,1,631.1534,547.9381)">
            <path d="M0,5.168C-1.03,10.389 -4.857,11.98 -7.911,11.759C-10.966,11.538 -12.818,7.784 -10.634,2.853C-8.451,-2.077 -4.109,-1.391 -4.109,-1.391C-2.404,-1.391 1.03,-0.053 0,5.168M3.079,-14.024L1.558,-6.027C1.558,-6.027 -1.141,-7.965 -4.183,-7.965C-7.225,-7.965 -13.063,-6.518 -16.154,0.793C-19.245,8.104 -16.939,16.199 -10.414,17.867C-10.414,17.867 -6.194,19.192 -2.711,16.984L-2.613,17.867L3.471,17.867L9.016,-14.024L3.079,-14.024Z" style="fill:rgb(56,56,56);fill-rule:nonzero;"/>
        </g>
        <g transform="matrix(1,0,0,1,802.1751,548.3853)">
            <path d="M0,5.168C-1.031,10.389 -4.858,11.98 -7.912,11.759C-10.966,11.538 -12.818,7.785 -10.635,2.854C-8.452,-2.077 -4.109,-1.39 -4.109,-1.39C-2.405,-1.39 1.03,-0.053 0,5.168M3.078,-14.024L1.557,-6.026C1.557,-6.026 -1.141,-7.965 -4.183,-7.965C-7.225,-7.965 -13.063,-6.517 -16.154,0.793C-19.245,8.104 -16.939,16.199 -10.414,17.868C-10.414,17.868 -6.194,19.192 -2.711,16.984L-2.613,17.868L3.471,17.868L9.015,-14.024L3.078,-14.024Z" style="fill:rgb(56,56,56);fill-rule:nonzero;"/>
        </g>
        <g transform="matrix(1,0,0,1,662.2542,553.9971)">
            <path d="M0,-0.891C-1.03,4.33 -4.857,5.921 -7.911,5.7C-10.966,5.479 -12.818,1.725 -10.634,-3.206C-8.451,-8.136 -4.109,-7.45 -4.109,-7.45C-2.404,-7.45 1.03,-6.112 0,-0.891M1.907,-13.043L1.558,-12.086C1.558,-12.086 -1.141,-14.024 -4.183,-14.024C-7.224,-14.024 -13.063,-12.577 -16.154,-5.266C-19.245,2.045 -16.939,10.14 -10.414,11.808C-10.414,11.808 -6.194,13.133 -2.711,10.925L-2.612,11.808L3.471,11.808L7.779,-12.971L1.907,-13.043Z" style="fill:rgb(56,56,56);fill-rule:nonzero;"/>
        </g>
        <g transform="matrix(1,0,0,1,635.5323,541.0039)">
            <path d="M0,24.801L6.035,24.801L10.524,0L4.637,0L0,24.801Z" style="fill:rgb(56,56,56);fill-rule:nonzero;"/>
        </g>
        <g transform="matrix(-0.241281,0.970455,0.970455,0.241281,646.430144,534.673441)">
            <path d="M0.49,-5.117L5.368,-5.117L3.947,0.596L-0.878,0.383L0.49,-5.117Z" style="fill:rgb(56,56,56);fill-rule:nonzero;"/>
        </g>
        <g transform="matrix(1,0,0,1,781.3248,566.1486)">
            <path d="M0,-32.382L5.986,-32.382L0.294,0L-5.936,0L0,-32.382Z" style="fill:rgb(56,56,56);fill-rule:nonzero;"/>
        </g>
        <g transform="matrix(1,0,0,1,751.6422,546.2939)">
            <path d="M0,13.853C-4.49,13.862 -5.275,8.065 -2.969,4.13C-0.663,0.195 3.271,0.619 3.271,0.619C4.223,0.619 7.557,1.521 7.507,5.857C7.456,10.194 4.373,13.844 0,13.853M4.955,-5.707C4.955,-5.707 -3.337,-6.885 -7.851,0.818C-12.365,8.521 -10.549,19.659 -1.448,20.198C7.653,20.738 13.148,13.035 13.246,4.547C13.345,-3.941 6.819,-5.707 4.955,-5.707" style="fill:rgb(56,56,56);fill-rule:nonzero;"/>
        </g>
        <g transform="matrix(1,0,0,1,767.7833,565.4064)">
            <path d="M0,-24.084L6.035,-24.084L6.035,-23.741C6.035,-23.741 7.857,-24.826 11.242,-24.44L10.267,-18.515C10.267,-18.515 5.188,-19.178 4.379,-14.247C3.569,-9.316 1.693,0.742 1.693,0.742L-4.49,0.742L0,-24.084Z" style="fill:rgb(56,56,56);fill-rule:nonzero;"/>
        </g>
        <g transform="matrix(1,0,0,1,706.5476,550.5762)">
            <path d="M0,-4.649C-0.061,-4.726 -10.476,-17.762 -20.357,-8.076C-20.357,-8.076 -15.008,-17.889 -0.83,-8.077C-1.447,-9.817 -2.334,-11.432 -3.444,-12.874C-3.502,-12.897 -19.97,-19.191 -22.957,-6.114C-22.957,-6.114 -23.734,-17.702 -5.587,-15.196C-6.92,-16.406 -8.441,-17.42 -10.104,-18.192C-28.55,-16.506 -24.135,-3.072 -24.135,-3.072C-29.451,-14.631 -14.092,-19.409 -13.909,-19.466C-15.156,-19.734 -16.451,-19.877 -17.781,-19.877C-18.575,-19.877 -19.358,-19.826 -20.125,-19.728C-33.234,-9.34 -23.939,-0.373 -23.939,-0.373C-33.887,-8.615 -23.52,-18.876 -23.394,-19C-25.593,-18.291 -27.604,-17.178 -29.335,-15.75C-34.425,-0.982 -22.025,2.51 -22.025,2.51C-33.622,0.16 -31.797,-13.126 -31.771,-13.31C-32.832,-12.018 -33.71,-10.576 -34.366,-9.022C-32.495,5.785 -19.327,3.846 -19.327,3.846C-28.951,6.69 -34.445,-2.832 -35.523,-4.929C-35.652,-4.079 -35.72,-3.21 -35.72,-2.325C-35.72,-1.53 -35.664,-0.748 -35.56,0.019C-35.487,0.119 -28.246,9.997 -16.677,3.895C-16.677,3.895 -24.65,11.437 -34.899,2.937C-34.331,4.707 -33.485,6.356 -32.411,7.835C-32.411,7.835 -18.34,13.059 -13.292,2.227C-13.292,2.227 -13.811,11.56 -29.773,10.729C-28.535,11.817 -27.143,12.74 -25.631,13.461C-9.653,11.694 -11.525,-0.57 -11.525,-0.57C-8.805,8.365 -18.236,12.781 -23.133,14.433C-21.443,14.95 -19.645,15.228 -17.781,15.228C-17.409,15.228 -17.041,15.216 -16.676,15.194C-16.52,15.088 -2.891,5.752 -11.575,-4.25C-11.575,-4.25 -1.655,1.922 -13.433,14.708C-11.403,14.213 -9.51,13.381 -7.82,12.274C-7.777,12.198 0.31,-2.349 -13.979,-7.488C-13.979,-7.488 -1.26,-6.544 -5.044,10.033C-3.602,8.611 -2.409,6.948 -1.529,5.112C-1.541,4.909 -2.538,-11.835 -17.217,-8.543C-17.217,-8.543 -6.846,-14.597 -0.281,1.541C0.005,0.297 0.157,-0.996 0.157,-2.325C0.157,-3.113 0.102,-3.889 0,-4.649" style="fill:rgb(56,56,56);fill-rule:nonzero;"/>
        </g>
    </g>
</svg>
