<?xml version="1.0" encoding="UTF-8" standalone="no"?>
<!DOCTYPE svg PUBLIC "-//W3C//DTD SVG 1.1//EN" "http://www.w3.org/Graphics/SVG/1.1/DTD/svg11.dtd">
<svg width="100%" height="100%" viewBox="0 0 500 200" version="1.1" xmlns="http://www.w3.org/2000/svg" xmlns:xlink="http://www.w3.org/1999/xlink" xml:space="preserve" xmlns:serif="http://www.serif.com/" style="fill-rule:evenodd;clip-rule:evenodd;stroke-linejoin:round;stroke-miterlimit:2;">
    <g transform="matrix(1.487402,0,0,1.487402,217.409149,71.056631)">
        <path d="M0,36.006C0.957,18.096 10.682,3.222 11.017,-3.051C11.152,-5.576 9.809,-7.563 6.784,-7.429C1.681,-7.203 -7.443,0.089 -12.007,9.264C-14.532,1.544 -20.651,6.105 -23.535,9.499C-22.995,-5.008 -27.433,-6.251 -30.026,-6.136C-38.113,-5.778 -46.559,5.112 -51.134,13.006C-55.363,20.305 -66.132,42.054 -57.568,43.35C-55.449,43.671 -53.303,41.251 -51.823,35.662C-46.231,14.556 -39.549,9.725 -36.837,9.93C-29.659,10.473 -38.93,37.206 -42.095,46.626C-43.86,51.644 -45.375,59.779 -39.642,59.525C-33.243,59.242 -30.557,43.115 -29.031,34.349C-27.304,24.749 -24.849,21.639 -22.393,21.845C-19.513,22.19 -20.721,27.95 -22.622,33.469C-24.333,39.097 -30.199,52.849 -23.297,53.449C-16.338,53.692 -16.644,41.072 -14.73,33.119C-11.819,21.141 -8.566,13.047 -5.077,13.719C-0.778,14.631 -10.822,30.346 -11.488,42.812C-12.004,52.477 -7.639,59.486 -1.305,56.765C5.367,53.597 -0.516,45.671 0,36.006M87.272,0.793C83.832,6.121 85.065,6.747 82.547,10.572C80.523,13.647 77.714,14.448 76.667,12.852C75.62,11.255 76.678,7.726 79.031,4.969C81.384,2.212 88.833,-1.624 87.272,0.793M53.025,11.318C52.797,11.333 52.393,11.129 52.561,10.697C53.364,8.625 54.66,6.821 56.299,5.424C57.75,4.187 59.305,3.444 60.456,3.437C61.543,3.43 62.187,4.102 62.135,5.19C62.094,6.049 61.572,7.086 60.571,8.011C57.016,11.295 53.327,11.299 53.025,11.318M103.708,5.039C101.341,4.957 97.847,8.857 94.991,8.867C93.108,8.874 92.969,7.434 94.096,5.022C98.278,-3.928 93.199,-3.642 92.11,-2.8C92.11,-2.8 95.74,-9.201 89.337,-9.178C81.448,-9.149 74.447,-2.531 70.783,7.314C69.445,10.666 66.496,17.831 63.397,18.721C60.429,19.527 60.438,15.636 58.541,14.932C71.152,6.434 71.296,-0.428 69.318,-2.763C67.524,-4.807 61.566,-5.455 54.168,2.187C55.978,-4.598 61.109,-8.77 62.34,-15.594C62.982,-19.612 60.025,-23.773 54.409,-17.085C50.603,-12.569 48.633,-4.31 44.961,6.237C42.765,12.646 38.411,24.18 34.518,24.194C32.82,24.2 32.342,22.68 32.872,18.494C33.878,10.29 40.477,0.856 42.785,-5.93C44.504,-10.455 42.8,-13.126 40.843,-13.58C38.224,-14.072 34.504,-11.59 31.739,-4.802C29.551,-0.108 27.767,6.341 26.455,13.668C25.236,19.781 20.409,31.783 15.716,31.173C13.965,30.945 15.741,26.545 17.89,22.162C19.716,18.441 21.155,13.945 17.301,13.938C11.363,13.928 7.007,26.17 6.304,35.294C5.962,39.73 5.811,44.862 9.244,44.85C13.467,44.835 18.956,40.408 24.089,32.691C24.46,36.992 29.947,42.706 40.527,27.362C40.684,29.701 41.214,33.169 42.982,33.277C42.982,33.277 44.608,33.727 46.287,29.916C47.966,26.106 49.796,21.294 50.18,20.379C51.076,18.242 52.748,17.84 52.905,21.485C53.066,25.227 54.064,28.002 57.109,27.991C63.088,27.969 68.271,22.488 69.759,20.419C70.617,23.651 77.957,24.796 85.954,15.116C86.31,17.681 88.535,21.41 98.605,13.564C104.959,8.688 105.523,5.102 103.708,5.039M15.913,9.943C16.922,10.034 20.686,9.721 21.527,13.447C25.094,10.015 24.401,5.495 21.854,3.708C17.569,0.702 13.003,3.45 12.589,6.559C12.323,8.559 13.489,9.725 15.913,9.943" style="fill:rgb(56,56,56);fill-rule:nonzero;"/>
    </g>
</svg>
