<?xml version="1.0" encoding="UTF-8" standalone="no"?>
<!DOCTYPE svg PUBLIC "-//W3C//DTD SVG 1.1//EN" "http://www.w3.org/Graphics/SVG/1.1/DTD/svg11.dtd">
<svg width="100%" height="100%" viewBox="0 0 500 200" version="1.1" xmlns="http://www.w3.org/2000/svg" xmlns:xlink="http://www.w3.org/1999/xlink" xml:space="preserve" xmlns:serif="http://www.serif.com/" style="fill-rule:evenodd;clip-rule:evenodd;stroke-linejoin:round;stroke-miterlimit:2;">
    <g transform="matrix(1.487402,0,0,1.487402,-11.35734,-712.239081)">
        <g transform="matrix(1,0,0,1,249.2425,545.1781)">
            <path d="M0,1.8C0.005,5.383 -2.789,8.424 -7.811,8.432C-9.906,8.435 -11.678,7.743 -13.035,6.894L-13.036,7.956L-16.406,7.961L-16.412,0.82L-13.245,0.816C-12.863,3.058 -10.737,4.328 -8.183,4.389C-6.376,4.433 -5.448,3.077 -5.45,2.257C-5.451,1.219 -6.074,0.535 -7.029,0.164C-8.228,-0.301 -10.003,-0.658 -11.587,-1.258C-14.673,-2.428 -16.217,-4.062 -16.221,-7.061C-16.227,-10.702 -13.178,-13.234 -9.03,-13.22C-7.329,-13.215 -5.598,-12.755 -4.471,-11.989L-4.478,-12.996L-0.915,-13.001L-0.906,-6.874L-4.257,-6.869C-4.731,-8.353 -6.56,-9.576 -8.691,-9.573C-10.041,-9.571 -10.749,-8.851 -10.748,-7.774C-10.745,-6.28 -9.19,-5.851 -5.342,-4.785C-1.441,-3.704 -0.004,-0.918 0,1.8M-79.88,-6.54C-79.88,-8.316 -81.495,-9.047 -82.662,-9.047C-84.204,-9.046 -85.359,-8.21 -85.359,-6.49C-85.359,-5.058 -82.661,-3.149 -82.661,-3.149C-82.661,-3.149 -79.88,-4.383 -79.88,-6.54M-87.097,6.648C-87.097,8.681 -85.303,10.299 -82.788,10.299C-80.273,10.298 -78.752,8.949 -78.752,8.949L-84.943,3.086C-84.943,3.086 -87.098,4.221 -87.097,6.648M-74.564,-6.438C-74.564,-2.199 -79.254,-0.026 -79.254,-0.026L-74.342,4.752C-73.061,3.47 -72.791,1.117 -72.791,1.117L-66.825,1.116L-66.824,5.317L-68.919,5.318C-68.919,5.318 -69.48,6.831 -70.814,8.164C-70.756,8.222 -69.262,9.573 -69.262,9.573L-66.823,9.572L-66.822,13.787L-73.541,13.788L-75.055,12.338C-75.055,12.338 -77.982,15.163 -83.789,15.164C-89.334,15.165 -93.202,11.616 -93.203,6.937C-93.204,2.095 -88.306,-0.154 -88.306,-0.154C-89.431,-1.279 -91.069,-2.793 -91.07,-5.828C-91.071,-10.852 -86.896,-13.178 -82.734,-13.179C-78.136,-13.18 -74.565,-10.815 -74.564,-6.438M-89.031,16.914L-89.031,23.13L-103.356,23.13L-103.356,-8.701C-103.356,-11.102 -105.299,-12.124 -107.702,-12.124C-110.105,-12.124 -112.042,-11.156 -112.042,-8.701L-112.039,13.335C-112.039,15.288 -111.123,16.511 -109.355,16.511L-109.355,23.131L-123.613,23.131L-123.613,-8.7C-123.613,-11.096 -125.556,-12.124 -127.959,-12.124C-130.447,-12.124 -132.301,-11.047 -132.301,-8.7L-132.301,13.335C-132.301,15.288 -131.385,16.511 -129.617,16.511L-129.617,23.131L-147.057,23.131L-147.057,16.511C-144.962,16.511 -143.88,15.289 -143.88,13.336L-143.861,-10.548C-143.861,-12.281 -144.963,-13.558 -147.057,-13.558L-147.057,-20.683L-133.015,-20.683L-133.015,-18.498C-129.751,-20.468 -126.462,-21.328 -122.576,-21.328C-118.817,-21.328 -115.746,-20.238 -114.17,-18.286C-111.048,-20.236 -107.547,-21.328 -103.781,-21.328C-96.39,-21.328 -92.534,-18.017 -91.83,-13.412L-91.829,-13.409C-91.822,-13.363 -91.774,-12.867 -91.695,-12.035L-91.694,-12.035C-93.069,-10.34 -93.808,-8.199 -93.808,-5.827C-93.807,-2.292 -92.13,-0.648 -92.106,-0.623C-92.149,-0.6 -92.325,-0.495 -92.377,-0.457C-92.445,-0.407 -95.942,2.156 -95.941,6.937C-95.94,10.014 -94.68,12.825 -92.391,14.854C-91.417,15.718 -90.28,16.408 -89.031,16.914M-17.084,23.13L-31.41,23.129C-31.41,23.129 -31.409,-7.102 -31.408,-8.701C-31.408,-11.103 -33.35,-12.126 -35.753,-12.126C-38.157,-12.126 -40.093,-11.157 -40.093,-8.701L-40.092,13.334C-40.093,15.287 -39.177,16.509 -37.408,16.51L-37.41,23.13L-51.667,23.128L-51.664,-8.703C-51.666,-11.097 -53.608,-12.127 -56.011,-12.127C-58.499,-12.127 -60.353,-11.05 -60.354,-8.703L-60.354,13.332C-60.353,15.286 -59.437,16.508 -57.67,16.508L-57.67,23.129L-75.11,23.128L-75.11,16.525L-64.084,16.524L-64.087,-1.622L-73.655,-1.621C-73.655,-1.621 -71.826,-3.322 -71.827,-6.439C-71.827,-9.292 -72.993,-11.791 -75.109,-13.5L-75.109,-20.686L-61.066,-20.685L-61.066,-18.501C-57.802,-20.47 -54.514,-21.331 -50.626,-21.329C-46.868,-21.329 -43.798,-20.239 -42.221,-18.288C-39.1,-20.237 -35.599,-21.329 -31.832,-21.328C-23.609,-21.327 -19.761,-17.232 -19.76,-11.815L-19.768,13.085C-19.796,15.02 -19.123,16.489 -17.086,16.513L-17.084,23.13ZM-14.016,-13.784L-17.12,-13.793L-14.561,-19.752L-10.544,-19.746L-14.016,-13.784ZM-7.057,-15.181L-7.058,-15.186C-8.119,-15.174 -8.975,-16 -8.98,-17.228C-8.985,-18.455 -8.135,-19.278 -7.076,-19.283C-6.045,-19.289 -5.166,-18.475 -5.161,-17.245C-5.157,-16.014 -6.027,-15.184 -7.057,-15.181M-4.389,-17.247C-4.397,-18.934 -5.666,-19.912 -7.079,-19.905C-8.499,-19.898 -9.756,-18.911 -9.75,-17.224C-9.742,-15.536 -8.473,-14.56 -7.057,-14.566C-5.643,-14.573 -4.383,-15.559 -4.389,-17.247M-6.968,-17.499L-7.511,-17.495L-7.517,-18.187L-7.087,-18.189C-6.853,-18.19 -6.535,-18.168 -6.532,-17.874C-6.531,-17.556 -6.695,-17.499 -6.968,-17.499M-6.566,-17.063C-6.181,-17.092 -5.874,-17.283 -5.877,-17.814C-5.881,-18.47 -6.318,-18.679 -7.06,-18.677L-8.132,-18.671L-8.12,-15.795L-7.506,-15.799L-7.512,-17.007L-7.221,-17.009L-6.553,-15.807L-5.826,-15.808L-6.566,-17.063Z" style="fill:rgb(56,56,56);fill-rule:nonzero;"/>
        </g>
    </g>
</svg>
