<?xml version="1.0" encoding="UTF-8" standalone="no"?>
<!DOCTYPE svg PUBLIC "-//W3C//DTD SVG 1.1//EN" "http://www.w3.org/Graphics/SVG/1.1/DTD/svg11.dtd">
<svg width="100%" height="100%" viewBox="0 0 500 200" version="1.1" xmlns="http://www.w3.org/2000/svg" xmlns:xlink="http://www.w3.org/1999/xlink" xml:space="preserve" xmlns:serif="http://www.serif.com/" style="fill-rule:evenodd;clip-rule:evenodd;stroke-linejoin:round;stroke-miterlimit:2;">
    <g transform="matrix(1.487402,0,0,1.487402,-1558.679356,-523.410648)">
        <g transform="matrix(1,0,0,1,1126.2725,429.7129)">
            <path d="M0,-1.635C-1.057,-0.674 -2.583,-0.353 -3.538,-0.23C-5.484,0.013 -7.499,-0.635 -8.783,-2.188C-9.839,-3.456 -10.379,-5.098 -11.41,-6.412C-13.037,-8.491 -15.638,-9.854 -18.316,-9.372C-23.614,-8.409 -26.017,-2.215 -23.023,2.081C-18.743,8.219 -9.118,7.157 -4.178,2.904C-2.64,1.58 -1.204,0.109 0,-1.635" style="fill:rgb(56,56,56);fill-rule:nonzero;"/>
        </g>
        <g transform="matrix(1,0,0,1,1305.7275,429.7148)">
            <path d="M0,-1.638C1.059,-0.674 2.579,-0.354 3.539,-0.233C5.484,0.012 7.5,-0.636 8.783,-2.19C9.837,-3.459 10.382,-5.1 11.41,-6.414C13.04,-8.493 15.639,-9.855 18.318,-9.374C23.612,-8.412 26.016,-2.217 23.02,2.079C18.741,8.217 9.118,7.156 4.181,2.902C2.641,1.58 1.203,0.107 0,-1.638" style="fill:rgb(56,56,56);fill-rule:nonzero;"/>
        </g>
        <g transform="matrix(1,0,0,1,1288.0917,400.856)">
            <path d="M0,-5.522C-0.133,-5.526 -12.774,-5.526 -12.891,-5.523C-14.277,-5.481 -15.422,-4.194 -15.488,-2.871C-15.557,-1.464 -14.339,-0.071 -12.891,-0C-12.756,0.004 -0.117,0.004 0,-0C1.386,-0.043 2.533,-1.329 2.596,-2.652C2.667,-4.059 1.448,-5.452 0,-5.522" style="fill:rgb(56,56,56);fill-rule:nonzero;"/>
        </g>
        <g transform="matrix(1,0,0,1,1207.5861,407.3051)">
            <path d="M0,15.575C-0.177,14.842 -0.271,14.119 -0.322,13.392C-0.33,12.341 -0.33,10.865 -0.33,9.507C-0.198,4.818 0.675,-3.432 -5.669,-3.432C-9.953,-3.432 -12.49,0.183 -13.209,1.364C-13.312,-1.931 -15.903,-4.321 -19.864,-4.321C-22.391,-4.321 -23.893,-2.306 -23.893,-2.306C-23.893,-2.306 -21.428,-1.448 -21.428,1.873C-21.402,4.25 -21.432,15.829 -21.428,15.877C-21.33,17.93 -19.9,19.853 -17.343,19.853C-14.787,19.853 -13.199,17.882 -13.199,15.874L-13.199,5.605C-12.843,3.926 -11.901,2.214 -10.481,2.214C-8.64,2.214 -8.537,4.268 -8.527,4.268L-8.537,14.209C-8.527,14.531 -8.486,14.842 -8.431,15.146C-8.339,15.663 -8.183,16.146 -7.959,16.588C-6.976,18.59 -4.802,19.896 -1.881,19.896C0.643,19.896 2.145,17.88 2.145,17.88C2.145,17.88 0.663,17.356 0,15.575" style="fill:rgb(56,56,56);fill-rule:nonzero;"/>
        </g>
        <g transform="matrix(1,0,0,1,1268.5605,396.0831)">
            <path d="M0,26.797C-0.179,26.064 -0.275,25.341 -0.322,24.614L-0.315,0.011C-0.315,-2.381 -2.248,-4.321 -4.635,-4.321C-7.02,-4.321 -8.955,-2.381 -8.955,0.011L-8.949,21.8C-8.928,23.762 -9.12,25.767 -8.196,27.57C-7.218,29.574 -4.804,31.118 -1.885,31.118C0.646,31.118 2.145,29.102 2.145,29.102C2.145,29.102 0.666,28.578 0,26.797" style="fill:rgb(56,56,56);fill-rule:nonzero;"/>
        </g>
        <g transform="matrix(1,0,0,1,1172.1029,408.66)">
            <path d="M0,13.541L0,13.547C-0.01,13.547 -0.018,13.544 -0.026,13.544C-0.034,13.544 -0.043,13.547 -0.05,13.547L-0.05,13.541C-2.266,13.5 -3.378,10.946 -3.378,6.77C-3.378,2.599 -1.97,0.042 -0.05,-0.004L0,-0.004C1.918,0.042 3.326,2.599 3.326,6.77C3.326,10.946 2.218,13.5 0,13.541M-0.087,-5.001C-6.571,-5.001 -11.825,0.267 -11.825,6.77C-11.825,13.272 -6.571,18.542 -0.087,18.542C6.396,18.542 11.654,13.272 11.654,6.77C11.654,0.267 6.396,-5.001 -0.087,-5.001" style="fill:rgb(56,56,56);fill-rule:nonzero;"/>
        </g>
        <g transform="matrix(1,0,0,1,1221.114,397.8131)">
            <path d="M0,23.635L0,23.639C-0.01,23.639 -0.015,23.638 -0.025,23.638C-0.034,23.638 -0.04,23.639 -0.05,23.639L-0.05,23.635C-2.267,23.602 -3.377,21.374 -3.377,17.737C-3.377,14.102 -1.97,11.877 -0.05,11.836L-0.05,11.833C-0.04,11.833 -0.034,11.836 -0.025,11.836C-0.015,11.836 -0.01,11.833 0,11.833L0,11.836C1.922,11.877 3.329,14.102 3.329,17.737C3.329,21.374 2.216,23.602 0,23.635M12.876,25.066C12.697,24.334 12.602,23.612 12.554,22.884L12.56,-1.718C12.56,-4.11 10.626,-6.05 8.24,-6.05C5.853,-6.05 3.918,-4.11 3.918,-1.718L3.902,9.935C2.862,8.484 0.573,6.031 -3.033,6.031C-12.956,6.031 -13.583,23.749 -6.778,28.132C-4.859,29.366 -1.968,29.685 0.223,29.114C1.734,28.718 4.116,27.231 4.5,25.452C4.555,25.582 4.613,25.711 4.679,25.841C5.659,27.844 8.072,29.388 10.991,29.388C13.522,29.388 15.021,27.373 15.021,27.373C15.021,27.373 13.543,26.849 12.876,25.066" style="fill:rgb(56,56,56);fill-rule:nonzero;"/>
        </g>
        <g transform="matrix(1,0,0,1,1243.8507,416.9015)">
            <path d="M0,-2.807C0.252,-4.664 0.696,-7.004 2.361,-8.088C3.744,-8.988 5.681,-7.962 5.71,-6.228C5.741,-4.395 4.56,-3.148 2.916,-2.802C2.741,-2.764 -0.025,-2.625 0,-2.807M12.619,3.015C12.619,3.015 11.351,4.757 6.436,4.757C1.519,4.757 0.465,0.924 0.465,0.924C7.628,0.924 13.636,0.443 13.636,-5.373C13.636,-11.188 7.082,-13.106 3.195,-13.106C-3.223,-13.106 -7.911,-7.973 -7.911,-1.199C-7.911,6.43 -1.805,10.299 3.263,10.299C12.19,10.299 12.619,3.015 12.619,3.015" style="fill:rgb(56,56,56);fill-rule:nonzero;"/>
        </g>
        <g transform="matrix(1,0,0,1,1278.4148,416.9015)">
            <path d="M0,-2.807C0.252,-4.664 0.696,-7.004 2.361,-8.088C3.744,-8.988 5.681,-7.962 5.71,-6.228C5.742,-4.395 4.561,-3.148 2.916,-2.802C2.742,-2.764 -0.025,-2.625 0,-2.807M12.619,3.015C12.619,3.015 11.351,4.757 6.436,4.757C1.519,4.757 0.465,0.924 0.465,0.924C7.628,0.924 13.636,0.443 13.636,-5.373C13.636,-11.188 7.082,-13.106 3.195,-13.106C-3.223,-13.106 -7.911,-7.973 -7.911,-1.199C-7.911,6.43 -1.805,10.299 3.263,10.299C12.19,10.299 12.619,3.015 12.619,3.015" style="fill:rgb(56,56,56);fill-rule:nonzero;"/>
        </g>
        <g transform="matrix(1,0,0,1,1307.2428,412.7286)">
            <path d="M0,7.818L-4.923,7.818C-4.561,7.818 -0.918,4.739 0.289,3.714C3.451,1.021 9.138,-2.862 7.481,-7.891L7.485,-7.857C7.181,-9.054 6.26,-9.746 6.26,-9.746C6.26,-9.746 5.916,-8.768 4.748,-8.33C4.269,-8.214 3.792,-8.127 3.315,-8.098C2.922,-8.09 -10.444,-8.098 -10.444,-8.098C-12.252,-8.101 -13.767,-6.642 -13.792,-4.923C-13.813,-3.188 -12.384,-1.797 -10.551,-1.772L-2.753,-1.723C-6.369,0.298 -10.684,2.693 -12.876,6.348C-14.127,8.445 -15.468,11.68 -14.957,14.162C-13.225,12.621 -8.678,11.131 -5.218,11.855C-3.922,12.128 -2.545,12.79 -1.424,13.493C5.067,17.564 8.967,9.601 5.864,6.09C5.864,6.09 4.094,7.818 0,7.818" style="fill:rgb(56,56,56);fill-rule:nonzero;"/>
        </g>
        <g transform="matrix(1,0,0,1,1160.9126,403.6321)">
            <path d="M0,21.867C-3.982,17.49 -5.227,10.21 -5.472,5.371C-5.682,1.19 -5.457,-6.049 -2.172,-8.156C-3.272,-9.542 -5.442,-10.102 -7.089,-10.102C-10.794,-10.102 -12.579,-7.627 -13.845,-5.848C-14.264,-5.261 -20.493,3.355 -20.493,3.355C-20.493,3.355 -25.731,-4.771 -26.375,-5.748C-27.264,-7.095 -28.93,-9.571 -31.858,-10C-33.12,-10.184 -36.391,-10.351 -38.171,-7.901C-35.102,-5.439 -35.179,0.832 -35.845,5.113C-37.844,17.962 -43.297,19.147 -43.297,19.147C-40.504,26.71 -33.311,23.723 -31.279,17.691C-29.962,13.771 -29.112,8.809 -28.915,4.695L-21.022,16.837C-21.022,16.837 -12.084,4.732 -12.084,4.743C-13.556,26.149 -6.224,32.218 0.187,32.218C6.604,32.218 8.787,26.334 8.787,26.334C5.317,26.125 2.281,24.375 0,21.867" style="fill:rgb(56,56,56);fill-rule:nonzero;"/>
        </g>
        <g transform="matrix(1,0,0,1,1180.9352,444.6748)">
            <path d="M0,-12.213C0.077,-11.899 0.117,-11.588 0.137,-11.278C0.139,-11.183 0.132,-0.079 0.137,0.055C0.165,0.987 1.026,1.756 1.911,1.8C2.852,1.849 3.784,1.028 3.83,0.055C3.835,-0.073 3.83,-10.075 3.83,-10.075C3.822,-10.914 3.903,-11.772 3.509,-12.544C3.089,-13.401 2.057,-14.062 0.808,-14.062C-0.276,-14.062 -0.918,-13.199 -0.918,-13.199C-0.918,-13.199 -0.285,-12.975 0,-12.213" style="fill:rgb(56,56,56);fill-rule:nonzero;"/>
        </g>
        <g transform="matrix(1,0,0,1,1298.0089,432.4172)">
            <path d="M0,12.211C-0.077,11.895 -0.118,11.588 -0.137,11.276C-0.139,11.181 -0.132,0.077 -0.136,-0.056C-0.165,-0.989 -1.026,-1.758 -1.911,-1.802C-2.851,-1.849 -3.784,-1.029 -3.83,-0.056C-3.835,0.071 -3.83,10.073 -3.83,10.073C-3.822,10.911 -3.903,11.77 -3.509,12.543C-3.089,13.399 -2.057,14.06 -0.807,14.06C0.276,14.06 0.917,13.198 0.917,13.198C0.917,13.198 0.285,12.972 0,12.211" style="fill:rgb(56,56,56);fill-rule:nonzero;"/>
        </g>
        <g transform="matrix(1,0,0,1,1231.188,445.9719)">
            <path d="M0,-9.61C-1.919,-9.61 -3.056,-7.99 -3.379,-7.461L-3.39,-7.452C-3.39,-7.989 -3.392,-8.412 -3.392,-8.434C-3.421,-9.366 -4.28,-10.062 -5.165,-10.106C-6.104,-10.153 -7.038,-9.406 -7.083,-8.434C-7.088,-8.307 -7.088,-1.345 -7.083,-1.249C-7.056,-0.319 -6.195,0.452 -5.311,0.496C-4.371,0.543 -3.44,-0.277 -3.392,-1.249C-3.39,-1.322 -3.389,-3.593 -3.389,-5.551L-3.374,-5.561C-3.216,-6.312 -2.794,-7.081 -2.157,-7.081C-1.331,-7.081 -1.285,-6.16 -1.281,-6.16L-1.29,-1.249C-1.262,-0.319 -0.401,0.452 0.484,0.496C1.424,0.543 2.355,-0.277 2.402,-1.249L2.396,-3.817C2.396,-6.456 2.673,-9.622 0,-9.61" style="fill:rgb(56,56,56);fill-rule:nonzero;"/>
        </g>
        <g transform="matrix(1,0,0,1,1278.3884,445.9719)">
            <path d="M0,-9.61C-1.919,-9.61 -3.056,-7.99 -3.38,-7.461L-3.391,-7.452C-3.391,-7.989 -3.392,-8.412 -3.392,-8.434C-3.421,-9.366 -4.28,-10.062 -5.166,-10.106C-6.104,-10.153 -7.038,-9.406 -7.083,-8.434C-7.088,-8.307 -7.088,-1.345 -7.083,-1.249C-7.056,-0.319 -6.195,0.452 -5.311,0.496C-4.371,0.543 -3.44,-0.277 -3.392,-1.249C-3.391,-1.322 -3.389,-3.593 -3.389,-5.551L-3.374,-5.561C-3.216,-6.312 -2.794,-7.081 -2.157,-7.081C-1.331,-7.081 -1.286,-6.16 -1.281,-6.16L-1.29,-1.249C-1.262,-0.319 -0.401,0.452 0.484,0.496C1.424,0.543 2.355,-0.277 2.402,-1.249L2.396,-3.817C2.396,-6.456 2.673,-9.622 0,-9.61" style="fill:rgb(56,56,56);fill-rule:nonzero;"/>
        </g>
        <g transform="matrix(1,0,0,1,1193.6975,445.9719)">
            <path d="M0,-9.61C-1.919,-9.61 -3.056,-7.99 -3.38,-7.461L-3.389,-7.452C-3.391,-7.989 -3.392,-8.412 -3.392,-8.434C-3.419,-9.366 -4.28,-10.062 -5.166,-10.106C-6.105,-10.153 -7.037,-9.406 -7.083,-8.434C-7.088,-8.307 -7.088,-1.345 -7.083,-1.249C-7.055,-0.319 -6.195,0.452 -5.31,0.496C-4.371,0.543 -3.44,-0.277 -3.392,-1.249C-3.389,-1.322 -3.389,-3.593 -3.389,-5.551L-3.374,-5.561C-3.216,-6.312 -2.794,-7.081 -2.156,-7.081C-1.331,-7.081 -1.286,-6.16 -1.281,-6.16L-1.29,-1.249C-1.262,-0.319 -0.401,0.452 0.484,0.496C1.424,0.543 2.355,-0.277 2.402,-1.249L2.396,-3.817C2.396,-6.456 2.673,-9.622 0,-9.61" style="fill:rgb(56,56,56);fill-rule:nonzero;"/>
        </g>
        <g transform="matrix(1,0,0,1,1265.0415,438.1361)">
            <path d="M0,6.068L0,6.071C-0.005,6.071 -0.008,6.069 -0.012,6.069C-0.016,6.069 -0.021,6.071 -0.022,6.071L-0.022,6.068C-1.016,6.049 -1.514,4.906 -1.514,3.035C-1.514,1.167 -0.883,0.021 -0.022,0L0,0C0.859,0.021 1.489,1.167 1.489,3.035C1.489,4.906 0.993,6.049 0,6.068M-0.038,-2.239C-2.944,-2.239 -5.299,0.122 -5.299,3.035C-5.299,5.948 -2.944,8.307 -0.038,8.307C2.865,8.307 5.222,5.948 5.222,3.035C5.222,0.122 2.865,-2.239 -0.038,-2.239" style="fill:rgb(56,56,56);fill-rule:nonzero;"/>
        </g>
        <g transform="matrix(1,0,0,1,1239.7209,438.2417)">
            <path d="M0,5.558L0,5.559L-0.023,5.559L-0.023,5.558C-1.016,5.543 -1.512,4.543 -1.512,2.914C-1.512,1.287 -0.883,0.289 -0.023,0.271L-0.023,0.269C-0.018,0.269 -0.015,0.271 -0.01,0.271C-0.007,0.271 -0.003,0.269 0,0.269L0,0.271C0.861,0.289 1.492,1.287 1.492,2.914C1.492,4.543 0.993,5.543 0,5.558M5.642,-0.831C5.611,-1.807 4.695,-2.614 3.77,-2.661C2.784,-2.709 1.808,-1.851 1.758,-0.831C1.757,-0.759 1.749,-0.608 1.749,-0.581C1.281,-1.231 0.257,-2.33 -1.358,-2.33C-5.805,-2.33 -6.085,5.609 -3.037,7.572C-2.177,8.125 -0.881,8.267 0.1,8.012C0.654,7.867 1.471,7.393 1.842,6.788C2.071,7.567 2.84,8.161 3.631,8.201C4.617,8.249 5.592,7.392 5.642,6.371C5.647,6.239 5.644,-0.741 5.642,-0.831" style="fill:rgb(56,56,56);fill-rule:nonzero;"/>
        </g>
        <g transform="matrix(1,0,0,1,1286.8839,438.2417)">
            <path d="M0,5.558L0,5.559L-0.023,5.559L-0.023,5.558C-1.016,5.543 -1.514,4.543 -1.514,2.914C-1.514,1.287 -0.883,0.289 -0.023,0.271L-0.023,0.269C-0.018,0.269 -0.015,0.271 -0.011,0.271C-0.007,0.271 -0.004,0.269 0,0.269L0,0.271C0.861,0.289 1.49,1.287 1.49,2.914C1.49,4.543 0.993,5.543 0,5.558M5.641,-0.831C5.611,-1.807 4.695,-2.614 3.767,-2.661C2.783,-2.709 1.808,-1.851 1.758,-0.831C1.757,-0.759 1.747,-0.608 1.747,-0.581C1.281,-1.231 0.256,-2.33 -1.36,-2.33C-5.805,-2.33 -6.087,5.609 -3.037,7.572C-2.177,8.125 -0.881,8.267 0.099,8.012C0.653,7.867 1.471,7.393 1.842,6.788C2.069,7.567 2.84,8.161 3.631,8.201C4.615,8.249 5.592,7.392 5.641,6.371C5.644,6.239 5.642,-0.741 5.641,-0.831" style="fill:rgb(56,56,56);fill-rule:nonzero;"/>
        </g>
        <g transform="matrix(1,0,0,1,1258.5845,444.7098)">
            <path d="M0,-6.305C-0.044,-7.225 -0.764,-7.947 -1.673,-8.024C-1.728,-8.028 -1.778,-8.039 -1.83,-8.039C-2.652,-8.039 -3.687,-7.328 -3.687,-6.426L-3.682,-3.011L-3.687,-3.011C-3.675,-1.946 -3.689,-0.022 -3.687,0C-3.643,0.919 -2.922,1.641 -2.014,1.718C-1.959,1.725 -1.911,1.734 -1.857,1.734C-1.035,1.734 0,1.022 0,0.121L-0.004,-2.731L0,-2.731C-0.012,-3.798 0.001,-6.284 0,-6.305" style="fill:rgb(56,56,56);fill-rule:nonzero;"/>
        </g>
        <g transform="matrix(0,-1,-1,0,1256.7419,431.9556)">
            <path d="M-1.831,-1.829C-2.844,-1.829 -3.665,-1.01 -3.665,0.001C-3.665,1.013 -2.844,1.831 -1.831,1.831C-0.816,1.831 0.005,1.013 0.005,0.001C0.005,-1.01 -0.816,-1.829 -1.831,-1.829" style="fill:rgb(56,56,56);fill-rule:nonzero;"/>
        </g>
        <g transform="matrix(1,0,0,1,1221.1644,446.1425)">
            <path d="M0,-9.908C-1.097,-9.864 -1.639,-9.043 -2.385,-8.015C-2.39,-8.007 -2.384,-8.491 -2.384,-8.509C-2.413,-9.441 -3.274,-10.21 -4.156,-10.254C-5.098,-10.302 -6.029,-9.482 -6.077,-8.509L-6.077,-1.398L-6.08,-1.398C-6.051,-0.465 -5.192,0.304 -4.306,0.348C-3.374,0.394 -2.453,-0.41 -2.39,-1.371L-2.383,-1.371L-2.383,-5.875C-2.328,-6.536 -2.04,-7.36 -1.51,-7.356C-0.76,-7.35 -1.536,-5.532 0.183,-5.532C2.648,-5.532 2.912,-10.028 0,-9.908" style="fill:rgb(56,56,56);fill-rule:nonzero;"/>
        </g>
        <g transform="matrix(1,0,0,1,1207.9731,441.8226)">
            <path d="M0,-1.259C0.113,-2.092 0.312,-3.142 1.06,-3.628C1.68,-4.032 2.549,-3.571 2.563,-2.794C2.577,-1.972 2.047,-1.412 1.309,-1.256C1.231,-1.24 -0.011,-1.178 0,-1.259M5.66,1.354C5.66,1.354 5.093,2.134 2.889,2.134C0.682,2.134 0.209,0.416 0.209,0.416C3.424,0.416 6.118,0.2 6.118,-2.41C6.118,-5.019 3.177,-5.879 1.435,-5.879C-1.444,-5.879 -3.549,-3.577 -3.549,-0.538C-3.549,2.885 -0.81,4.62 1.464,4.62C5.469,4.62 5.66,1.354 5.66,1.354" style="fill:rgb(56,56,56);fill-rule:nonzero;"/>
        </g>
        <g transform="matrix(1,0,0,1,1204.2013,435.4619)">
            <path d="M0,9.033C0,9.033 -0.96,10.983 -2.735,10.983C-4.196,10.983 -5.993,9.689 -6.067,7.817C-6.069,7.799 -6.078,5.105 -6.085,2.852L-6.582,2.852C-6.84,2.852 -7.299,2.696 -7.299,2.021C-7.299,1.344 -6.784,1.2 -6.528,1.2L-6.089,1.2C-6.092,0.413 -6.092,-0.129 -6.091,-0.162C-6.045,-1.134 -5.115,-1.95 -4.177,-1.903C-3.294,-1.859 -2.413,-1.092 -2.387,-0.162L-2.387,1.2L-0.822,1.2C-0.606,1.2 -0.104,1.341 -0.104,2.03C-0.104,2.72 -0.606,2.852 -0.877,2.852L-2.387,2.852L-2.387,6.988C-2.387,8.33 -1.233,9.026 0.004,9.03" style="fill:rgb(56,56,56);fill-rule:nonzero;"/>
        </g>
        <g transform="matrix(1,0,0,1,1253.6027,435.4619)">
            <path d="M0,9.033C0,9.033 -0.96,10.983 -2.735,10.983C-4.195,10.983 -5.993,9.689 -6.067,7.817C-6.069,7.799 -6.078,5.105 -6.085,2.852L-6.582,2.852C-6.84,2.852 -7.299,2.696 -7.299,2.021C-7.299,1.344 -6.784,1.2 -6.528,1.2L-6.089,1.2C-6.092,0.413 -6.092,-0.129 -6.091,-0.162C-6.044,-1.134 -5.115,-1.95 -4.177,-1.903C-3.294,-1.859 -2.413,-1.092 -2.387,-0.162L-2.387,1.2L-0.824,1.2C-0.606,1.2 -0.104,1.341 -0.104,2.03C-0.104,2.72 -0.606,2.852 -0.877,2.852L-2.387,2.852L-2.387,6.988C-2.387,8.33 -1.233,9.026 0.004,9.03" style="fill:rgb(56,56,56);fill-rule:nonzero;"/>
        </g>
    </g>
</svg>
