<?xml version="1.0" encoding="UTF-8" standalone="no"?>
<!DOCTYPE svg PUBLIC "-//W3C//DTD SVG 1.1//EN" "http://www.w3.org/Graphics/SVG/1.1/DTD/svg11.dtd">
<svg width="100%" height="100%" viewBox="0 0 500 200" version="1.1" xmlns="http://www.w3.org/2000/svg" xmlns:xlink="http://www.w3.org/1999/xlink" xml:space="preserve" xmlns:serif="http://www.serif.com/" style="fill-rule:evenodd;clip-rule:evenodd;stroke-linejoin:round;stroke-miterlimit:2;">
    <g transform="matrix(1.487402,0,0,1.487402,-1680.952864,-908.150289)">
        <g transform="matrix(1,0,0,1,1220.2972,694.8808)">
            <path d="M0,-34.176L-8.207,-34.176L-8.207,-27.784L-0.24,-27.784C2.884,-27.784 4.182,-26.631 4.182,-23.795L4.182,-21.583C4.182,-18.796 2.932,-17.595 -0.24,-17.595L-10.958,-17.595L-10.958,-27.784L-10.938,-34.176L-18.84,-34.176L-18.84,-17.595L-29.377,-17.595C-30.623,-17.595 -31.633,-16.585 -31.633,-15.339L-31.633,-11.202L-18.84,-11.202L-18.84,3.645L-14.651,3.645C-12.611,3.645 -10.958,1.991 -10.958,-0.048L-10.958,-11.202L0,-11.202C8.027,-11.202 12.16,-14.807 12.064,-21.728L12.064,-23.65C12.064,-30.62 8.027,-34.176 0,-34.176M166.26,-33.778L166.26,-37.82L160.92,-37.82C159.674,-37.82 158.664,-36.81 158.664,-35.564L158.664,-31.522L164.004,-31.522C165.25,-31.522 166.26,-32.532 166.26,-33.778M171.616,-2.678L179.212,-2.678L179.212,-37.821L171.616,-37.821L171.616,-2.678ZM158.665,-2.678L166.261,-2.678L166.261,-28.446L158.665,-28.446L158.665,-2.678ZM145.136,-25.417L144.943,-25.417L144.415,-27.196C144.126,-28.157 143.645,-28.446 142.443,-28.446L138.117,-28.446L138.117,-2.678L145.713,-2.678L145.713,-17.869C145.713,-20.898 147.011,-22.34 149.895,-22.34L152.924,-22.34C154.318,-22.34 154.991,-22.917 155.183,-24.263L155.808,-28.878L150.76,-28.878C147.587,-28.878 146.001,-27.869 145.136,-25.417M127.741,-18.831C127.741,-21.667 126.539,-22.773 123.222,-22.773L120.962,-22.773C117.645,-22.773 116.443,-21.667 116.443,-18.831L116.443,-18.206L127.741,-18.206L127.741,-18.831ZM134.952,-18.735L134.952,-15.177C134.952,-13.783 134.279,-13.11 132.789,-13.11L116.443,-13.11L116.443,-12.677C116.443,-9.937 117.742,-8.783 120.866,-8.783L131.25,-8.783C132.645,-8.783 133.318,-8.206 133.51,-6.86L134.087,-2.678L120.674,-2.678C112.742,-2.678 109.088,-6.043 109.088,-12.629L109.088,-18.735C109.088,-25.369 112.79,-28.878 120.674,-28.878L123.318,-28.878C131.202,-28.878 134.952,-25.369 134.952,-18.735M105.415,-8.35L103.54,-8.35C100.751,-8.35 99.598,-9.6 99.598,-11.908L99.598,-22.004L104.694,-22.004C106.088,-22.004 106.761,-22.58 106.953,-23.927L107.53,-28.109L99.598,-28.109L99.598,-35.416L93.829,-33.83C92.387,-33.445 92.002,-32.964 92.002,-31.522L92.002,-28.109L90.319,-28.109C88.925,-28.109 88.252,-27.532 88.06,-26.186L87.483,-22.004L92.002,-22.004L92.002,-11.764C92.002,-5.61 95.511,-2.245 102.674,-2.245L108.251,-2.245L107.674,-6.428C107.482,-7.774 106.809,-8.35 105.415,-8.35M80.349,-17.485L71.552,-19.84C70.83,-20.033 70.542,-20.321 70.542,-20.994L70.542,-21.331C70.542,-21.956 70.927,-22.34 71.552,-22.34L82.513,-22.34C83.907,-22.34 84.58,-22.917 84.772,-24.263L85.349,-28.446L70.157,-28.446C65.927,-28.446 62.994,-25.802 62.994,-22.052L62.994,-20.994C62.994,-17.244 64.965,-14.841 68.956,-13.783L77.657,-11.475C78.426,-11.235 78.715,-10.947 78.715,-10.226L78.715,-9.841C78.715,-9.168 78.33,-8.783 77.657,-8.783L65.446,-8.783C64.052,-8.783 63.379,-8.206 63.187,-6.86L62.61,-2.678L79.195,-2.678C83.474,-2.678 86.311,-5.178 86.311,-8.879L86.311,-10.37C86.311,-14.168 84.436,-16.379 80.349,-17.485M52.277,-18.831C52.277,-21.667 51.075,-22.773 47.758,-22.773L45.498,-22.773C42.181,-22.773 40.979,-21.667 40.979,-18.831L40.979,-18.206L52.277,-18.206L52.277,-18.831ZM59.488,-18.735L59.488,-15.177C59.488,-13.783 58.815,-13.11 57.325,-13.11L40.979,-13.11L40.979,-12.677C40.979,-9.937 42.278,-8.783 45.402,-8.783L55.786,-8.783C57.181,-8.783 57.854,-8.206 58.046,-6.86L58.623,-2.678L45.21,-2.678C37.278,-2.678 33.624,-6.043 33.624,-12.629L33.624,-18.735C33.624,-25.369 37.326,-28.878 45.21,-28.878L47.854,-28.878C55.738,-28.878 59.488,-25.369 59.488,-18.735M27.499,-28.878L32.546,-28.878L31.922,-24.263C31.729,-22.917 31.057,-22.34 29.662,-22.34L26.633,-22.34C23.749,-22.34 22.451,-20.898 22.451,-17.869L22.451,-2.678L14.855,-2.678L14.855,-28.446L19.182,-28.446C20.384,-28.446 20.865,-28.157 21.153,-27.196L21.682,-25.417L21.874,-25.417C22.74,-27.869 24.326,-28.878 27.499,-28.878" style="fill:rgb(56,56,56);fill-rule:nonzero;"/>
        </g>
        <g transform="matrix(1,0,0,1,1404.0952,661.384)">
            <path d="M0,-2.589L0,-1.368L0.903,-1.368C1.233,-1.368 1.514,-1.649 1.514,-1.978C1.514,-2.308 1.233,-2.589 0.903,-2.589L0,-2.589ZM-0.465,-3.041L0.903,-3.041C1.49,-3.041 1.966,-2.565 1.966,-1.978C1.966,-1.502 1.649,-1.099 1.221,-0.964L1.844,0.44L1.355,0.44L0.745,-0.916L0,-0.916L0,0.44L-0.465,0.44L-0.465,-3.041ZM-1.759,-1.294C-1.759,0.012 -0.696,1.087 0.623,1.087C1.942,1.087 3.004,0.012 3.004,-1.294C3.004,-2.613 1.942,-3.676 0.623,-3.676C-0.696,-3.676 -1.759,-2.613 -1.759,-1.294M3.651,-1.294C3.651,0.379 2.296,1.734 0.623,1.734C-1.05,1.734 -2.406,0.379 -2.406,-1.294C-2.406,-2.967 -1.05,-4.323 0.623,-4.323C2.296,-4.323 3.651,-2.967 3.651,-1.294" style="fill:rgb(56,56,56);fill-rule:nonzero;"/>
        </g>
    </g>
</svg>
