<?xml version="1.0" encoding="UTF-8" standalone="no"?>
<!DOCTYPE svg PUBLIC "-//W3C//DTD SVG 1.1//EN" "http://www.w3.org/Graphics/SVG/1.1/DTD/svg11.dtd">
<svg width="100%" height="100%" viewBox="0 0 500 200" version="1.1" xmlns="http://www.w3.org/2000/svg" xmlns:xlink="http://www.w3.org/1999/xlink" xml:space="preserve" xmlns:serif="http://www.serif.com/" style="fill-rule:evenodd;clip-rule:evenodd;stroke-linejoin:round;stroke-miterlimit:2;">
    <g transform="matrix(1.487402,0,0,1.487402,-1303.525683,-902.12387)">
        <g transform="matrix(1,0,0,1,1042.157,683.9118)">
            <path d="M0,0.005L0.006,0.005C0.004,0.004 0.003,0.001 0.001,0C0.001,0.002 0,0.004 0,0.005" style="fill:rgb(56,56,56);fill-rule:nonzero;"/>
        </g>
        <g transform="matrix(0.987519,0.157501,0.157501,-0.987519,1021.224708,666.741343)">
            <path d="M0.959,-0.075C4.314,0.46 6.864,3.593 6.903,7.001C6.946,10.335 4.315,12.644 0.959,12.109C-2.357,11.58 -4.951,8.438 -4.993,5.105C-5.034,1.696 -2.247,-0.587 0.959,-0.075" style="fill:rgb(56,56,56);fill-rule:nonzero;"/>
        </g>
        <g transform="matrix(1,0,0,1,1121.3636,663.8391)">
            <path d="M0,20.044C-0.792,22.788 -2.714,24.852 -5.434,24.852C-8.138,24.852 -10.047,22.684 -8.778,18.277C-7.979,15.496 -5.917,13.542 -3.473,13.542C-0.754,13.542 1.35,15.371 0,20.044M-49,20.044C-49.791,22.788 -51.713,24.852 -54.433,24.852C-57.136,24.852 -59.045,22.684 -57.777,18.277C-56.978,15.496 -54.915,13.542 -52.471,13.542C-49.752,13.542 -47.648,15.371 -49,20.044M16.349,23.166C16.216,23.063 16.023,23.092 15.9,23.222C14.439,24.749 12.759,24.873 11.802,24.873C10.656,24.873 8.854,24.234 9.765,21.413L14.852,6.607C14.89,6.501 14.9,6.409 14.859,6.315C14.8,6.177 14.709,6.13 14.538,6.114C14.309,6.096 13.988,6.077 13.565,6.065C11.097,5.995 7.499,6.748 5.154,9.024C4.986,9.187 4.754,9.224 4.567,8.999C2.31,6.782 0.217,5.975 -2.454,5.975C-9.767,5.975 -15.995,10.543 -18.608,18.341C-18.685,18.571 -18.744,18.798 -18.807,19.025C-18.828,19.103 -18.851,19.149 -18.891,19.195C-20.545,21.174 -22.762,22.565 -24.223,22.565C-25.185,22.565 -25.783,21.935 -25.177,20.177C-25.177,20.177 -17.271,-2.953 -15.952,-6.793C-15.924,-6.892 -15.926,-6.99 -15.961,-7.07C-16.022,-7.211 -16.161,-7.263 -16.31,-7.27C-16.539,-7.28 -16.849,-7.286 -17.25,-7.284C-20.304,-7.269 -26.172,-6.407 -28.415,0.189L-31.481,9.14C-31.503,9.2 -31.533,9.241 -31.561,9.276C-34.085,12.414 -37.041,13.347 -39.026,13.492C-39.146,13.496 -39.234,13.482 -39.313,13.409C-39.373,13.355 -39.408,13.285 -39.432,13.191C-40.221,9.563 -43.966,6.012 -50.657,6.012C-58.23,6.012 -65.188,10.684 -67.637,18.161C-67.677,18.284 -67.717,18.44 -67.75,18.557C-69.923,21.642 -76.154,25.612 -81.794,24.916C-84.198,24.619 -86.074,22.77 -84.816,18.277C-84.037,15.491 -81.93,13.575 -79.631,13.542C-77.94,13.516 -76.036,14.231 -75.716,16.398C-75.697,16.519 -75.683,16.681 -75.575,16.737C-75.477,16.788 -75.414,16.786 -75.32,16.78C-75.174,16.77 -75.113,16.769 -74.866,16.731C-73.274,16.484 -71.711,16.081 -70.417,14.677C-69.239,13.398 -68.493,11.27 -69.497,9.199C-70.382,7.378 -73.061,6.162 -76.182,6.065C-85.312,5.781 -91.854,11.032 -94.419,17.616C-94.494,17.806 -94.71,18.425 -94.836,18.867C-96.866,21.275 -98.934,22.566 -100.468,22.566C-101.429,22.566 -102.004,22.042 -101.374,20.177C-101.374,20.177 -97.636,9.183 -96.742,6.562C-96.708,6.453 -96.704,6.362 -96.741,6.282C-96.797,6.158 -96.915,6.105 -97.081,6.094C-97.316,6.076 -97.633,6.065 -98.053,6.067C-101.107,6.082 -106.998,6.961 -109.171,13.529L-110.495,17.346C-112.443,21.922 -116.603,23.742 -120.335,22.84C-122.824,22.238 -123.892,19.314 -124.679,15.794C-124.708,15.632 -124.669,15.527 -124.525,15.449C-120.445,12.915 -115.358,9.045 -114.068,2.306C-112.488,-5.949 -118.085,-13.893 -131.11,-13.927C-151.564,-13.982 -165.822,-0.282 -169.426,13.178C-171.958,22.634 -168.952,33.695 -157.815,33.695C-150.042,33.695 -145.035,30.418 -138.971,12.312C-138.405,10.623 -137.373,7.601 -136.913,6.125C-136.884,6.018 -136.863,5.911 -136.901,5.83C-136.959,5.704 -137.087,5.647 -137.265,5.636C-137.534,5.618 -137.799,5.615 -138.203,5.617C-141.257,5.632 -147.921,6.466 -150.28,13.21C-152.672,20.046 -153.262,23.383 -157,23.018C-159.889,22.736 -160.044,16.767 -158.124,12.104C-156.311,7.701 -150.319,-2.685 -136.264,-3.988C-127.736,-4.779 -125.693,-1.254 -126.735,3.311C-127.569,6.956 -131.352,9.982 -135.711,11.659C-136.961,12.141 -137.308,12.742 -137.189,13.777C-136.011,24.084 -131.243,33.106 -124.475,33.644C-119.681,34.026 -116.27,31.628 -113.869,29.418C-113.833,29.389 -113.813,29.371 -113.778,29.353C-113.616,29.274 -113.419,29.339 -113.371,29.495C-113.367,29.509 -113.357,29.543 -113.354,29.557C-112.766,32.222 -110.656,33.712 -107.624,33.712C-102.584,33.712 -98.763,31.298 -94.928,27.601C-94.905,27.58 -94.876,27.555 -94.841,27.537C-94.7,27.464 -94.526,27.493 -94.441,27.668C-94.34,27.878 -94.251,28.05 -94.148,28.236C-92.169,31.549 -88.437,33.572 -84.334,33.712C-76.29,33.985 -71.974,31.33 -67.982,27.589C-67.961,27.57 -67.93,27.552 -67.905,27.537C-67.761,27.45 -67.605,27.491 -67.508,27.675C-65.702,31.522 -61.622,33.712 -57.174,33.712C-49.901,33.712 -43.567,29.954 -40.471,23.157C-40.388,22.97 -40.209,22.535 -40.103,22.254C-40.081,22.202 -40.051,22.149 -39.999,22.115C-39.964,22.093 -39.929,22.081 -39.883,22.072C-38.533,21.836 -37.238,21.333 -35.995,20.677C-35.827,20.597 -35.623,20.629 -35.557,20.789C-35.52,20.876 -35.536,20.963 -35.556,21.031L-36.607,24.101C-38.658,29.999 -36.175,33.712 -31.38,33.712C-26.209,33.712 -22.749,31.377 -19.016,27.908C-18.995,27.89 -18.956,27.859 -18.929,27.847C-18.784,27.779 -18.608,27.81 -18.532,27.981C-17.124,31.194 -13.76,33.712 -10.156,33.712C-6.923,33.712 -4.382,33.128 -1.169,30.49C-1.14,30.451 -1.086,30.399 -1.04,30.372C-0.902,30.289 -0.806,30.324 -0.686,30.516C0.398,32.266 2.752,33.636 5.229,33.712C12.767,33.941 15.449,29.078 16.132,25.934C16.364,24.864 16.436,24.014 16.45,23.44C16.452,23.321 16.428,23.225 16.349,23.166" style="fill:rgb(56,56,56);fill-rule:nonzero;"/>
        </g>
    </g>
</svg>
