<?xml version="1.0" encoding="UTF-8" standalone="no"?>
<!DOCTYPE svg PUBLIC "-//W3C//DTD SVG 1.1//EN" "http://www.w3.org/Graphics/SVG/1.1/DTD/svg11.dtd">
<svg width="100%" height="100%" viewBox="0 0 500 200" version="1.1" xmlns="http://www.w3.org/2000/svg" xmlns:xlink="http://www.w3.org/1999/xlink" xml:space="preserve" xmlns:serif="http://www.serif.com/" style="fill-rule:evenodd;clip-rule:evenodd;stroke-linejoin:round;stroke-miterlimit:2;">
    <g transform="matrix(1.487402,0,0,1.487402,-996.89403,-898.621249)">
        <g transform="matrix(1,0,0,1,902.1146,680.7811)">
            <path d="M0,-3.162L-1.921,-2.885C-2.204,-2.843 -2.328,-2.694 -2.291,-2.438L-2.287,-2.42C-2.249,-2.152 -2.087,-2.037 -1.803,-2.079L-1.299,-2.152L-1.041,-0.371C-1,-0.084 -0.851,0.041 -0.595,0.004L-0.465,-0.015C-0.33,-0.034 -0.232,-0.086 -0.172,-0.168C-0.111,-0.251 -0.09,-0.363 -0.111,-0.505L-0.37,-2.286L0.116,-2.357C0.403,-2.399 0.527,-2.554 0.489,-2.822L0.486,-2.84C0.449,-3.096 0.287,-3.203 0,-3.162" style="fill:rgb(56,56,56);fill-rule:nonzero;"/>
        </g>
        <g transform="matrix(1,0,0,1,906.3206,677.9142)">
            <path d="M0,1.737L-0.313,-0.429C-0.357,-0.725 -0.52,-0.852 -0.804,-0.812L-1.063,-0.774C-1.171,-0.758 -1.251,-0.73 -1.304,-0.689C-1.355,-0.649 -1.396,-0.575 -1.424,-0.466L-1.742,0.803L-2.401,-0.325C-2.429,-0.368 -2.457,-0.404 -2.483,-0.434C-2.51,-0.462 -2.539,-0.485 -2.573,-0.501C-2.607,-0.516 -2.645,-0.525 -2.69,-0.526C-2.734,-0.527 -2.787,-0.524 -2.849,-0.515L-3.112,-0.477C-3.249,-0.457 -3.346,-0.405 -3.407,-0.321C-3.467,-0.237 -3.486,-0.12 -3.465,0.028L-3.151,2.193C-3.13,2.335 -3.087,2.438 -3.019,2.503C-2.951,2.566 -2.853,2.589 -2.723,2.57L-2.575,2.549C-2.44,2.529 -2.351,2.479 -2.308,2.4C-2.267,2.319 -2.256,2.209 -2.277,2.067L-2.457,0.822L-2.025,1.619C-2.008,1.648 -1.993,1.676 -1.98,1.7C-1.966,1.725 -1.947,1.747 -1.919,1.765C-1.891,1.783 -1.853,1.794 -1.805,1.801C-1.757,1.806 -1.69,1.803 -1.603,1.79C-1.517,1.777 -1.451,1.761 -1.405,1.742C-1.359,1.723 -1.325,1.701 -1.304,1.676C-1.281,1.65 -1.268,1.623 -1.261,1.594C-1.254,1.564 -1.247,1.535 -1.243,1.506L-1.06,0.582L-0.875,1.864C-0.853,2.006 -0.81,2.109 -0.742,2.173C-0.674,2.237 -0.576,2.259 -0.447,2.241L-0.299,2.219C-0.166,2.2 -0.077,2.15 -0.035,2.071C0.008,1.99 0.02,1.879 0,1.737" style="fill:rgb(56,56,56);fill-rule:nonzero;"/>
        </g>
        <g transform="matrix(1,0,0,1,808.9478,675.7215)">
            <path d="M0,-6.306C-0.072,-6.515 -0.277,-6.647 -0.497,-6.625L-1.221,-6.555C-1.497,-6.528 -1.719,-6.313 -1.754,-6.038L-2.569,0.341L2.053,-0.361L0.105,-6.001L0,-6.306Z" style="fill:rgb(56,56,56);fill-rule:nonzero;"/>
        </g>
        <g transform="matrix(1,0,0,1,885.1979,671.4687)">
            <path d="M0,-3.091C-0.186,-3.052 -0.868,-2.738 -1.859,-2.551C-2.592,-2.412 -3.492,-2.342 -4.49,-2.505C-4.905,-2.573 -5.061,-2.057 -4.797,-1.708C-4.688,-1.563 -4.577,-1.43 -4.464,-1.303C-3.656,-0.393 -2.8,0.018 -2.031,0.057C-0.836,0.119 0.148,-0.718 0.401,-1.977C0.412,-2.028 0.42,-2.072 0.429,-2.119C0.634,-3.21 0.433,-3.182 0,-3.091" style="fill:rgb(56,56,56);fill-rule:nonzero;"/>
        </g>
        <g transform="matrix(1,0,0,1,807.6718,639.2345)">
            <path d="M0,3.143C1.583,4.224 3.163,5.383 4.996,5.942C7.708,6.77 10.557,6.181 13.282,5.752C16.07,5.314 19.305,4.684 18.428,4.49C17.296,4.24 16.441,3.883 15.315,3.604C11.78,2.726 8.272,1.636 5.014,-0.016C1.974,-1.558 -1.068,-3.627 -4.473,-3.462C-6.069,-3.384 -7.639,-2.806 -9.222,-2.834C-9.364,-2.836 -9.416,-2.645 -9.293,-2.574C-6.146,-0.749 -3.003,1.091 0,3.143" style="fill:rgb(56,56,56);fill-rule:nonzero;"/>
        </g>
        <g transform="matrix(1,0,0,1,894.6596,661.3583)">
            <path d="M0,20.056C0.035,20.178 -0.042,20.304 -0.166,20.328C-0.708,20.436 -1.222,20.547 -1.74,20.627C-2.412,20.729 -3.477,20.89 -4.306,21.005C-4.507,21.033 -4.7,21.06 -4.864,21.08C-5.347,21.142 -5.735,21.081 -5.983,20.555C-6.542,19.362 -7.392,17.463 -7.991,16.289C-8.034,16.205 -8.082,16.124 -8.128,16.042C-8.234,15.854 -8.343,15.672 -8.445,15.505C-8.49,15.43 -8.576,15.388 -8.664,15.401C-9.843,15.574 -10.88,15.655 -11.936,15.786C-12.145,15.812 -12.353,15.836 -12.564,15.867C-12.656,15.881 -12.728,15.952 -12.744,16.045C-13.038,17.764 -13.103,20.201 -13.36,21.918C-13.428,22.371 -13.592,22.555 -14.039,22.615C-14.789,22.718 -15.462,22.824 -16.119,22.932C-17.109,23.096 -18.063,23.266 -19.192,23.439C-19.229,23.445 -19.259,23.445 -19.291,23.446C-19.659,23.461 -19.642,23.184 -19.65,22.917C-19.695,21.286 -19.751,19.656 -19.775,18.025C-19.872,11.107 -19.955,4.188 -20.061,-2.73C-20.07,-3.293 -19.905,-3.511 -19.329,-3.601C-18.592,-3.716 -17.855,-3.838 -17.118,-3.956C-16.132,-4.113 -15.146,-4.268 -14.161,-4.43C-12.335,-4.73 -10.509,-5.035 -8.684,-5.343C-8.121,-5.438 -7.847,-5.324 -7.661,-4.73C-7.593,-4.51 -7.522,-4.292 -7.452,-4.073C-6.636,-1.499 -5.771,1.061 -4.95,3.634C-3.951,6.761 -2.958,9.891 -2.007,13.033C-1.312,15.331 -0.683,17.649 0,20.056M-23.564,1.072C-23.412,4.373 -23.248,7.674 -23.099,10.976C-22.952,14.194 -22.814,17.413 -22.678,20.632C-22.639,21.56 -22.622,22.488 -22.593,23.416C-22.577,23.879 -22.748,24.044 -23.252,24.058C-24.448,24.091 -25.032,24.222 -26.225,24.31C-27.212,24.383 -32.208,24.909 -32.26,24.913C-32.335,24.92 -32.405,24.921 -32.469,24.92C-33.37,24.896 -33.344,24.153 -33.405,23.463C-33.775,19.267 -34.156,15.073 -34.52,10.877C-34.831,7.296 -35.023,3.959 -35.298,0.375C-35.43,-1.352 -35.604,-3.278 -35.715,-5.022C-35.728,-5.226 -35.74,-5.428 -35.752,-5.626C-35.762,-5.801 -35.913,-5.933 -36.088,-5.919C-36.86,-5.857 -38.973,-5.71 -40.198,-5.626C-40.739,-5.588 -41.107,-5.563 -41.112,-5.563C-41.276,-5.548 -41.418,-5.622 -41.532,-5.719C-41.723,-5.883 -41.831,-6.124 -41.854,-6.375L-42.806,-12.971L-42.974,-14.451C-43.003,-14.704 -42.931,-14.963 -42.756,-15.148C-42.663,-15.247 -42.542,-15.325 -42.391,-15.334C-38.326,-15.571 -32.436,-15.977 -28.371,-16.207C-27.311,-16.268 -25.998,-16.354 -24.656,-16.446C-23.502,-16.525 -22.326,-16.61 -21.272,-16.686C-19.714,-16.799 -18.422,-16.896 -17.862,-16.937C-17.391,-16.971 -17.414,-16.651 -17.375,-16.392C-17.37,-16.359 -17.365,-16.325 -17.359,-16.292C-17.069,-14.401 -16.805,-12.28 -16.512,-10.397C-16.485,-10.216 -16.462,-10.036 -16.44,-9.856C-16.355,-9.163 -16.302,-8.474 -16.19,-7.781C-16.036,-6.829 -16.96,-6.903 -17.013,-6.9C-17.266,-6.893 -17.71,-6.874 -18.247,-6.846C-20.011,-6.759 -22.829,-6.588 -23.615,-6.466C-23.773,-6.442 -23.888,-6.302 -23.88,-6.142C-23.774,-3.693 -23.674,-1.31 -23.564,1.072M-41.009,26.364C-41.472,26.493 -44.448,26.951 -45.7,27.158C-46.108,27.226 -46.341,27.072 -46.599,26.781C-51.609,21.14 -60.36,10.942 -60.388,10.909C-60.598,10.668 -60.859,10.736 -60.859,10.736L-61.109,10.793C-61.222,10.819 -61.298,10.922 -61.289,11.036C-61.253,11.525 -60.924,14.762 -60.705,16.886C-60.451,19.351 -59.597,26.091 -59.597,26.091C-59.597,26.091 -59.435,27.562 -59.418,28.283C-59.409,28.672 -59.735,28.799 -60.115,28.843C-62.33,29.108 -64.664,29.394 -66.877,29.668C-67.021,29.686 -67.166,29.692 -67.308,29.715C-67.578,29.757 -67.782,29.788 -67.938,29.796C-68.448,29.824 -68.466,29.609 -68.581,28.7C-69.291,23.146 -69.898,17.59 -70.607,12.036C-71.345,6.255 -72.063,0.472 -72.814,-5.309C-72.894,-5.938 -72.714,-6.185 -72.087,-6.261C-69.791,-6.54 -67.498,-6.863 -65.202,-7.16C-64.156,-7.295 -63.316,-7.006 -62.563,-6.455C-62.234,-6.213 -61.919,-5.926 -61.616,-5.594C-59.847,-3.664 -57.972,-1.833 -56.138,0.037C-55.27,0.922 -54.307,1.931 -53.455,2.831C-53.382,2.909 -53.147,3.199 -52.866,3.476C-52.81,3.53 -52.754,3.584 -52.697,3.635C-52.551,3.765 -52.32,3.643 -52.346,3.449C-52.901,-0.874 -53.59,-5.422 -54.15,-9.746C-54.543,-12.779 -54.494,-12.069 -54.902,-15.101C-54.948,-15.45 -54.844,-15.596 -54.521,-15.659C-51.008,-16.338 -46.337,-16.81 -46.337,-16.81C-45.576,-16.876 -45.452,-16.778 -45.37,-16.169C-45.347,-15.996 -45.32,-15.792 -45.29,-15.577C-45.007,-13.484 -44.469,-9.588 -44.184,-7.209C-43.828,-4.236 -41.613,14.507 -40.679,22.624C-40.633,23.027 -40.565,23.831 -40.44,25.481C-40.386,26.186 -40.71,26.282 -41.009,26.364M-73.534,58.767C-82.124,57.705 -87.223,54.346 -90.748,52.448C-92.51,51.499 -94.29,50.423 -95.896,49.226C-97.977,47.673 -100.792,44.603 -103.111,41.657L-61.457,58.663C-65.564,59.121 -69.718,59.238 -73.534,58.767M-104.114,14.263C-104.964,14.355 -106.119,14.566 -106.92,14.663C-107.058,14.68 -107.155,14.8 -107.145,14.937L-107.105,15.437L-105.823,31.843C-105.823,31.843 -105.768,32.534 -105.741,32.878C-105.731,32.99 -105.809,33.089 -105.921,33.109C-106.765,33.253 -107.395,33.338 -108.135,33.436C-108.351,33.464 -108.575,33.493 -108.818,33.525C-109.412,33.603 -110.007,33.671 -110.603,33.736C-111.443,33.829 -112.285,33.913 -113.127,33.983L-113.133,33.983C-113.252,33.993 -113.371,33.997 -113.491,33.995C-113.561,33.994 -113.63,33.988 -113.701,33.984C-113.745,33.982 -113.791,33.981 -113.836,33.977C-113.849,33.976 -113.861,33.976 -113.872,33.975C-113.887,33.974 -113.901,33.972 -113.915,33.969C-114.152,33.946 -114.388,33.909 -114.619,33.865C-114.752,33.838 -114.896,33.537 -114.923,33.347C-115.241,31.138 -115.541,28.928 -115.841,26.717C-116.413,22.501 -116.987,18.284 -117.55,14.067C-118.145,9.622 -118.716,5.174 -119.325,0.731C-119.694,-1.971 -120.119,-4.665 -120.513,-7.363C-120.594,-7.915 -120.648,-8.471 -120.714,-9.025C-120.766,-9.459 -120.591,-9.691 -120.35,-9.829C-120.151,-9.943 -119.906,-9.994 -119.7,-10.032C-118.592,-10.234 -115.438,-10.671 -111.876,-11.151C-111.049,-11.263 -110.201,-11.377 -109.351,-11.491C-105.385,-12.02 -101.383,-12.551 -99.422,-12.835C-98.792,-12.927 -98.651,-12.577 -98.59,-12.12C-98.434,-10.954 -98.317,-10.147 -98.166,-8.98C-97.973,-7.485 -97.638,-5.589 -97.401,-4.1C-97.328,-3.64 -97.411,-3.341 -97.823,-3.256C-99.035,-3.002 -101.545,-2.601 -101.545,-2.601C-101.545,-2.601 -108.486,-1.393 -108.856,-1.335C-108.971,-1.317 -109.05,-1.211 -109.035,-1.095C-108.826,0.508 -108.335,5.581 -108.199,6.459C-108.114,7.013 -107.8,7.164 -107.276,7.097C-105.329,6.844 -104.013,6.65 -102.065,6.408C-101.06,6.283 -100.055,6.156 -99.049,6.038C-99.035,6.037 -99.021,6.035 -99.006,6.032C-98.794,6.007 -98.599,6.156 -98.568,6.368C-98.409,7.487 -97.55,12.558 -97.534,12.702C-97.458,13.422 -97.593,13.574 -98.329,13.65C-100.257,13.851 -102.185,14.054 -104.114,14.263M-106.202,-16.274C-105.009,-17.784 -103.813,-19.291 -102.618,-20.8C-100.477,-18.738 -97.885,-16.441 -97.885,-16.441C-97.753,-16.31 -97.837,-16.084 -98.023,-16.071L-104.203,-15.506C-104.206,-15.505 -105.526,-15.355 -107.116,-15.168C-106.812,-15.538 -106.498,-15.9 -106.202,-16.274M-74.049,20.053C-73.067,22.904 -72.082,25.753 -71.091,28.6C-70.775,29.505 -70.989,29.914 -72.155,29.988C-72.761,30.027 -76.707,30.562 -77.844,30.759C-78.524,30.876 -78.931,30.164 -79.056,29.771C-79.234,29.208 -82.306,21.147 -82.306,21.147C-82.306,21.147 -82.397,20.903 -82.45,20.769C-82.487,20.673 -82.588,20.616 -82.689,20.633C-84.452,20.93 -86.189,21.221 -87.882,21.505C-87.975,21.521 -88.047,21.596 -88.058,21.69C-88.4,24.319 -89.559,30.331 -89.694,31.269C-89.75,31.655 -89.936,31.806 -90.339,31.853C-92.019,32.043 -93.69,32.326 -95.372,32.463C-95.788,32.496 -96.229,32.211 -96.687,32.018C-96.773,31.982 -96.825,31.892 -96.816,31.798C-96.509,28.68 -96.206,25.653 -95.911,22.624C-95.538,18.761 -95.184,14.896 -94.797,11.035C-94.403,7.092 -93.977,3.153 -93.568,-0.788C-93.377,-2.617 -93.205,-4.447 -93.006,-6.275C-92.895,-7.295 -92.878,-7.297 -91.841,-7.388C-89.411,-7.599 -86.98,-7.799 -84.552,-8.024C-84.105,-8.065 -83.839,-8.004 -83.665,-7.519C-82.632,-4.628 -81.54,-1.757 -80.517,1.138C-79.52,3.961 -78.587,6.805 -77.62,9.638C-76.433,13.111 -75.242,16.583 -74.049,20.053M-104.667,-27.26C-104.92,-27.558 -104.901,-27.728 -104.593,-27.98C-104.202,-28.299 -100.303,-29.778 -98.777,-30.346C-98.236,-30.548 -97.722,-30.747 -97.228,-30.944C-93.021,-32.616 -90.429,-34.071 -87.609,-34.799C-86.337,-35.129 -85.017,-35.311 -83.48,-35.298C-76.124,-35.234 -73.838,-32.992 -73.188,-32.614C-72.824,-32.403 -71.989,-31.804 -71.989,-31.804C-65.112,-27.498 -62.083,-18.563 -61.331,-16.589C-59.631,-12.128 -55.503,-4.592 -55.413,-4.345C-55.212,-3.793 -55.31,-3.58 -55.857,-3.387C-56.185,-3.271 -60.6,-10.364 -60.604,-10.371C-62.501,-13.512 -65.734,-14.059 -67.367,-13.857C-67.808,-13.802 -68.238,-13.718 -68.246,-13.717C-68.469,-13.687 -70.157,-13.43 -71.033,-13.293C-81.401,-11.678 -84.554,-12.719 -86.87,-13.449C-90.263,-14.517 -93.553,-16.69 -96.273,-18.895C-98.098,-20.374 -99.663,-21.867 -100.835,-23.051C-101.48,-23.707 -102.005,-24.265 -102.384,-24.676C-102.661,-24.975 -102.866,-25.201 -102.978,-25.321C-103.564,-25.944 -104.115,-26.604 -104.667,-27.26M-59.687,-39.244C-59.144,-39.181 -52.607,-38.494 -52.607,-38.494C-52.146,-38.456 -47.831,-37.234 -42.862,-34.043C-40.966,-32.825 -39.823,-31.276 -38.085,-29.84C-37.13,-29.051 -36.16,-28.273 -35.269,-27.415C-33.168,-25.395 -31.08,-23.357 -29.044,-21.271C-28.404,-20.616 -27.765,-19.956 -27.138,-19.286C-31.795,-19.027 -36.454,-18.777 -41.11,-18.514C-41.568,-18.488 -41.785,-18.623 -41.839,-19.106C-41.958,-20.152 -41.998,-20.65 -42.1,-21.248C-42.119,-21.363 -42.227,-21.442 -42.343,-21.426C-44.935,-21.049 -57.978,-18.898 -58.086,-19.158C-59.866,-23.465 -65.642,-30.418 -65.65,-30.43C-69.88,-35.611 -76.265,-37.301 -79.477,-37.84C-74.457,-39.251 -67.941,-40.192 -59.687,-39.244M-5.049,-9.712C-5.598,-9.704 -6.939,-9.686 -7.02,-9.682C-8.876,-9.562 -10.122,-9.546 -11.977,-9.426C-12.09,-9.419 -12.191,-9.501 -12.205,-9.614C-12.62,-13.014 -13.04,-16.449 -13.468,-19.948C-13.482,-20.066 -13.586,-20.152 -13.704,-20.142C-14.491,-20.079 -15.314,-20.006 -16.139,-19.953C-18.622,-19.794 -21.104,-19.635 -23.587,-19.489C-24.649,-20.691 -25.738,-21.811 -26.734,-22.831C-28.95,-25.1 -31.223,-27.301 -32.954,-28.965C-33.792,-29.77 -34.658,-30.484 -35.497,-31.173L-35.918,-31.52C-36.552,-32.044 -37.201,-32.567 -37.775,-33.03C-38.854,-33.9 -39.969,-34.8 -41.009,-35.706C-41.62,-36.238 -42.464,-36.913 -43.563,-37.411C-43.655,-37.453 -43.818,-37.533 -44.023,-37.635C-45.233,-38.233 -48.064,-39.635 -51.87,-40.753C-52.116,-40.826 -52.862,-41.045 -57.779,-41.332C-57.874,-41.337 -57.936,-41.341 -57.957,-41.342C-58.363,-41.374 -58.782,-41.407 -59.241,-41.418C-61.945,-41.475 -64.647,-41.528 -67.35,-41.582C-67.482,-41.584 -67.611,-41.586 -67.739,-41.586C-68.958,-41.586 -70.147,-41.454 -72.572,-41.152C-74.964,-40.853 -76.724,-40.567 -77.804,-40.299C-81.184,-39.462 -83.727,-38.556 -86.269,-37.55L-89.697,-36.657L-95.253,-34.615L-105.75,-30.273C-105.75,-30.273 -108.475,-29.143 -107.853,-28.064L-107.171,-26.535L-104.79,-23.01C-104.64,-22.842 -104.468,-22.655 -104.28,-22.457C-104.71,-21.949 -105.069,-21.518 -105.284,-21.247C-106.083,-20.242 -109.361,-15.768 -109.864,-14.901C-109.877,-14.878 -109.89,-14.855 -109.903,-14.833C-110.511,-14.758 -111.071,-14.686 -111.519,-14.625C-114.22,-14.261 -116.923,-13.929 -119.625,-13.582C-120.723,-13.443 -123.437,-12.973 -124.203,-12.84C-124.318,-12.82 -124.396,-12.713 -124.381,-12.598L-117.419,35.708C-117.406,35.78 -117.356,35.842 -117.288,35.869L-107.448,39.887C-106.38,41.612 -105.196,43.212 -104.034,44.777C-103.447,45.565 -98.241,50.746 -96.847,51.669C-94.99,52.895 -93.245,53.945 -91.512,54.877C-88.598,56.443 -85.622,57.975 -82.742,59.455C-82.026,59.823 -79.091,60.711 -78.408,60.862L-78.395,60.917C-78.261,60.945 -75.067,61.642 -69.598,61.642L-69.597,61.642C-62.04,61.642 -50.125,60.342 -36.279,54.404C-35.932,54.256 -35.279,53.799 -35.173,53.726C-28.028,48.804 -25.409,45.842 -21.446,41.378C-20.668,40.503 -19.866,39.592 -18.954,38.587C-18.86,38.484 -18.755,38.346 -18.642,38.184L3.667,20.689C3.732,20.634 3.758,20.548 3.736,20.467C3.203,18.534 -4.013,-6.862 -4.755,-9.493C-4.792,-9.624 -4.912,-9.713 -5.049,-9.712" style="fill:rgb(56,56,56);fill-rule:nonzero;"/>
        </g>
    </g>
</svg>
