<?xml version="1.0" encoding="UTF-8" standalone="no"?>
<!DOCTYPE svg PUBLIC "-//W3C//DTD SVG 1.1//EN" "http://www.w3.org/Graphics/SVG/1.1/DTD/svg11.dtd">
<svg width="100%" height="100%" viewBox="0 0 500 200" version="1.1" xmlns="http://www.w3.org/2000/svg" xmlns:xlink="http://www.w3.org/1999/xlink" xml:space="preserve" xmlns:serif="http://www.serif.com/" style="fill-rule:evenodd;clip-rule:evenodd;stroke-linejoin:round;stroke-miterlimit:2;">
    <g transform="matrix(1.487402,0,0,1.487402,-51.641682,-902.896052)">
        <g>
            <g transform="matrix(1,0,0,1,202.5413,676.5957)">
                <path d="M0,-6.263C0,-9.006 1.151,-12.435 6.599,-13.706L6.599,-22.723C2.086,-22.201 -1.441,-17.381 -2.466,-12.057L-2.466,-17.838L-9.064,-14.282L-9.064,16.46L0,11.577L0,-6.263Z" style="fill:rgb(56,56,56);fill-rule:nonzero;"/>
            </g>
            <g transform="matrix(0,1,1,0,232.4615,670.7339)">
                <path d="M-22.256,-13.308L8.486,-13.308L13.308,-22.255L-17.434,-22.255L-22.256,-13.308Z" style="fill:rgb(56,56,56);fill-rule:nonzero;"/>
            </g>
            <g transform="matrix(1,0,0,1,223.7807,630.4153)">
                <path d="M0,46.312L0,20.844L-3.626,22.797L-3.626,17.524C1.075,13.389 3.66,8.421 4.131,2.622L8.997,0L8.997,10.723L13.318,8.394L13.318,13.668L8.997,15.997L8.997,41.466L0,46.312Z" style="fill:rgb(56,56,56);fill-rule:nonzero;"/>
            </g>
            <g transform="matrix(1,0,0,1,177.4355,672.8693)">
                <path d="M0,40.882L0,3.361C4.071,1.167 5.464,2.851 6.167,5.404C6.869,7.957 6.879,11.378 6.301,14.614C5.722,17.85 4.553,20.901 3.523,23.082C2.493,25.264 1.601,26.578 1.105,27.318C0.607,28.06 0.506,28.228 0.481,28.357C0.456,28.487 0.508,28.578 0.63,28.603C0.752,28.63 0.944,28.592 2.792,27.389C4.641,26.188 8.145,23.825 10.694,19.978C13.243,16.132 14.836,10.802 15.074,6.572C15.311,2.343 14.193,-0.785 12.501,-2.581C10.811,-4.376 8.548,-4.838 6.75,-4.71C4.953,-4.582 3.62,-3.863 -3.244,-0.164L-8.98,2.925L-8.98,45.72L0,40.882Z" style="fill:rgb(56,56,56);fill-rule:nonzero;"/>
            </g>
            <g transform="matrix(1,0,0,1,260.2662,647.4067)">
                <path d="M0,0.725L-1.354,-0.373C-2.558,3.231 -4.44,6.108 -6.196,7.813C-7.954,9.519 -9.586,10.053 -10.965,9.763C-12.344,9.471 -13.469,8.355 -13.986,6.309C-14.501,4.262 -14.407,1.287 -14.173,-1.377C-13.939,-4.039 -13.566,-6.39 -12.98,-8.276C-12.395,-10.163 -11.595,-11.587 -10.862,-12.205C-10.129,-12.822 -9.461,-12.634 -9.091,-11.998C-8.721,-11.363 -8.647,-10.28 -8.796,-8.781C-8.945,-7.283 -9.316,-5.369 -9.932,-3.635C-10.549,-1.898 -11.411,-0.342 -12.038,0.66C-12.665,1.662 -13.056,2.11 -13.378,2.463C-13.699,2.816 -13.951,3.077 -14.018,3.284C-14.085,3.492 -13.968,3.645 -13.734,3.631C-13.5,3.616 -13.148,3.431 -11.512,2.359C-9.874,1.286 -6.952,-0.675 -4.933,-3.427C-2.914,-6.176 -1.8,-9.716 -2.121,-12.49C-2.443,-15.261 -4.2,-17.264 -6.997,-17.23C-9.793,-17.194 -13.629,-15.12 -16.551,-12.249C-19.472,-9.375 -21.48,-5.705 -22.664,-1.994C-23.848,1.717 -24.208,5.469 -23.901,8.616C-23.594,11.763 -22.62,14.306 -20.842,15.862C-19.063,17.419 -16.482,17.989 -13.926,17.488C-11.37,16.986 -8.84,15.415 -6.432,13.068C-4.024,10.722 -1.737,7.602 0,0.725" style="fill:rgb(56,56,56);fill-rule:nonzero;"/>
            </g>
            <g transform="matrix(1,0,0,1,168.5897,707.9262)">
                <path d="M0,-35.735L0.277,-45.857C-8.172,-46.731 -15.18,-43.369 -19.307,-39.327C-23.435,-35.283 -24.682,-30.562 -24.624,-26.839C-24.567,-23.115 -23.205,-20.387 -21.203,-18.69C-19.2,-16.994 -16.556,-16.325 -14.462,-14.956C-12.369,-13.585 -10.826,-11.514 -10.889,-8.962C-10.952,-6.409 -12.62,-3.374 -15.672,-1.668C-18.724,0.036 -23.159,0.413 -26.816,-2.147L-28.273,10.715C-17.958,10.996 -10.466,6.047 -6.122,0.409C-1.777,-5.231 -0.581,-11.559 -1.223,-16.073C-1.865,-20.586 -4.346,-23.285 -6.608,-24.987C-8.871,-26.686 -10.916,-27.39 -12.615,-29.018C-14.314,-30.646 -15.669,-33.197 -13.644,-35.685C-11.62,-38.173 -6.216,-40.6 0,-35.735" style="fill:rgb(56,56,56);fill-rule:nonzero;"/>
            </g>
            <g transform="matrix(0,1,1,0,214.7184,629.868)">
                <path d="M7.829,-7.83C3.505,-7.83 0,-4.324 0,-0C0,4.324 3.505,7.829 7.829,7.829C12.155,7.829 15.659,4.324 15.659,-0C15.659,-4.324 12.155,-7.83 7.829,-7.83" style="fill:rgb(56,56,56);fill-rule:nonzero;"/>
            </g>
            <g transform="matrix(1,0,0,1,265.2787,654.2221)">
                <path d="M0,-0.002C0,0.346 -0.056,0.663 -0.169,0.949C-0.281,1.234 -0.434,1.479 -0.626,1.682C-0.818,1.885 -1.042,2.043 -1.295,2.154C-1.548,2.266 -1.814,2.323 -2.092,2.323C-2.402,2.323 -2.684,2.263 -2.941,2.146C-3.199,2.027 -3.421,1.865 -3.605,1.659C-3.79,1.45 -3.935,1.204 -4.039,0.921C-4.144,0.637 -4.197,0.33 -4.197,-0.002C-4.197,-0.35 -4.14,-0.666 -4.028,-0.952C-3.915,-1.237 -3.763,-1.483 -3.571,-1.685C-3.378,-1.888 -3.154,-2.046 -2.898,-2.157C-2.644,-2.269 -2.375,-2.325 -2.092,-2.325C-1.814,-2.325 -1.548,-2.269 -1.295,-2.157C-1.042,-2.046 -0.818,-1.888 -0.626,-1.685C-0.434,-1.483 -0.281,-1.237 -0.169,-0.952C-0.056,-0.666 0,-0.35 0,-0.002M-0.458,-0.002C-0.458,-0.283 -0.5,-0.541 -0.583,-0.778C-0.668,-1.015 -0.784,-1.217 -0.932,-1.388C-1.081,-1.558 -1.254,-1.689 -1.452,-1.781C-1.651,-1.875 -1.864,-1.922 -2.092,-1.922C-2.325,-1.922 -2.542,-1.875 -2.741,-1.781C-2.941,-1.689 -3.116,-1.558 -3.265,-1.388C-3.414,-1.217 -3.53,-1.015 -3.613,-0.778C-3.698,-0.541 -3.739,-0.283 -3.739,-0.002C-3.739,0.264 -3.702,0.512 -3.625,0.744C-3.549,0.977 -3.44,1.18 -3.296,1.353C-3.153,1.528 -2.981,1.665 -2.778,1.767C-2.577,1.868 -2.348,1.918 -2.092,1.918C-1.864,1.918 -1.651,1.872 -1.452,1.779C-1.254,1.685 -1.081,1.554 -0.932,1.385C-0.784,1.215 -0.668,1.012 -0.583,0.778C-0.5,0.544 -0.458,0.284 -0.458,-0.002M-2.528,1.328L-2.904,1.328L-2.904,-1.245L-2.006,-1.245C-1.721,-1.245 -1.506,-1.187 -1.361,-1.07C-1.216,-0.954 -1.143,-0.767 -1.143,-0.504C-1.143,-0.273 -1.203,-0.104 -1.321,0.005C-1.439,0.113 -1.586,0.177 -1.762,0.197L-1.098,1.328L-1.538,1.328L-2.15,0.228L-2.528,0.228L-2.528,1.328ZM-2.081,-0.132L-1.87,-0.142L-1.69,-0.194L-1.567,-0.316C-1.536,-0.367 -1.521,-0.44 -1.521,-0.536C-1.521,-0.61 -1.537,-0.671 -1.57,-0.715L-1.695,-0.821L-1.867,-0.872L-2.047,-0.883L-2.528,-0.883L-2.528,-0.132L-2.081,-0.132Z" style="fill:rgb(56,56,56);fill-rule:nonzero;"/>
            </g>
        </g>
    </g>
</svg>
