<?xml version="1.0" encoding="UTF-8" standalone="no"?>
<!DOCTYPE svg PUBLIC "-//W3C//DTD SVG 1.1//EN" "http://www.w3.org/Graphics/SVG/1.1/DTD/svg11.dtd">
<svg width="100%" height="100%" viewBox="0 0 500 200" version="1.1" xmlns="http://www.w3.org/2000/svg" xmlns:xlink="http://www.w3.org/1999/xlink" xml:space="preserve" xmlns:serif="http://www.serif.com/" style="fill-rule:evenodd;clip-rule:evenodd;stroke-linejoin:round;stroke-miterlimit:2;">
    <g transform="matrix(1.487402,0,0,1.487402,-2262.818235,-911.986522)">
        <g transform="matrix(1,0,0,1,1658.5299,671.0161)">
            <path d="M0,3.786L13.906,3.786L13.906,12.232C13.906,13.324 12.96,16.091 11.504,16.091L22.498,16.091C21.187,16.091 20.459,13.324 20.459,12.232L20.459,-8.082C20.459,-10.266 21.187,-12.305 22.498,-12.305L11.504,-12.305C12.96,-12.305 13.906,-10.266 13.906,-8.082L13.906,-1.311L0,-1.311L0,-8.082C0,-10.266 0.946,-12.305 2.184,-12.305L-9.174,-12.305C-7.499,-12.305 -6.262,-10.266 -6.262,-8.082L-6.262,12.232C-6.262,13.324 -7.572,16.091 -9.174,16.091L2.184,16.091C0.874,16.091 0,13.324 0,12.232L0,3.786Z" style="fill:rgb(56,56,56);fill-rule:nonzero;"/>
        </g>
        <g transform="matrix(1,0,0,1,1622.708,682.0825)">
            <path d="M0,-18.493L0,-0.873C0,1.675 -0.146,4.951 -2.767,4.951L8.81,4.951C6.625,4.951 5.897,1.675 5.897,-0.873L5.897,-18.493C5.897,-18.493 11.285,-19.731 14.343,-18.493C16.091,-17.765 18.348,-15.726 18.348,-15.726L15.799,-22.133L16.018,-22.352L16.6,-23.444L-10.266,-23.444L-9.538,-21.624L-9.684,-21.041L-11.504,-15.726C-11.504,-15.726 -9.465,-17.765 -7.863,-18.493C-5.024,-19.731 0,-18.493 0,-18.493" style="fill:rgb(56,56,56);fill-rule:nonzero;"/>
        </g>
        <g transform="matrix(1,0,0,1,1757.1857,668.1045)">
            <path d="M0,9.974L0.583,12.013L0,12.158L-10.484,-8.155L-10.484,-9.247L-24.609,-9.247C-22.789,-9.247 -22.207,-7.209 -22.207,-5.607L-22.207,15.289C-22.207,16.381 -22.789,19.294 -24.609,19.294L-13.251,19.294C-14.926,19.294 -15.654,16.381 -15.654,15.289L-15.654,-4.369L-4.077,17.619L-3.349,17.983L-4.077,19.294L8.955,19.294C7.135,19.294 6.043,17.619 6.043,15.799L6.043,-5.097C6.043,-7.282 7.135,-9.32 8.955,-9.32L-2.257,-9.32C-0.801,-9.32 -0.073,-7.282 -0.073,-5.097L0,9.974Z" style="fill:rgb(56,56,56);fill-rule:nonzero;"/>
        </g>
        <g transform="matrix(1,0,0,1,1707.0933,664.1719)">
            <path d="M0,17.911L1.82,17.911C4.733,17.911 7.718,15.727 7.718,12.96L7.718,-1.311C7.718,-3.495 7.135,-5.533 5.315,-5.533L16.673,-5.533C14.853,-5.533 13.906,-3.713 13.906,-1.529L13.906,14.926C13.906,19.513 8.446,23.517 1.456,23.517L0.51,23.517C-6.99,23.517 -12.523,19.513 -12.523,14.926L-12.523,-1.383C-12.523,-3.568 -13.615,-5.606 -15.29,-5.606L-4.441,-5.606C-5.169,-5.606 -6.262,-3.932 -6.262,-1.747L-6.262,12.814C-5.679,15.581 -4.369,17.765 0,17.911" style="fill:rgb(56,56,56);fill-rule:nonzero;"/>
        </g>
        <g transform="matrix(1,0,0,1,0,322.754)">
            <rect x="1599.118" y="377.822" width="180.566" height="1.602" style="fill:rgb(56,56,56);"/>
        </g>
    </g>
</svg>
