<?xml version="1.0" encoding="UTF-8" standalone="no"?>
<!DOCTYPE svg PUBLIC "-//W3C//DTD SVG 1.1//EN" "http://www.w3.org/Graphics/SVG/1.1/DTD/svg11.dtd">
<svg width="100%" height="100%" viewBox="0 0 500 200" version="1.1" xmlns="http://www.w3.org/2000/svg" xmlns:xlink="http://www.w3.org/1999/xlink" xml:space="preserve" xmlns:serif="http://www.serif.com/" style="fill-rule:evenodd;clip-rule:evenodd;stroke-linejoin:round;stroke-miterlimit:2;">
    <g transform="matrix(1.487402,0,0,1.487402,-1648.870423,-716.256259)">
        <g transform="matrix(1,0,0,1,1239.9136,568.4421)">
            <path d="M0,-37.626L0,-10.518C0,-4.543 -5.233,0 -12.146,0C-19.059,0 -24.294,-4.543 -24.294,-10.518L-24.294,-31.256C-24.294,-34.762 -21.479,-37.626 -17.973,-37.626L-17.529,-37.626L-17.529,-10.567C-17.529,-7.358 -14.665,-5.381 -11.9,-5.381C-9.234,-5.381 -6.369,-7.21 -6.369,-10.567L-6.369,-31.602C-6.369,-34.91 -3.654,-37.626 -0.345,-37.626L0,-37.626Z" style="fill:rgb(56,56,56);fill-rule:nonzero;"/>
        </g>
        <g transform="matrix(1,0,0,1,1253.243,568.0474)">
            <path d="M0,-27.652C9.233,-27.652 10.715,-22.468 10.715,-19.356L10.715,0L10.419,0C7.011,0 4.098,-2.865 4.098,-6.272L4.098,-19.257C4.098,-21.084 3.357,-23.257 -0.246,-23.257C-1.926,-23.257 -2.913,-23.059 -3.999,-22.665L-3.999,0L-10.616,0L-10.616,-25.628C-7.802,-26.862 -3.258,-27.652 0,-27.652" style="fill:rgb(56,56,56);fill-rule:nonzero;"/>
        </g>
        <g transform="matrix(1,0,0,1,1273.4117,558.4684)">
            <path d="M0,-18.073L0,3.357C0,6.763 -2.765,9.579 -6.223,9.579L-6.518,9.579L-6.518,-18.073L0,-18.073ZM-3.258,-27.652C-1.283,-27.652 0.296,-26.17 0.296,-24.343C0.296,-22.567 -1.283,-21.134 -3.258,-21.134C-5.235,-21.134 -6.863,-22.567 -6.863,-24.343C-6.863,-26.17 -5.235,-27.652 -3.258,-27.652" style="fill:rgb(56,56,56);fill-rule:nonzero;"/>
        </g>
        <g transform="matrix(1,0,0,1,1292.2125,568.441)">
            <path d="M0,-38.168C3.11,-38.168 6.024,-37.476 8.442,-35.996L8.442,-29.477C6.962,-31.403 4.839,-32.736 1.431,-32.736C-5.284,-32.736 -9.432,-26.121 -9.432,-19.257C-9.432,-12.788 -5.086,-5.728 1.431,-5.728C4.295,-5.728 6.913,-6.566 8.442,-8.641L8.442,-2.221C6.517,-0.79 3.506,0 -0.051,0C-10.715,0 -16.344,-9.776 -16.344,-19.208C-16.344,-28.49 -10.715,-38.168 0,-38.168" style="fill:rgb(56,56,56);fill-rule:nonzero;"/>
        </g>
        <g transform="matrix(1,0,0,1,1312.348,568.0474)">
            <path d="M0,-27.652C1.086,-27.652 2.468,-27.553 3.704,-27.356L3.704,-22.072C1.431,-23.702 -1.581,-23.16 -2.913,-22.468L-2.913,-6.222C-2.913,-2.816 -5.728,0 -9.136,0L-9.481,0L-9.481,-25.529C-6.914,-26.763 -4.297,-27.652 0,-27.652" style="fill:rgb(56,56,56);fill-rule:nonzero;"/>
        </g>
        <g transform="matrix(1,0,0,1,1333.2341,558.0718)">
            <path d="M0,-7.307C-0.197,-12.789 -3.605,-13.38 -5.431,-13.38L-5.679,-13.38C-9.382,-13.281 -11.111,-10.664 -11.111,-5.777L0,-7.307ZM5.726,-3.554L-10.717,-1.283C-10.173,3.209 -7.9,5.58 -3.753,5.58C0.838,5.58 3.16,4.1 4.839,2.913L4.839,8.393C3.16,9.284 0.049,10.37 -4.395,10.37C-12.443,10.37 -17.233,4.938 -17.233,-3.753C-17.233,-12.195 -12.788,-17.677 -5.481,-17.677C1.729,-17.677 5.726,-12.887 5.726,-4.591L5.726,-3.554Z" style="fill:rgb(56,56,56);fill-rule:nonzero;"/>
        </g>
        <g transform="matrix(1,0,0,1,1356.2024,553.5303)">
            <path d="M0,-7.802C-0.692,-7.999 -1.431,-8.098 -2.272,-8.098C-7.703,-8.098 -8.838,-2.864 -8.838,1.48C-8.838,7.555 -6.814,10.567 -2.716,10.567C-2.024,10.567 -0.493,10.417 0,10.318L0,-7.802ZM6.469,-22.713L6.469,14.17C4.888,14.517 -0.296,14.911 -2.468,14.911L-2.913,14.911C-10.961,14.812 -15.355,10.17 -15.355,1.827C-15.355,-6.617 -10.764,-12.048 -3.654,-12.048C-2.272,-12.048 -1.086,-11.9 -0.049,-11.654L-0.049,-16.443C-0.049,-19.899 2.716,-22.713 6.172,-22.713L6.469,-22.713Z" style="fill:rgb(56,56,56);fill-rule:nonzero;"/>
        </g>
        <g transform="matrix(1,0,0,1,1372.2719,558.4684)">
            <path d="M0,-18.073L0,3.357C0,6.763 -2.765,9.579 -6.221,9.579L-6.518,9.579L-6.518,-18.073L0,-18.073ZM-3.26,-27.652C-1.285,-27.652 0.296,-26.17 0.296,-24.343C0.296,-22.567 -1.285,-21.134 -3.26,-21.134C-5.233,-21.134 -6.863,-22.567 -6.863,-24.343C-6.863,-26.17 -5.233,-27.652 -3.26,-27.652" style="fill:rgb(56,56,56);fill-rule:nonzero;"/>
        </g>
        <g transform="matrix(1,0,0,1,1383.8173,568.4421)">
            <path d="M0,-37.626L0,-28.047L4.246,-28.047L4.246,-22.762L0,-22.762L0,-8.099C0,-6.321 0.592,-5.777 2.517,-5.777C3.012,-5.777 3.751,-5.927 4.246,-6.122L4.246,-0.642C3.95,-0.544 2.665,0 0.937,0C-3.901,0 -6.568,-2.371 -6.568,-6.666L-6.568,-22.762L-9.432,-22.762L-9.432,-28.047L-6.568,-28.047L-6.568,-31.405C-6.568,-34.811 -3.802,-37.626 -0.396,-37.626L0,-37.626Z" style="fill:rgb(56,56,56);fill-rule:nonzero;"/>
        </g>
        <g transform="matrix(1,0,0,1,1187.6122,551.4077)">
            <path d="M0,-13.035C0.012,-13.052 0.026,-13.072 0.039,-13.091C0.37,-13.576 0.233,-13.934 0.01,-14.128C-0.131,-14.252 -3.467,-16.273 -3.467,-16.273C-3.709,-16.434 -3.868,-16.71 -3.868,-17.024C-3.868,-17.519 -3.573,-17.893 -2.9,-18.08C-0.755,-18.668 6.79,-18.977 9.353,-18.977C10.242,-18.977 11.776,-18.982 13.151,-18.943L13.089,-19.001C9.331,-22.212 4.452,-24.151 -0.88,-24.151C-12.768,-24.151 -22.404,-14.515 -22.404,-2.628C-22.404,2.599 -20.542,7.388 -17.446,11.116C-14.741,7.229 -8.067,-2.356 -6.605,-4.314C-4.919,-6.569 -1.076,-11.589 -0.425,-12.438L-0.393,-12.479L0,-13.035Z" style="fill:rgb(56,56,56);fill-rule:nonzero;"/>
        </g>
        <g transform="matrix(1,0,0,1,1173.6077,538.4051)">
            <path d="M0,27.436C3.632,30.234 8.184,31.898 13.123,31.898C25.011,31.898 34.646,22.264 34.646,10.375C34.646,6.778 33.764,3.387 32.204,0.408L32.206,0.409C32.948,-0.305 33.8,-1.435 33.239,-2.851C33.064,-3.272 32.228,-4.228 32.012,-4.462L32.042,-4.379C32.566,-2.798 31.529,-1.807 30.785,-1.132C30.379,-0.762 24.912,4.392 18.505,9.994C12.855,14.933 6.535,19.959 2.876,22.701C-2.274,26.554 -3.275,27.115 -3.275,27.115C-3.411,27.188 -3.637,27.251 -3.804,27.251C-4.118,27.251 -4.392,27.11 -4.565,26.885L-4.569,26.879C-4.596,26.943 -4.606,27.003 -4.582,27.043C-4.03,27.937 -3.116,28.973 -2.582,28.973C-2.415,28.973 -2.188,28.91 -2.052,28.838C-2.052,28.838 -1.647,28.614 0,27.436" style="fill:rgb(56,56,56);fill-rule:nonzero;"/>
        </g>
    </g>
</svg>
