<?xml version="1.0" encoding="UTF-8" standalone="no"?>
<!DOCTYPE svg PUBLIC "-//W3C//DTD SVG 1.1//EN" "http://www.w3.org/Graphics/SVG/1.1/DTD/svg11.dtd">
<svg width="100%" height="100%" viewBox="0 0 500 200" version="1.1" xmlns="http://www.w3.org/2000/svg" xmlns:xlink="http://www.w3.org/1999/xlink" xml:space="preserve" xmlns:serif="http://www.serif.com/" style="fill-rule:evenodd;clip-rule:evenodd;stroke-linejoin:round;stroke-miterlimit:2;">
    <g transform="matrix(1.487402,0,0,1.487402,-2351.120079,-710.365255)">
        <g transform="matrix(1,0,0,1,1739.9923,530.8223)">
            <path d="M0,-3.772C0,-1.593 -1.836,0.241 -4.094,0.317L-4.234,0.319C-5.893,0.319 -7.281,-0.612 -7.895,-1.972C-7.458,-0.304 -5.924,0.902 -4.03,0.902L-3.89,0.9C-1.632,0.825 0.204,-0.995 0.204,-3.157C0.204,-3.696 0.088,-4.208 -0.119,-4.674C-0.048,-4.383 0,-4.084 0,-3.772" style="fill:rgb(56,56,56);fill-rule:nonzero;"/>
        </g>
        <g transform="matrix(1,0,0,1,1748.7877,530.5849)">
            <path d="M0,-3.688C0.001,-1.503 -1.841,0.303 -4.106,0.338L-4.164,0.339C-5.832,0.339 -7.266,-0.637 -7.893,-2.026C-7.448,-0.337 -5.86,0.921 -3.96,0.922L-3.902,0.921C-1.637,0.886 0.205,-0.906 0.204,-3.074C0.204,-3.619 0.087,-4.138 -0.124,-4.61C-0.05,-4.313 0,-4.007 0,-3.688" style="fill:rgb(56,56,56);fill-rule:nonzero;"/>
        </g>
        <g transform="matrix(1,0,0,1,1730.0555,560.2384)">
            <path d="M0,-32.935C-0.344,-30.86 -1.371,-24.962 -2.894,-18.721C-4.93,-10.372 -6.443,-4.651 -7.658,-1.924C-7.658,-1.924 -8.288,-1.222 -10.701,-1.051C-12.443,-0.924 -13.294,-1.178 -13.631,-1.326C-13.783,-1.366 -13.931,-1.424 -14.075,-1.492C-14.171,-1.515 -14.265,-1.538 -14.344,-1.563C-14.157,-1.154 -13.98,-0.806 -13.816,-0.545C-13.816,-0.545 -13.092,0 -10.701,-0.173C-8.288,-0.345 -7.569,-0.995 -7.569,-0.995C-6.354,-3.722 -4.736,-9.458 -2.7,-17.806C-0.806,-25.568 0.323,-32.812 0.323,-32.812C0.323,-32.812 0.076,-32.886 0,-32.935" style="fill:rgb(56,56,56);fill-rule:nonzero;"/>
        </g>
        <g transform="matrix(1,0,0,1,1710.3373,561.6911)">
            <path d="M0,-16.483C-0.466,-14.832 -1.134,-12.501 -1.804,-10.281C-3.024,-6.248 -3.988,-3.379 -4.719,-2.08C-4.719,-2.08 -5.362,-1.404 -7.749,-1.144C-9.17,-0.986 -9.989,-1.104 -10.431,-1.227C-10.75,-1.252 -11.013,-1.293 -11.228,-1.342C-11.107,-1.044 -10.988,-0.761 -10.872,-0.521C-10.872,-0.521 -10.155,0 -7.749,-0.267C-5.362,-0.527 -4.569,-1.203 -4.569,-1.203C-3.838,-2.502 -2.874,-5.37 -1.654,-9.404C-0.947,-11.747 -0.27,-14.213 0.175,-15.873C0.114,-16.085 0.057,-16.284 0,-16.483" style="fill:rgb(56,56,56);fill-rule:nonzero;"/>
        </g>
        <g transform="matrix(1,0,0,1,1785.0529,541.1045)">
            <path d="M0,-0.021C-1.1,-1.312 -2.163,-1.561 -3.191,-1.16C-3.497,-1.04 -3.763,-0.884 -3.99,-0.693C-4.088,-0.424 -4.111,-0.085 -4.09,0.294C-3.842,0.055 -3.549,-0.142 -3.191,-0.283C-2.007,-0.744 -0.775,-0.326 0.504,1.54C0.613,1.502 0.722,1.462 0.831,1.423C0.583,0.926 0.302,0.432 0,-0.021" style="fill:rgb(56,56,56);fill-rule:nonzero;"/>
        </g>
        <g transform="matrix(1,0,0,1,1760.6139,542.2615)">
            <path d="M0,-5.242C-0.139,-5.084 -0.245,-4.955 -0.318,-4.865L-0.318,-4.642C0.151,-4.253 1.903,-2.703 2.666,0C2.601,-0.823 2.424,-1.56 2.183,-2.221C1.494,-3.714 0.555,-4.734 0,-5.242" style="fill:rgb(56,56,56);fill-rule:nonzero;"/>
        </g>
        <g transform="matrix(1,0,0,1,1800.1311,560.6226)">
            <path d="M0,0.02C-2.002,-0.187 -3.96,-1.082 -3.96,-1.082L-3.96,-0.205C-3.96,-0.205 -2.002,0.69 0,0.897C2,1.102 3.958,0.603 3.958,0.603L3.958,-0.274C3.958,-0.274 2,0.225 0,0.02" style="fill:rgb(56,56,56);fill-rule:nonzero;"/>
        </g>
        <g transform="matrix(1,0,0,1,1789.0592,549.3282)">
            <path d="M0,0.164C-1.418,0.665 -2.677,1.103 -3.626,1.432C-3.355,1.61 -3.028,1.795 -2.662,1.974C-1.885,1.704 -0.982,1.388 0,1.041C3.047,-0.035 5.946,-0.985 5.946,-0.985C5.896,-1.248 5.843,-1.526 5.788,-1.81C5.156,-1.602 2.638,-0.768 0,0.164" style="fill:rgb(56,56,56);fill-rule:nonzero;"/>
        </g>
        <g transform="matrix(1,0,0,1,1805.9496,545.2817)">
            <path d="M0,0.702C-0.51,1.513 -0.81,2.349 -0.982,3.112C-0.049,1.213 1.828,-0.769 5.606,-1.521C5.606,-1.521 5.655,-1.837 5.672,-2.41C5.651,-2.407 5.606,-2.398 5.606,-2.398C2.85,-1.85 1.106,-0.646 0,0.702" style="fill:rgb(56,56,56);fill-rule:nonzero;"/>
        </g>
        <g transform="matrix(1,0,0,1,1790.8855,553.4238)">
            <path d="M0,2.919C-0.205,3.226 -0.418,3.507 -0.63,3.774C-1.724,5.381 -3.035,6.438 -3.035,6.438C-8.358,6.13 -12.003,3.692 -14.428,0.254C-15.482,-1.074 -16.377,-2.629 -17.11,-4.396C-17.034,-4.159 -16.974,-3.925 -16.888,-3.686C-14.801,2.13 -10.612,6.877 -3.035,7.315C-3.035,7.315 -1.679,6.226 -0.575,4.574C0.484,2.988 1.1,1.633 1.1,1.633C0.995,1.639 0.897,1.638 0.797,1.639C0.568,2.032 0.304,2.463 0,2.919" style="fill:rgb(56,56,56);fill-rule:nonzero;"/>
        </g>
        <g transform="matrix(1,0,0,1,1731.6348,556.6238)">
            <path d="M0,-1.617C-0.185,-1.84 -0.361,-2.081 -0.531,-2.336L-0.532,-2.337C-0.972,-2.869 -1.397,-3.482 -1.771,-4.261C-1.343,-2.687 -0.721,-1.612 0,-0.74C2.052,1.737 5.127,2.644 9.099,2.555C13.728,2.451 17.175,1.329 17.175,1.329L17.175,0.452C17.175,0.452 13.728,1.573 9.099,1.678C5.127,1.767 2.052,0.86 0,-1.617" style="fill:rgb(56,56,56);fill-rule:nonzero;"/>
        </g>
        <g transform="matrix(1,0,0,1,1769.2826,556.6195)">
            <path d="M0,-3.602C-2.211,-0.411 -5.788,1.109 -10.081,1.519C-14.457,1.939 -17.625,0.446 -17.625,0.446L-17.625,1.323C-17.625,1.323 -14.457,2.816 -10.081,2.396C-4.38,1.852 0.069,-0.639 1.715,-6.418C1.257,-5.371 0.685,-4.433 0,-3.602" style="fill:rgb(56,56,56);fill-rule:nonzero;"/>
        </g>
        <g transform="matrix(1,0,0,1,1781.2833,538.8863)">
            <path d="M0,6.019C1.852,5.348 3.703,4.688 5.554,4.038C3.809,0.176 2.153,-0.716 0.579,-0.102C-1.12,0.564 -1.742,2.178 0,6.019M10.702,14.133C10.702,14.133 10.086,15.487 9.027,17.074C7.923,18.726 6.567,19.815 6.567,19.815C-1.01,19.377 -5.199,14.63 -7.286,8.814C-9.768,1.924 -7.798,-4.092 -1.967,-6.127C2.383,-7.64 6.786,-5.871 9.119,-3.208C10.46,-1.678 11.89,0.762 12.508,2.583C13.216,4.672 13.481,6.147 13.722,7.419C13.722,7.419 10.823,8.369 7.776,9.446C4.758,10.51 2.408,11.314 2.407,11.312C2.407,11.316 5.009,14.453 10.702,14.133M-36.613,-15.059C-38.419,-15.033 -39.884,-13.607 -39.884,-11.889C-39.884,-10.169 -38.42,-8.81 -36.613,-8.834C-34.806,-8.862 -33.341,-10.261 -33.341,-11.983C-33.341,-13.699 -34.806,-15.086 -36.613,-15.059M-45.409,-14.852C-47.217,-14.794 -48.682,-13.341 -48.682,-11.623C-48.681,-9.903 -47.217,-8.57 -45.409,-8.628C-43.602,-8.688 -42.136,-10.114 -42.137,-11.836C-42.136,-13.553 -43.602,-14.913 -45.409,-14.852M-43.355,10.105C-44.034,9.094 -44.372,7.517 -44.372,4.324C-44.372,1.131 -42.552,-6.366 -42.552,-6.366C-42.552,-6.366 -44.517,-7.022 -46.525,-6.951C-48.534,-6.88 -50.498,-6.089 -50.498,-6.089C-50.498,-6.089 -51.659,-3.183 -51.981,3.558C-52.302,10.302 -51.2,13.084 -49.649,14.96C-47.597,17.437 -44.521,18.344 -40.549,18.255C-35.921,18.15 -32.474,17.029 -32.474,17.029L-32.474,-6.529C-32.474,-6.529 -34.438,-7.227 -36.446,-7.198C-38.455,-7.174 -40.42,-6.418 -40.42,-6.418L-40.42,11.047C-40.42,11.042 -42.623,11.197 -43.355,10.105M30.07,-0.763C29.587,-2.603 28.519,-3.688 28.519,-3.688C28.519,-3.688 24.272,-3.162 22.806,-0.959L22.806,-3.688C22.806,-3.688 21.489,-4.49 19.056,-4.742C16.621,-4.991 14.887,-4.495 14.887,-4.495L14.887,19.494C14.887,19.494 16.846,20.389 18.848,20.596C20.848,20.801 22.806,20.301 22.806,20.301L22.806,10.677C22.974,8.629 24.065,4.072 30.273,2.837C30.273,2.837 30.551,1.073 30.07,-0.763M-9.614,4.807C-9.969,13.824 -15.084,17.424 -22.082,18.092C-26.458,18.511 -29.626,17.019 -29.626,17.019L-29.626,-12.494C-29.626,-12.494 -27.661,-13.199 -25.653,-13.181C-23.644,-13.165 -21.678,-12.42 -21.678,-12.42L-21.678,10.998C-21.678,10.998 -20.406,10.897 -19.546,10.221C-18.501,9.4 -17.47,7.772 -17.293,4.641C-17.019,-0.243 -20.359,-2.852 -20.735,-3.166C-20.735,-3.166 -19.595,-4.713 -17.917,-5.725C-16.242,-6.737 -14.32,-6.994 -14.32,-6.991C-14.32,-7 -9.347,-1.981 -9.614,4.807M-66.533,-12.939C-66.533,-12.939 -65.087,-8.055 -64.416,-5.245C-63.745,-2.436 -62.695,2.243 -62.695,2.243C-62.695,2.243 -62.047,-1.882 -61.411,-5.714C-60.774,-9.548 -59.956,-13.206 -59.956,-13.206C-59.956,-13.206 -58.698,-14.07 -55.886,-14.232C-53.165,-14.385 -51.873,-13.366 -51.873,-13.366C-51.873,-13.366 -53.002,-6.122 -54.896,1.639C-56.932,9.988 -58.356,15.762 -59.571,18.489C-59.571,18.489 -60.289,19.138 -62.702,19.31C-65.094,19.483 -65.818,18.938 -65.818,18.938C-66.55,17.773 -67.515,15.082 -68.735,11.272C-69.953,7.462 -71.088,3.254 -71.088,3.254L-71.089,3.255C-71.089,3.255 -72.224,7.668 -73.441,11.701C-74.66,15.734 -75.625,18.603 -76.355,19.902C-76.355,19.902 -77.079,20.578 -79.465,20.838C-81.871,21.105 -82.588,20.584 -82.588,20.584C-83.799,18.082 -85.217,12.567 -87.246,4.589C-89.131,-2.829 -90.254,-9.872 -90.254,-9.872C-90.254,-9.872 -88.97,-11.12 -86.26,-11.462C-83.46,-11.811 -82.203,-11.18 -82.203,-11.18C-82.203,-11.18 -81.387,-7.669 -80.753,-3.951C-80.119,-0.233 -79.471,3.769 -79.471,3.769C-79.471,3.769 -78.424,-1.096 -77.755,-4.029C-77.085,-6.963 -75.641,-12.105 -75.641,-12.105C-75.641,-12.105 -74.307,-12.984 -71.088,-13.277C-67.869,-13.563 -66.533,-12.939 -66.533,-12.939" style="fill:rgb(56,56,56);fill-rule:nonzero;"/>
        </g>
        <g transform="matrix(1,0,0,1,1803.2175,523.1018)">
            <path d="M0,43.435C-1.602,43.659 -3.165,43.77 -4.769,43.777C-6.832,43.779 -8.966,43.609 -11.342,43.278C-19.312,42.17 -27.472,41.319 -35.606,40.787C-41.934,40.37 -48.246,40.148 -54.439,40.148L-54.51,40.148C-68.757,40.148 -83.604,41.304 -97.704,43.278C-100.042,43.606 -102.145,43.774 -104.177,43.777C-105.766,43.769 -107.315,43.656 -108.902,43.435C-119.035,42.021 -125.9,33.677 -125.9,23.636C-125.9,15.398 -120.432,7.755 -113.715,4.128C-102.534,-1.91 -88.183,-3.295 -73.462,-4.878C-67.925,-5.474 -61.051,-5.758 -54.255,-5.752C-47.505,-5.744 -40.84,-5.452 -35.633,-4.898C-35.57,-4.891 -35.504,-4.885 -35.441,-4.878C-20.723,-3.278 -6.37,-1.91 4.812,4.128C11.527,7.755 16.997,15.398 16.997,23.636C16.997,33.677 10.132,42.021 0,43.435M9.985,5.417C9.579,4.988 9.156,4.565 8.714,4.149C8.494,3.941 8.269,3.734 8.039,3.529C7.121,2.71 6.132,1.917 5.069,1.152C3.544,0.056 1.756,-0.941 -0.231,-1.845C-16.604,-9.302 -46.525,-10.555 -54.451,-10.555C-62.402,-10.555 -92.5,-9.294 -108.837,-1.768C-110.757,-0.884 -112.488,0.087 -113.969,1.152C-115.564,2.299 -116.993,3.517 -118.263,4.795C-118.668,5.203 -119.055,5.616 -119.427,6.035C-124.122,11.317 -126.282,17.511 -126.282,23.877C-126.282,29.614 -124.244,34.952 -120.976,39.206C-120.775,39.468 -120.569,39.726 -120.358,39.979C-120.256,40.102 -120.153,40.224 -120.049,40.346C-119.918,40.497 -119.787,40.647 -119.654,40.795C-119.444,41.027 -119.231,41.256 -119.013,41.481C-116.869,43.696 -114.363,45.504 -111.651,46.773C-110.747,47.196 -109.829,47.595 -108.897,47.97C-107.965,48.345 -107.018,48.696 -106.056,49.026C-105.634,49.171 -105.208,49.311 -104.779,49.448C-104.662,49.485 -104.545,49.522 -104.427,49.559C-104.052,49.676 -103.673,49.791 -103.292,49.902C-102.921,50.011 -102.547,50.117 -102.17,50.22C-89.438,53.707 -74.066,53.99 -54.423,53.99C-34.883,53.99 -19.606,53.71 -6.929,50.276C-6.392,50.13 -5.86,49.979 -5.333,49.822C-5.138,49.764 -4.944,49.706 -4.751,49.646C-4.365,49.527 -3.981,49.406 -3.601,49.281C-3.589,49.277 -3.578,49.274 -3.566,49.27C-1.386,48.552 0.716,47.725 2.75,46.773C11.023,42.903 17.382,34.013 17.382,23.877C17.382,17.112 15.057,10.779 9.985,5.417" style="fill:rgb(56,56,56);fill-rule:nonzero;"/>
        </g>
    </g>
</svg>
